<svg width="367" height="1117" viewBox="0 0 367 1117" fill="none" xmlns="http://www.w3.org/2000/svg">
<path opacity="0.2" d="M-356.715 186.726C-702.119 57.6138 -89.8563 148.672 -523.752 -177.272C-535.522 -186.114 -549.216 -194.024 -562.764 -199.914L-793.676 -300.314C-873.125 -334.859 -966.294 -315.199 -1024.75 -251.553L-1215.23 -44.1689C-1222.64 -36.1074 -1229.36 -27.4636 -1235.33 -18.3245L-1361.22 174.24C-1396.68 228.486 -1403.29 296.215 -1378.94 355.908L-1237.78 701.99C-1210.24 769.509 -1147.31 816.599 -1073.85 824.668L-621.78 874.322C-543.377 882.933 -466.919 845.63 -426.175 778.886L-245.683 483.224C-178.37 372.959 -234.96 232.239 -356.715 186.726Z" stroke="url(#paint0_linear_16563_161213)"/>
<path opacity="0.2" d="M-327.776 205.476C-659.965 49.0648 -58.3839 189.338 -463.044 -170.58C-474.071 -180.389 -487.1 -189.419 -500.152 -196.418L-721.671 -315.204C-798.002 -356.135 -892.453 -344.222 -955.958 -285.654L-1163.45 -94.2897C-1171.48 -86.8876 -1178.88 -78.8524 -1185.58 -70.2644L-1327.41 111.624C-1367.22 162.68 -1379.45 229.537 -1360.21 290.989L-1248.73 647.066C-1226.9 716.796 -1167.93 769.049 -1095.19 783.115L-649.096 869.386C-571.745 884.345 -492.58 853.517 -446.483 790.486L-241.524 510.237C-165.209 405.889 -210.075 260.895 -327.776 205.476Z" stroke="url(#paint1_linear_16563_161213)"/>
<path opacity="0.2" d="M-300.495 226.481C-617.239 44.0438 -30.4238 232.412 -403.109 -158.951C-413.312 -169.666 -425.581 -179.763 -438.045 -187.831L-648.662 -324.159C-721.346 -371.206 -816.416 -367.115 -884.516 -314.01L-1107.64 -140.015C-1116.23 -133.318 -1124.25 -125.942 -1131.61 -117.96L-1288.46 51.9745C-1332.33 99.504 -1350.08 165.038 -1336.08 227.826L-1255 591.432C-1239.06 662.907 -1184.48 720.005 -1112.97 740.006L-675.902 862.261C-600.134 883.454 -518.827 859.288 -467.722 800.384L-239.649 537.506C-154.865 439.784 -187.678 291.461 -300.495 226.481Z" stroke="url(#paint2_linear_16563_161213)"/>
<path opacity="0.2" d="M-275.042 249.61C-574.266 42.5793 -6.15975 277.608 -344.364 -142.465C-353.665 -154.018 -365.084 -165.119 -376.87 -174.208L-575.158 -327.119C-643.689 -379.967 -738.713 -383.716 -810.926 -336.419L-1048.18 -181.031C-1057.26 -175.079 -1065.84 -168.408 -1073.82 -161.082L-1244.65 -4.30451C-1292.26 39.3899 -1315.39 103.162 -1306.72 166.855L-1256.53 535.487C-1246.63 608.221 -1196.86 669.802 -1127.08 695.633L-702.023 852.995C-628.354 880.268 -545.477 862.897 -489.74 808.502L-240.073 564.845C-147.411 474.413 -167.911 323.733 -275.042 249.61Z" stroke="url(#paint3_linear_16563_161213)"/>
<path opacity="0.2" d="M-251.575 274.697C-531.366 44.6445 14.2491 324.604 -287.217 -121.261C-295.544 -133.577 -306.026 -145.612 -317.045 -155.664L-501.667 -324.091C-565.566 -382.384 -659.881 -393.933 -735.705 -352.747L-985.47 -217.08C-994.99 -211.909 -1004.07 -205.981 -1012.61 -199.355L-1196.26 -56.8558C-1247.27 -17.2751 -1275.61 44.3128 -1272.32 108.473L-1253.33 479.606C-1249.57 553.098 -1204.98 618.76 -1137.44 650.271L-727.286 841.626C-656.216 874.784 -572.345 864.296 -512.374 814.752L-242.798 592.044C-142.897 509.513 -150.902 357.474 -251.575 274.697Z" stroke="url(#paint4_linear_16563_161213)"/>
<path opacity="0.2" d="M-230.238 301.605C-488.85 50.2212 30.672 373.105 -232.056 -95.4739C-239.342 -108.469 -248.807 -121.358 -258.975 -132.308L-428.691 -315.082C-487.51 -378.426 -580.463 -397.679 -659.375 -362.863L-919.944 -247.902C-929.832 -243.539 -939.342 -238.388 -948.379 -232.501L-1143.61 -105.307C-1197.67 -70.0886 -1231.01 -11.0906 -1233.14 53.0978L-1245.41 424.204C-1247.84 497.936 -1208.8 567.24 -1143.98 604.237L-751.519 828.244C-683.527 867.052 -599.235 863.484 -535.451 819.099L-247.799 618.931C-141.349 544.855 -136.752 392.478 -230.238 301.605Z" stroke="url(#paint5_linear_16563_161213)"/>
<path opacity="0.2" d="M-211.171 330.185C-447.026 59.2611 42.9973 422.806 -179.262 -65.2701C-185.448 -78.8556 -193.821 -92.5096 -203.06 -104.285L-356.735 -300.147C-410.058 -368.107 -501.009 -394.917 -582.472 -366.687L-852.047 -273.27C-862.237 -269.738 -872.117 -265.394 -881.59 -260.278L-1087.06 -149.314C-1143.79 -118.675 -1181.91 -62.6534 -1189.42 1.12482L-1232.83 369.69C-1241.47 443.136 -1208.29 515.601 -1146.67 557.846L-774.558 812.95C-710.103 857.137 -625.958 860.482 -558.8 821.527L-255.046 645.334C-142.777 580.212 -125.554 428.532 -211.171 330.185Z" stroke="url(#paint6_linear_16563_161213)"/>
<path opacity="0.2" d="M-194.503 360.247C-406.192 71.658 51.1372 473.363 -129.198 -30.8783C-134.233 -44.9575 -141.447 -59.2817 -149.684 -71.8L-286.295 -279.408C-333.745 -351.519 -422.07 -385.683 -505.535 -364.212L-782.244 -293.027C-792.67 -290.345 -802.854 -286.83 -812.699 -282.515L-1026.99 -188.59C-1086.01 -162.719 -1128.65 -110.039 -1141.49 -47.1056L-1215.69 316.43C-1230.51 389.061 -1203.47 464.174 -1145.5 511.385L-796.25 795.825C-735.764 845.086 -652.325 855.292 -582.246 822.001L-264.49 671.055C-147.17 615.322 -117.384 465.382 -194.503 360.247Z" stroke="url(#paint7_linear_16563_161213)"/>
<path opacity="0.2" d="M-180.353 391.607C-366.627 87.2986 55.0333 524.441 -82.2041 7.46138C-86.0457 -7.00981 -92.0419 -21.9018 -99.2125 -35.0744L-217.849 -253.014C-259.091 -328.775 -344.19 -370.045 -429.098 -355.461L-711.012 -307.038C-721.605 -305.219 -732.028 -302.551 -742.18 -299.06L-963.787 -222.863C-1024.71 -201.916 -1071.57 -152.921 -1089.66 -91.2622L-1194.12 264.801C-1215.04 336.086 -1194.36 413.305 -1140.48 465.157L-816.443 776.98C-760.332 830.978 -678.148 847.951 -605.614 820.524L-276.065 695.914C-154.493 649.945 -112.294 502.791 -180.353 391.607Z" stroke="url(#paint8_linear_16563_161213)"/>
<path opacity="0.2" d="M-168.824 424.064C-328.596 106.039 54.6517 575.694 -38.5998 49.4747C-41.2149 34.7178 -45.9453 19.3662 -51.9923 5.63472L-151.867 -221.157C-186.606 -300.043 -267.906 -348.121 -353.693 -340.51L-638.834 -315.213C-649.528 -314.264 -660.123 -312.457 -670.518 -309.81L-897.89 -251.901C-960.31 -236.004 -1011.09 -191.015 -1034.3 -131.049L-1168.29 215.152C-1195.16 284.568 -1181.03 363.326 -1131.63 419.453L-834.998 756.533C-783.636 814.898 -703.243 838.507 -628.728 817.106L-289.689 719.734C-164.694 683.836 -110.324 540.506 -168.824 424.064Z" stroke="url(#paint9_linear_16563_161213)"/>
<path opacity="0.2" d="M-160.014 457.465C-292.353 127.778 49.9807 626.83 1.31555 94.9221C-0.0506934 79.9892 -3.477 64.2913 -8.35291 50.1018L-88.7996 -184.008C-116.792 -265.469 -193.747 -320.014 -279.845 -319.419L-566.21 -317.442C-576.937 -317.368 -587.638 -316.431 -598.21 -314.641L-829.743 -275.446C-893.251 -264.694 -947.615 -224.007 -975.784 -166.143L-1138.39 167.879C-1171.03 234.913 -1163.56 314.625 -1119.03 374.624L-851.789 734.668C-805.519 797.007 -727.435 827.079 -651.425 811.833L-305.274 742.402C-177.704 716.814 -111.497 578.331 -160.014 457.465Z" stroke="url(#paint10_linear_16563_161213)"/>
<path opacity="0.2" d="M-154.006 491.497C-258.129 152.246 41.037 677.407 37.2689 143.392C37.1631 128.395 35.068 112.468 31.401 97.9254L-29.0803 -141.922C-50.1279 -225.39 -122.224 -286.019 -208.066 -292.441L-493.639 -313.805C-504.331 -314.605 -515.071 -314.544 -525.754 -313.622L-759.812 -293.424C-823.996 -287.885 -881.586 -251.769 -914.523 -196.4L-1104.65 123.203C-1142.81 187.362 -1142.08 267.433 -1102.73 330.868L-866.698 711.434C-825.831 777.325 -750.559 813.653 -673.543 804.654L-322.713 763.663C-193.435 748.557 -115.818 615.921 -154.006 491.497Z" stroke="url(#paint11_linear_16563_161213)"/>
<path opacity="0.2" d="M-150.855 526.032C-226.13 179.354 27.8754 727.176 69.025 194.648C70.1802 179.698 69.4318 163.66 67.001 148.874L26.8931 -95.095C12.9374 -179.985 -53.8226 -246.28 -138.843 -259.676L-421.611 -304.23C-432.203 -305.899 -442.915 -306.714 -453.643 -306.665L-688.568 -305.608C-753.011 -305.317 -813.45 -274.016 -850.931 -221.519L-1067.3 81.5216C-1110.72 142.335 -1116.71 222.163 -1082.84 288.569L-879.612 687.083C-844.424 756.082 -772.447 798.423 -694.92 795.73L-341.881 783.466C-211.77 778.946 -123.26 653.118 -150.855 526.032Z" stroke="url(#paint12_linear_16563_161213)"/>
<path opacity="0.2" d="M-150.609 560.802C-196.552 208.871 10.568 775.761 96.3658 248.302C98.7716 233.512 99.374 217.483 98.1959 202.563L78.737 -43.8827C71.9688 -129.601 10.9866 -201.106 -72.6503 -221.392L-350.624 -288.815C-361.05 -291.344 -371.668 -293.03 -382.373 -293.857L-616.503 -311.938C-680.786 -316.903 -743.679 -290.63 -785.45 -241.363L-1026.61 43.0756C-1074.96 100.101 -1087.64 179.09 -1059.49 247.978L-890.44 661.743C-861.169 733.387 -792.951 781.467 -715.412 785.102L-362.648 801.641C-232.587 807.739 -133.79 689.638 -150.609 560.802Z" stroke="url(#paint13_linear_16563_161213)"/>
<path opacity="0.2" d="M-153.298 595.536C-169.572 240.562 -10.7825 822.794 119.105 303.959C122.74 289.438 124.686 273.537 124.766 258.595L126.098 11.3342C126.56 -74.6142 71.758 -150.843 -9.9412 -177.893L-281.17 -267.693C-291.364 -271.068 -301.82 -273.617 -312.436 -275.316L-544.118 -312.393C-607.821 -322.587 -672.755 -301.528 -718.532 -255.827L-982.886 8.08642C-1035.8 60.9141 -1055.04 138.478 -1032.81 209.341L-899.105 635.56C-875.951 709.367 -811.936 762.876 -734.886 772.827L-384.876 818.033C-255.747 834.711 -147.353 725.202 -153.298 595.536Z" stroke="url(#paint14_linear_16563_161213)"/>
<path opacity="0.2" d="M-158.922 630.075C-145.345 274.3 -36.039 868.032 137.092 361.324C141.925 347.18 145.195 331.523 146.529 316.669L168.657 70.2643C176.342 -15.3142 128.081 -95.752 48.8637 -129.396L-213.724 -240.92C-223.62 -245.123 -233.847 -248.523 -244.306 -251.087L-471.91 -306.873C-534.616 -322.242 -601.163 -306.55 -650.635 -264.728L-936.421 -23.1345C-993.506 25.1232 -1019.15 100.693 -1002.98 173.011L-905.539 608.798C-888.664 684.272 -829.271 742.871 -753.211 759.09L-408.407 832.615C-281.089 859.765 -163.867 759.648 -158.922 630.075Z" stroke="url(#paint15_linear_16563_161213)"/>
<path opacity="0.2" d="M-167.465 664.049C-124.011 309.745 -65.04 911.034 150.205 419.89C156.195 406.223 160.759 390.924 163.331 376.267L206.124 132.388C220.971 47.7743 179.57 -36.3321 103.368 -76.3607L-148.751 -208.798C-158.285 -213.806 -168.218 -218.039 -178.452 -221.455L-400.385 -295.528C-461.677 -315.985 -529.394 -305.78 -582.225 -268.124L-887.54 -50.5071C-948.367 -7.15184 -980.192 65.8777 -970.178 139.124L-909.694 581.526C-899.218 658.157 -844.842 721.475 -770.273 743.876L-433.083 845.169C-308.441 882.612 -183.233 792.617 -167.465 664.049Z" stroke="url(#paint16_linear_16563_161213)"/>
<path opacity="0.2" d="M-178.881 697.292C-105.693 346.755 -97.5916 951.578 158.358 479.34C165.454 466.248 171.272 451.416 175.056 437.06L238.247 197.365C260.145 114.304 225.879 27.0914 153.209 -19.0693L-86.6981 -171.461C-95.8063 -177.247 -105.379 -182.29 -115.322 -186.541L-330.039 -278.347C-389.507 -303.774 -457.94 -299.142 -513.771 -265.911L-836.575 -73.7758C-900.692 -35.613 -938.433 34.3602 -934.621 108.006L-911.535 554.018C-907.536 631.287 -858.547 698.923 -785.966 727.382L-458.731 855.692C-337.617 903.181 -205.328 823.957 -178.881 697.292Z" stroke="url(#paint17_linear_16563_161213)"/>
<path opacity="0.2" d="M-193.108 729.516C-90.5019 385.059 -133.478 989.332 161.49 539.233C169.635 526.805 176.658 512.544 181.62 498.591L264.804 264.715C293.591 183.779 266.69 94.0437 198.05 42.0443L-27.9974 -129.204C-36.6174 -135.735 -45.7644 -141.56 -55.3484 -146.624L-261.367 -255.483C-318.608 -285.728 -387.293 -286.719 -445.745 -258.143L-783.874 -92.8343C-850.809 -60.1103 -894.156 6.32312 -896.544 79.8426L-911.05 526.427C-913.563 603.811 -870.301 675.333 -800.199 709.688L-485.179 864.073C-368.421 921.293 -230.011 853.402 -193.108 729.516Z" stroke="url(#paint18_linear_16563_161213)"/>
<path opacity="0.2" d="M-210.051 760.522C-78.5276 424.464 -172.451 1024.07 159.584 599.206C168.711 587.526 176.882 573.933 182.979 560.479L285.615 334.027C321.083 255.772 301.73 164.112 237.598 106.608L26.9483 -82.2718C18.8773 -89.5086 10.2195 -96.0841 1.06064 -101.933L-194.85 -227.046C-249.469 -261.927 -317.937 -268.553 -378.61 -244.829L-729.785 -107.519C-799.053 -80.4353 -847.66 -17.9879 -856.199 54.8892L-908.235 498.993C-917.254 575.965 -880.028 650.914 -812.888 690.963L-512.242 870.3C-400.643 936.87 -257.118 880.785 -210.051 760.522Z" stroke="url(#paint19_linear_16563_161213)"/>
<path opacity="0.2" d="M-229.593 790.014C-69.8474 464.666 -214.239 1055.48 152.65 658.789C162.69 647.934 171.942 635.1 179.125 622.235L300.538 404.766C342.431 329.728 330.763 236.756 271.59 174.121L77.7592 -31.048C70.2958 -38.948 62.1894 -46.2345 53.5206 -52.835L-130.954 -193.296C-182.567 -232.595 -250.346 -244.829 -312.826 -226.125L-674.67 -117.801C-745.774 -96.5152 -799.262 -38.4611 -813.859 33.2695L-903.109 471.85C-918.582 547.881 -887.668 625.77 -823.96 671.271L-539.735 874.269C-434.063 949.741 -286.463 905.841 -229.593 790.014Z" stroke="url(#paint20_linear_16563_161213)"/>
<path opacity="0.2" d="M-251.594 817.827C-64.5228 505.48 -258.55 1083.39 140.734 717.64C151.611 707.678 161.873 695.685 170.083 683.494L309.467 476.514C357.49 405.202 353.592 311.541 299.8 244.188L124.084 24.1763C117.284 15.6623 109.789 7.70928 101.674 0.396761L-70.1265 -154.406C-118.366 -197.873 -184.983 -215.65 -248.843 -202.096L-618.891 -123.555C-691.332 -108.18 -749.295 -54.8862 -769.816 15.2106L-895.709 445.251C-917.539 519.819 -893.175 600.135 -833.354 650.804L-567.469 876.014C-468.454 959.881 -317.845 928.446 -251.594 817.827Z" stroke="url(#paint21_linear_16563_161213)"/>
<path opacity="0.2" d="M-275.891 843.677C-62.5989 546.578 -305.069 1107.53 123.916 775.284C135.549 766.275 146.745 755.2 155.919 743.761L312.341 548.708C366.153 481.606 370.065 387.885 322.043 316.263L165.604 82.9472C159.52 73.8737 152.693 65.3043 145.191 57.3252L-12.7928 -110.722C-57.311 -158.076 -122.296 -181.288 -187.097 -172.981L-562.816 -124.818C-636.092 -115.425 -698.104 -67.2174 -724.376 0.777434L-886.086 419.31C-914.132 491.899 -896.515 574.107 -841.017 629.62L-595.252 875.451C-503.582 967.145 -351.043 948.358 -275.891 843.677Z" stroke="url(#paint22_linear_16563_161213)"/>
<path opacity="0.2" d="M-302.305 867.436C-64.1061 587.765 -353.469 1127.79 102.305 831.392C114.611 823.389 126.659 813.299 136.728 802.683L309.133 620.922C368.36 558.48 380.068 465.332 338.167 389.925L202.029 144.925C196.709 135.351 190.604 126.221 183.774 117.627L40.6453 -62.4866C0.175799 -113.413 -62.7172 -141.913 -128.014 -138.914L-506.816 -121.515C-580.431 -118.134 -646.047 -75.2976 -677.861 -9.85119L-874.311 394.277C-908.39 464.383 -897.675 547.924 -846.909 607.918L-622.896 872.649C-539.21 971.547 -385.823 965.495 -302.305 867.436Z" stroke="url(#paint23_linear_16563_161213)"/>
<path opacity="0.2" d="M-330.629 888.894C-69.0502 628.747 -403.401 1143.99 76.0497 885.547C88.9434 878.597 101.758 869.552 112.651 859.824L299.865 692.629C364.096 635.267 383.536 543.324 348.069 464.648L233.113 209.648C228.601 199.64 223.266 190.011 217.162 180.859L89.8208 -10.0728C53.7013 -64.2292 -6.64994 -97.8291 -71.9937 -100.161L-451.257 -113.698C-524.718 -116.32 -593.481 -79.0993 -630.597 -16.6242L-860.464 370.293C-900.349 437.428 -896.643 521.728 -850.991 585.8L-650.206 867.597C-575.089 973.023 -421.931 979.697 -330.629 888.894Z" stroke="url(#paint24_linear_16563_161213)"/>
<path opacity="0.2" d="M-360.649 907.906C-77.4234 669.263 -454.509 1156.03 45.3251 937.387C58.7188 931.528 72.2122 923.581 83.8526 914.799L284.596 763.347C353.388 711.446 380.444 621.338 351.676 539.936L258.64 276.678C254.975 266.306 250.454 256.244 245.124 246.596L134.393 46.1578C102.896 -10.8564 45.5193 -49.3292 -19.4205 -56.9795L-396.508 -101.403C-469.332 -109.982 -540.776 -78.5848 -582.925 -19.479L-844.649 347.536C-890.069 411.229 -893.432 495.7 -853.241 563.411L-676.998 860.337C-610.976 971.568 -459.11 990.868 -360.649 907.906Z" stroke="url(#paint25_linear_16563_161213)"/>
<path opacity="0.2" d="M-392.131 924.36C-89.1911 709.062 -506.426 1163.85 10.3418 986.574C24.1471 981.838 38.2285 975.034 50.5375 967.25L263.429 832.61C336.312 786.516 370.814 698.863 348.966 615.303L278.44 345.574C275.652 334.911 271.983 324.488 267.471 314.413L174.06 105.83C147.425 46.3555 93.4367 3.27526 29.3495 -9.64281L-342.931 -84.6834C-414.645 -99.1388 -488.296 -73.7345 -535.182 -18.3707L-826.975 326.183C-877.621 385.988 -888.057 470.033 -853.638 540.911L-703.083 850.941C-646.621 967.211 -497.085 998.95 -392.131 924.36Z" stroke="url(#paint26_linear_16563_161213)"/>
<path opacity="0.2" d="M-424.841 938.085C-104.305 747.811 -558.788 1167.35 -28.6683 1032.71C-14.5409 1029.12 0.036117 1023.5 12.9324 1016.76L236.501 899.881C312.977 859.901 354.706 775.31 339.946 690.181L292.373 415.799C290.487 404.922 287.701 394.214 284.045 383.784L208.548 168.463C186.98 106.948 136.769 59.5625 73.977 41.4639L-290.891 -63.7029C-361.035 -83.9206 -436.415 -64.6431 -487.718 -13.3672L-807.574 306.321C-863.098 361.817 -880.561 444.834 -852.18 518.377L-728.288 839.413C-681.783 959.919 -535.587 1003.83 -424.841 938.085Z" stroke="url(#paint27_linear_16563_161213)"/>
<path opacity="0.2" d="M-458.53 949.079C-122.686 785.318 -611.22 1166.57 -71.4372 1075.55C-57.0778 1073.13 -42.099 1068.72 -28.6991 1063.06L203.994 964.777C283.547 931.176 332.23 850.238 324.674 764.143L300.347 486.949C299.381 475.939 297.502 465.024 294.731 454.316L237.63 233.7C221.294 170.584 175.221 119.228 114.159 96.0724L-240.736 -38.5095C-308.863 -64.3441 -385.492 -51.2936 -440.869 -4.42548L-786.581 288.165C-846.6 338.961 -870.987 420.351 -848.865 496.032L-752.437 825.914C-716.217 949.821 -574.334 1005.55 -458.53 949.079Z" stroke="url(#paint28_linear_16563_161213)"/>
<path opacity="0.2" d="M-492.948 957.228C-144.23 821.26 -663.355 1161.5 -117.672 1114.76C-103.171 1113.52 -87.8862 1110.34 -74.0679 1105.8L166.132 1026.8C248.222 999.798 303.536 923.082 303.246 836.633L302.312 558.482C302.275 547.422 301.319 536.381 299.456 525.473L261.115 301.034C250.136 236.769 208.531 181.81 149.621 153.757L-192.81 -9.31349C-258.486 -40.5894 -335.882 -33.833 -394.972 8.33449L-764.146 271.785C-828.242 317.525 -859.396 396.697 -843.703 473.968L-775.364 810.484C-749.684 936.933 -613.049 1004.06 -492.948 957.228Z" stroke="url(#paint29_linear_16563_161213)"/>
<path opacity="0.2" d="M-527.845 962.511C-168.812 855.39 -714.83 1152.19 -167.06 1150.07C-152.508 1150.01 -137.012 1148.1 -122.863 1144.69L123.167 1085.53C207.242 1065.31 268.816 993.36 275.797 907.175L298.253 629.924C299.147 618.895 299.123 607.811 298.183 596.787L278.848 370.015C273.31 305.066 236.467 246.898 180.117 214.14L-147.446 23.7167C-210.255 -12.796 -287.933 -12.3689 -350.354 24.8321L-740.429 257.306C-808.155 297.669 -845.862 374.045 -836.719 452.343L-796.914 793.246C-781.956 921.358 -651.456 999.391 -527.845 962.511Z" stroke="url(#paint30_linear_16563_161213)"/>
<path opacity="0.2" d="M-562.973 964.902C-196.28 887.441 -765.288 1138.71 -219.261 1181.22C-204.749 1182.35 -189.14 1181.71 -174.748 1179.47L75.3952 1140.56C160.887 1127.26 228.303 1060.58 242.504 975.273L288.202 700.773C290.019 689.859 290.928 678.815 290.918 667.756L290.718 440.156C290.661 374.993 258.837 314.035 205.437 276.799L-104.963 60.3579C-164.502 18.841 -241.979 12.9351 -307.331 44.9313L-715.595 244.814C-786.477 279.517 -830.471 352.539 -827.945 431.294L-816.941 774.309C-812.807 903.193 -689.283 991.585 -562.973 964.902Z" stroke="url(#paint31_linear_16563_161213)"/>
<path opacity="0.2" d="M-598.084 964.418C-226.451 917.175 -814.382 1121.17 -273.915 1208.02C-259.533 1210.33 -243.909 1210.96 -229.364 1209.9L23.1458 1191.51C109.48 1185.22 182.273 1124.29 203.59 1040.47L272.234 770.551C274.96 759.833 276.791 748.913 277.711 737.902L296.657 510.986C302.076 446.08 275.491 382.768 225.409 341.312L-65.6583 100.379C-121.544 54.1183 -198.334 41.9073 -266.203 68.4883L-689.815 234.397C-763.357 263.2 -813.32 332.336 -817.422 410.972L-835.306 753.81C-842.022 882.571 -726.267 980.713 -598.084 964.418Z" stroke="url(#paint32_linear_16563_161213)"/>
<path opacity="0.2" d="M-632.941 961.061C-259.124 944.34 -861.78 1099.68 -330.646 1230.24C-316.486 1233.72 -300.945 1235.62 -286.339 1235.75L-33.2239 1238C53.3711 1238.77 131.036 1184.02 159.309 1102.28L250.457 838.758C254.069 828.317 256.809 817.601 258.648 806.72L296.632 581.998C307.48 517.817 286.31 452.604 239.892 407.216L-29.8165 143.491C-81.6832 92.775 -157.302 74.3195 -227.256 95.3041L-663.268 226.099C-738.955 248.803 -794.522 313.553 -805.21 391.5L-851.884 731.867C-869.401 859.61 -762.152 966.841 -632.941 961.061Z" stroke="url(#paint33_linear_16563_161213)"/>
<path opacity="0.2" d="M-667.315 954.914C-294.073 968.758 -907.165 1074.44 -389.065 1247.77C-375.217 1252.4 -359.859 1255.57 -345.284 1256.9L-93.3271 1279.75C-7.05638 1287.57 74.9391 1239.4 109.955 1160.32L223.023 904.964C227.491 894.875 231.114 884.442 233.855 873.772L290.649 652.747C306.837 589.75 291.218 523.1 248.784 474.095L2.30053 189.441C-45.2004 134.585 -119.165 109.978 -190.757 125.215L-636.137 220.006C-713.441 236.458 -774.201 296.359 -791.381 373.053L-866.564 708.665C-894.754 834.505 -796.698 950.115 -667.315 954.914Z" stroke="url(#paint34_linear_16563_161213)"/>
<path opacity="0.2" d="M-700.981 946.038C-331.045 990.236 -950.235 1045.64 -448.767 1260.49C-435.321 1266.25 -420.244 1270.67 -405.795 1273.18L-156.747 1316.47C-71.3845 1331.3 14.3667 1290.04 55.8649 1214.17L190.122 968.717C195.409 959.052 199.885 948.977 203.504 938.595L278.76 722.753C300.156 661.387 290.182 593.773 252.023 541.489L30.4586 237.917C-12.3516 179.262 -84.1813 148.631 -156.95 158.001L-608.606 216.156C-686.985 226.248 -752.489 280.876 -776.017 355.77L-879.244 684.364C-917.905 807.43 -829.673 930.662 -700.981 946.038Z" stroke="url(#paint35_linear_16563_161213)"/>
<path opacity="0.2" d="M-733.725 934.475C-369.771 1008.57 -990.703 1013.44 -509.338 1268.27C-496.383 1275.13 -481.688 1280.78 -467.457 1284.47L-223.044 1347.86C-139.17 1369.61 -50.2662 1335.57 -2.59407 1263.43L151.983 1029.55C158.045 1020.37 163.336 1010.73 167.803 1000.71L261.051 791.512C287.486 732.207 283.21 664.102 249.587 608.903L54.4499 288.55C16.6317 226.464 -52.5855 189.975 -126.059 193.391L-580.858 214.536C-659.768 218.205 -729.532 267.182 -759.215 339.75L-889.837 659.095C-938.693 778.538 -860.859 908.592 -733.725 934.475Z" stroke="url(#paint36_linear_16563_161213)"/>
<path opacity="0.2" d="M-765.344 920.333C-409.966 1023.64 -1028.31 978.084 -570.359 1271.08C-557.985 1279 -543.769 1285.85 -529.853 1290.7L-291.761 1373.74C-209.947 1402.27 -118.518 1375.67 -65.023 1307.77L108.866 1087.06C115.655 1078.44 121.718 1069.29 126.993 1059.7L237.645 858.578C268.914 801.744 270.347 733.623 241.489 675.89L74.0935 341.004C41.5424 275.884 -24.5918 233.736 -98.2848 231.148L-553.083 215.171C-631.976 212.4 -705.487 255.395 -741.086 325.132L-898.271 633.047C-956.976 748.045 -890.054 884.082 -765.344 920.333Z" stroke="url(#paint37_linear_16563_161213)"/>
<path opacity="0.2" d="M-795.643 903.718C-451.327 1035.32 -1062.8 939.821 -631.408 1268.9C-619.7 1277.83 -606.062 1285.85 -592.555 1291.84L-362.42 1393.92C-283.228 1429.04 -189.918 1410.07 -130.99 1346.86L61.0675 1140.85C68.53 1132.85 75.3159 1124.26 81.3571 1115.17L208.705 923.503C244.568 869.529 251.681 801.859 227.784 741.991L89.2428 394.915C62.2052 327.18 -0.383495 279.615 -73.8032 271.008L-525.463 218.057C-603.794 208.873 -680.516 245.606 -721.754 312.035L-904.486 606.4C-972.625 716.166 -917.07 857.307 -795.643 903.718Z" stroke="url(#paint38_linear_16563_161213)"/>
<path opacity="0.2" d="M-824.445 884.772C-493.549 1043.57 -1093.97 898.938 -692.067 1261.78C-681.11 1271.67 -668.146 1280.8 -655.142 1287.89L-434.539 1408.29C-358.513 1449.78 -263.98 1438.56 -200.044 1380.47L8.90947 1190.61C16.9883 1183.26 24.4444 1175.29 31.2034 1166.75L174.422 985.881C214.61 935.127 227.335 868.37 208.56 806.782L99.7774 449.928C78.4677 380.023 19.8735 327.323 -52.7733 312.722L-498.188 223.2C-575.419 207.678 -654.799 237.916 -701.359 300.594L-908.445 579.367C-985.541 683.15 -941.742 828.481 -824.445 884.772Z" stroke="url(#paint39_linear_16563_161213)"/>
<path opacity="0.2" d="M-851.565 863.562C-536.306 1048.26 -1121.61 855.653 -751.909 1249.7C-741.784 1260.49 -729.587 1270.68 -717.18 1278.85L-507.609 1416.7C-435.277 1464.28 -340.184 1460.89 -271.696 1408.29L-47.2431 1235.91C-38.6084 1229.28 -30.5386 1221.97 -23.1139 1214.04L135.034 1045.24C179.252 998.038 197.484 932.644 183.957 869.758L105.626 505.598C90.2234 433.991 36.0566 376.477 -35.3144 355.949L-471.433 230.511C-547.034 208.767 -628.505 232.329 -680.04 290.844L-910.112 552.076C-995.625 649.171 -963.905 797.746 -851.565 863.562Z" stroke="url(#paint40_linear_16563_161213)"/>
<path opacity="0.2" d="M-876.845 840.264C-579.284 1049.42 -1145.53 810.295 -810.525 1232.8C-801.308 1244.42 -789.97 1255.61 -778.249 1264.79L-581.131 1419.13C-512.996 1472.49 -418.009 1476.93 -345.451 1430.17L-107.013 1276.51C-97.8848 1270.62 -89.2608 1264.02 -81.2259 1256.75L90.7987 1101.21C138.728 1057.87 162.326 994.278 154.137 930.526L106.739 561.566C97.3842 488.743 48.0556 426.78 -21.5373 400.434L-445.38 239.98C-518.836 212.171 -601.826 228.928 -657.959 282.903L-909.479 524.753C-1002.82 614.502 -983.428 765.345 -876.845 840.264Z" stroke="url(#paint41_linear_16563_161213)"/>
<path opacity="0.2" d="M-900.128 814.994C-622.164 1047.03 -1165.59 763.139 -867.512 1211.17C-859.276 1223.55 -848.881 1235.66 -837.935 1245.8L-654.598 1415.56C-591.136 1474.32 -496.917 1486.56 -420.795 1445.94L-169.991 1312.09C-160.435 1306.98 -151.318 1301.13 -142.731 1294.56L42.0126 1153.39C93.3122 1114.19 122.104 1052.82 119.304 988.642L103.109 617.407C99.901 543.873 55.7951 477.866 -11.5219 445.855L-420.203 251.519C-491.017 217.845 -574.949 227.715 -635.279 276.809L-906.551 497.562C-1007.07 579.358 -1000.19 731.469 -900.128 814.994Z" stroke="url(#paint42_linear_16563_161213)"/>
<path opacity="0.2" d="M-921.268 787.932C-664.63 1041.14 -1181.65 714.52 -922.476 1184.98C-915.286 1198.03 -905.916 1210.99 -895.828 1222.02L-727.503 1406.02C-669.16 1469.79 -576.361 1489.73 -497.198 1455.49L-235.748 1342.43C-225.829 1338.14 -216.284 1333.06 -207.205 1327.24L-10.999 1201.46C43.3141 1166.65 77.0946 1107.9 79.7004 1043.73L94.7651 672.748C97.759 599.02 59.228 529.414 -5.32465 491.936L-396.071 265.078C-463.764 225.777 -548.067 228.725 -612.171 272.635L-901.347 470.713C-1008.35 544.007 -1014.08 696.364 -921.268 787.932Z" stroke="url(#paint43_linear_16563_161213)"/>
<path opacity="0.2" d="M-940.126 759.226C-706.378 1031.81 -1193.6 664.742 -975.041 1154.4C-968.956 1168.04 -960.684 1181.75 -951.532 1193.6L-799.344 1390.57C-746.532 1458.92 -655.792 1486.4 -574.127 1458.77L-303.835 1367.31C-293.621 1363.86 -283.711 1359.59 -274.203 1354.54L-67.882 1245.07C-10.9276 1214.85 27.6064 1159.12 35.5971 1095.4L81.7721 727.179C90.9761 653.784 58.3346 581.061 -2.97922 538.359L-373.147 280.554C-437.263 235.9 -521.368 231.938 -588.807 270.395L-893.901 444.377C-1006.66 508.675 -1025.01 660.243 -940.126 759.226Z" stroke="url(#paint44_linear_16563_161213)"/>
<path opacity="0.2" d="M-956.573 729.038C-747.111 1019.12 -1201.37 614.123 -1024.84 1119.65C-1019.91 1133.76 -1012.81 1148.14 -1004.66 1160.72L-869.626 1369.32C-822.719 1441.77 -734.659 1476.59 -651.042 1455.73L-373.786 1386.56C-363.343 1383.96 -353.134 1380.52 -343.26 1376.27L-128.255 1283.91C-69.0437 1258.47 -26.0188 1206.11 -12.7004 1143.27L64.2316 780.306C79.6049 707.774 53.1244 632.45 -4.49579 584.81L-351.584 297.836C-411.695 248.137 -495.043 237.321 -565.361 270.094L-884.265 418.725C-1002 473.597 -1032.9 623.331 -956.573 729.038Z" stroke="url(#paint45_linear_16563_161213)"/>
<path opacity="0.2" d="M-970.494 697.575C-786.55 1003.19 -1204.88 563.018 -1071.55 1080.97C-1067.82 1095.47 -1061.93 1110.41 -1054.86 1123.63L-937.871 1342.43C-897.2 1418.49 -812.418 1460.38 -727.409 1446.42L-445.124 1400.06C-434.519 1398.31 -424.078 1395.72 -413.902 1392.31L-191.714 1317.73C-130.64 1297.23 -83.4128 1248.58 -64.8597 1187.05L42.2769 831.775C63.7292 760.637 43.6335 683.256 -9.86285 631.006L-331.532 316.832C-387.234 262.428 -469.279 244.854 -542.01 271.748L-872.504 393.954C-994.416 439.033 -1037.72 585.887 -970.494 697.575Z" stroke="url(#paint46_linear_16563_161213)"/>
<path opacity="0.2" d="M-981.783 665.032C-824.43 984.186 -1204.11 511.769 -1114.83 1038.64C-1112.33 1053.42 -1107.71 1068.81 -1101.77 1082.58L-1003.61 1310.1C-969.465 1389.23 -888.533 1437.91 -802.695 1430.92L-517.361 1407.71C-506.662 1406.84 -496.055 1405.11 -485.641 1402.54L-257.831 1346.29C-195.296 1330.85 -144.181 1286.23 -120.521 1226.44L16.0736 881.233C43.4644 812.01 29.9254 733.142 -19.0465 676.652L-313.13 337.42C-364.05 278.682 -444.257 254.487 -518.925 275.341L-858.7 370.238C-983.96 405.222 -1039.4 548.16 -981.783 665.032Z" stroke="url(#paint47_linear_16563_161213)"/>
<path opacity="0.2" d="M-990.346 631.587C-860.503 962.217 -1199.06 460.69 -1154.41 992.933C-1153.15 1007.88 -1149.84 1023.6 -1145.08 1037.83L-1066.4 1272.51C-1039.02 1354.18 -962.478 1409.28 -876.38 1409.32L-590.003 1409.43C-579.277 1409.44 -568.569 1408.58 -557.985 1406.87L-326.158 1369.36C-262.572 1359.07 -207.905 1318.78 -179.3 1261.13L-14.1811 928.308C18.9581 861.511 12.0918 781.742 -31.9897 721.417L-296.504 359.434C-342.303 296.759 -420.155 266.119 -496.275 280.809L-842.946 347.711C-970.704 372.366 -1037.95 510.366 -990.346 631.587Z" stroke="url(#paint48_linear_16563_161213)"/>
<path opacity="0.2" d="M-998.998 562.903C-926.331 910.142 -1176.21 360.463 -1221.37 892.684C-1222.64 907.624 -1222.01 923.666 -1219.69 938.469L-1181.42 1182.73C-1168.1 1267.72 -1101.84 1334.5 -1016.93 1348.51L-734.505 1395.13C-723.925 1396.88 -713.219 1397.77 -702.491 1397.8L-467.568 1398.46C-403.123 1398.64 -342.448 1367.78 -304.571 1315.56L-85.9248 1014.1C-42.0503 953.607 -35.4544 873.829 -68.8172 807.181L-269.044 407.19C-303.711 337.935 -375.37 295.068 -452.919 297.195L-806.035 306.881C-936.178 310.45 -1025.63 435.623 -998.998 562.903Z" stroke="url(#paint49_linear_16563_161213)"/>
<path opacity="0.2" d="M-998.982 528.15C-955.684 880.445 -1158.53 312.026 -1248.3 838.859C-1250.82 853.629 -1251.54 869.652 -1250.48 884.578L-1232.88 1131.16C-1226.76 1216.93 -1166.31 1288.88 -1082.82 1309.77L-805.375 1379.22C-794.967 1381.83 -784.362 1383.59 -773.662 1384.5L-539.683 1404.29C-475.435 1409.72 -412.342 1383.91 -370.201 1334.95L-126.894 1052.27C-78.1212 995.603 -64.8537 916.717 -92.4768 847.631L-258.407 432.635C-287.138 360.778 -354.997 312.199 -432.512 307.997L-785.131 288.883C-915.145 281.836 -1014.83 399.202 -998.982 528.15Z" stroke="url(#paint50_linear_16563_161213)"/>
<path opacity="0.2" d="M-996.031 493.396C-982.424 848.534 -1136.83 265.113 -1270.62 783.006C-1274.37 797.497 -1276.43 813.382 -1276.63 828.32L-1279.82 1075.57C-1280.93 1161.51 -1226.7 1238.14 -1145.2 1265.79L-874.669 1357.56C-864.499 1361.01 -854.062 1363.64 -843.457 1365.41L-612.073 1404.18C-548.442 1414.84 -483.346 1394.26 -437.225 1348.89L-170.879 1086.9C-117.573 1034.47 -97.7503 957.061 -119.443 886.046L-249.939 458.851C-272.537 384.875 -336.155 330.895 -413.137 320.38L-762.781 272.622C-891.783 255.002 -1001 363.701 -996.031 493.396Z" stroke="url(#paint51_linear_16563_161213)"/>
<path opacity="0.2" d="M-990.146 458.937C-1006.4 814.673 -1111.23 220.102 -1288.18 725.556C-1293.12 739.662 -1296.51 755.291 -1297.95 770.132L-1321.94 1016.38C-1330.27 1101.89 -1282.61 1182.68 -1203.64 1216.91L-941.915 1330.34C-932.049 1334.62 -921.845 1338.09 -911.404 1340.73L-684.242 1398.17C-621.646 1414 -554.977 1398.8 -505.19 1357.34L-217.576 1117.83C-160.138 1069.99 -133.932 994.629 -149.554 922.206L-243.709 485.705C-260.016 410.107 -318.976 351.07 -394.923 334.293L-739.143 258.256C-866.257 230.177 -984.229 329.416 -990.146 458.937Z" stroke="url(#paint52_linear_16563_161213)"/>
<path opacity="0.2" d="M-981.345 424.979C-1027.47 779.04 -1081.9 177.269 -1300.85 666.856C-1306.95 680.475 -1311.62 695.736 -1314.31 710.371L-1358.94 953.943C-1374.42 1038.44 -1333.65 1122.85 -1257.74 1163.44L-1006.65 1297.7C-997.148 1302.78 -987.244 1307.09 -977.033 1310.58L-755.684 1386.26C-694.538 1407.17 -626.739 1397.46 -573.624 1360.19L-266.658 1144.8C-205.518 1101.9 -173.151 1029.12 -182.611 955.816L-239.761 512.967C-249.661 436.258 -303.569 372.536 -377.98 349.588L-714.374 245.842C-838.734 207.488 -964.614 296.545 -981.345 424.979Z" stroke="url(#paint53_linear_16563_161213)"/>
<defs>
<linearGradient id="paint0_linear_16563_161213" x1="-349.889" y1="707.965" x2="-1248.15" y2="-4.57943" gradientUnits="userSpaceOnUse">
<stop stop-color="#914CEB"/>
<stop offset="0.2" stop-color="#CD5C5C"/>
<stop offset="0.4" stop-color="#FF8C00"/>
<stop offset="0.6" stop-color="#EEE8AA"/>
<stop offset="0.8" stop-color="#2E8B57"/>
<stop offset="1" stop-color="#4682B4"/>
</linearGradient>
<linearGradient id="paint1_linear_16563_161213" x1="-364.279" y1="725.728" x2="-1199.25" y2="-57.8797" gradientUnits="userSpaceOnUse">
<stop stop-color="#914CEB"/>
<stop offset="0.2" stop-color="#CD5C5C"/>
<stop offset="0.4" stop-color="#FF8C00"/>
<stop offset="0.6" stop-color="#EEE8AA"/>
<stop offset="0.8" stop-color="#2E8B57"/>
<stop offset="1" stop-color="#4682B4"/>
</linearGradient>
<linearGradient id="paint2_linear_16563_161213" x1="-380.112" y1="742.267" x2="-1146.36" y2="-106.646" gradientUnits="userSpaceOnUse">
<stop stop-color="#914CEB"/>
<stop offset="0.2" stop-color="#CD5C5C"/>
<stop offset="0.4" stop-color="#FF8C00"/>
<stop offset="0.6" stop-color="#EEE8AA"/>
<stop offset="0.8" stop-color="#2E8B57"/>
<stop offset="1" stop-color="#4682B4"/>
</linearGradient>
<linearGradient id="paint3_linear_16563_161213" x1="-397.282" y1="757.467" x2="-1089.96" y2="-150.634" gradientUnits="userSpaceOnUse">
<stop stop-color="#914CEB"/>
<stop offset="0.2" stop-color="#CD5C5C"/>
<stop offset="0.4" stop-color="#FF8C00"/>
<stop offset="0.6" stop-color="#EEE8AA"/>
<stop offset="0.8" stop-color="#2E8B57"/>
<stop offset="1" stop-color="#4682B4"/>
</linearGradient>
<linearGradient id="paint4_linear_16563_161213" x1="-415.673" y1="771.203" x2="-1030.47" y2="-189.67" gradientUnits="userSpaceOnUse">
<stop stop-color="#914CEB"/>
<stop offset="0.2" stop-color="#CD5C5C"/>
<stop offset="0.4" stop-color="#FF8C00"/>
<stop offset="0.6" stop-color="#EEE8AA"/>
<stop offset="0.8" stop-color="#2E8B57"/>
<stop offset="1" stop-color="#4682B4"/>
</linearGradient>
<linearGradient id="paint5_linear_16563_161213" x1="-435.155" y1="783.395" x2="-968.339" y2="-223.589" gradientUnits="userSpaceOnUse">
<stop stop-color="#914CEB"/>
<stop offset="0.2" stop-color="#CD5C5C"/>
<stop offset="0.4" stop-color="#FF8C00"/>
<stop offset="0.6" stop-color="#EEE8AA"/>
<stop offset="0.8" stop-color="#2E8B57"/>
<stop offset="1" stop-color="#4682B4"/>
</linearGradient>
<linearGradient id="paint6_linear_16563_161213" x1="-455.595" y1="793.972" x2="-903.989" y2="-252.265" gradientUnits="userSpaceOnUse">
<stop stop-color="#914CEB"/>
<stop offset="0.2" stop-color="#CD5C5C"/>
<stop offset="0.4" stop-color="#FF8C00"/>
<stop offset="0.6" stop-color="#EEE8AA"/>
<stop offset="0.8" stop-color="#2E8B57"/>
<stop offset="1" stop-color="#4682B4"/>
</linearGradient>
<linearGradient id="paint7_linear_16563_161213" x1="-476.856" y1="802.844" x2="-837.836" y2="-275.633" gradientUnits="userSpaceOnUse">
<stop stop-color="#914CEB"/>
<stop offset="0.2" stop-color="#CD5C5C"/>
<stop offset="0.4" stop-color="#FF8C00"/>
<stop offset="0.6" stop-color="#EEE8AA"/>
<stop offset="0.8" stop-color="#2E8B57"/>
<stop offset="1" stop-color="#4682B4"/>
</linearGradient>
<linearGradient id="paint8_linear_16563_161213" x1="-498.788" y1="809.95" x2="-770.277" y2="-293.64" gradientUnits="userSpaceOnUse">
<stop stop-color="#914CEB"/>
<stop offset="0.2" stop-color="#CD5C5C"/>
<stop offset="0.4" stop-color="#FF8C00"/>
<stop offset="0.6" stop-color="#EEE8AA"/>
<stop offset="0.8" stop-color="#2E8B57"/>
<stop offset="1" stop-color="#4682B4"/>
</linearGradient>
<linearGradient id="paint9_linear_16563_161213" x1="-521.24" y1="815.232" x2="-701.694" y2="-306.258" gradientUnits="userSpaceOnUse">
<stop stop-color="#914CEB"/>
<stop offset="0.2" stop-color="#CD5C5C"/>
<stop offset="0.4" stop-color="#FF8C00"/>
<stop offset="0.6" stop-color="#EEE8AA"/>
<stop offset="0.8" stop-color="#2E8B57"/>
<stop offset="1" stop-color="#4682B4"/>
</linearGradient>
<linearGradient id="paint10_linear_16563_161213" x1="-544.062" y1="818.706" x2="-632.463" y2="-313.415" gradientUnits="userSpaceOnUse">
<stop stop-color="#914CEB"/>
<stop offset="0.2" stop-color="#CD5C5C"/>
<stop offset="0.4" stop-color="#FF8C00"/>
<stop offset="0.6" stop-color="#EEE8AA"/>
<stop offset="0.8" stop-color="#2E8B57"/>
<stop offset="1" stop-color="#4682B4"/>
</linearGradient>
<linearGradient id="paint11_linear_16563_161213" x1="-567.099" y1="820.248" x2="-562.953" y2="-315.201" gradientUnits="userSpaceOnUse">
<stop stop-color="#914CEB"/>
<stop offset="0.2" stop-color="#CD5C5C"/>
<stop offset="0.4" stop-color="#FF8C00"/>
<stop offset="0.6" stop-color="#EEE8AA"/>
<stop offset="0.8" stop-color="#2E8B57"/>
<stop offset="1" stop-color="#4682B4"/>
</linearGradient>
<linearGradient id="paint12_linear_16563_161213" x1="-590.186" y1="819.945" x2="-493.515" y2="-311.521" gradientUnits="userSpaceOnUse">
<stop stop-color="#914CEB"/>
<stop offset="0.2" stop-color="#CD5C5C"/>
<stop offset="0.4" stop-color="#FF8C00"/>
<stop offset="0.6" stop-color="#EEE8AA"/>
<stop offset="0.8" stop-color="#2E8B57"/>
<stop offset="1" stop-color="#4682B4"/>
</linearGradient>
<linearGradient id="paint13_linear_16563_161213" x1="-613.166" y1="817.763" x2="-424.514" y2="-302.42" gradientUnits="userSpaceOnUse">
<stop stop-color="#914CEB"/>
<stop offset="0.2" stop-color="#CD5C5C"/>
<stop offset="0.4" stop-color="#FF8C00"/>
<stop offset="0.6" stop-color="#EEE8AA"/>
<stop offset="0.8" stop-color="#2E8B57"/>
<stop offset="1" stop-color="#4682B4"/>
</linearGradient>
<linearGradient id="paint14_linear_16563_161213" x1="-635.886" y1="813.688" x2="-356.315" y2="-287.947" gradientUnits="userSpaceOnUse">
<stop stop-color="#914CEB"/>
<stop offset="0.2" stop-color="#CD5C5C"/>
<stop offset="0.4" stop-color="#FF8C00"/>
<stop offset="0.6" stop-color="#EEE8AA"/>
<stop offset="0.8" stop-color="#2E8B57"/>
<stop offset="1" stop-color="#4682B4"/>
</linearGradient>
<linearGradient id="paint15_linear_16563_161213" x1="-658.186" y1="807.834" x2="-289.287" y2="-268.046" gradientUnits="userSpaceOnUse">
<stop stop-color="#914CEB"/>
<stop offset="0.2" stop-color="#CD5C5C"/>
<stop offset="0.4" stop-color="#FF8C00"/>
<stop offset="0.6" stop-color="#EEE8AA"/>
<stop offset="0.8" stop-color="#2E8B57"/>
<stop offset="1" stop-color="#4682B4"/>
</linearGradient>
<linearGradient id="paint16_linear_16563_161213" x1="-679.915" y1="800.123" x2="-223.815" y2="-242.883" gradientUnits="userSpaceOnUse">
<stop stop-color="#914CEB"/>
<stop offset="0.2" stop-color="#CD5C5C"/>
<stop offset="0.4" stop-color="#FF8C00"/>
<stop offset="0.6" stop-color="#EEE8AA"/>
<stop offset="0.8" stop-color="#2E8B57"/>
<stop offset="1" stop-color="#4682B4"/>
</linearGradient>
<linearGradient id="paint17_linear_16563_161213" x1="-700.92" y1="790.692" x2="-160.292" y2="-212.441" gradientUnits="userSpaceOnUse">
<stop stop-color="#914CEB"/>
<stop offset="0.2" stop-color="#CD5C5C"/>
<stop offset="0.4" stop-color="#FF8C00"/>
<stop offset="0.6" stop-color="#EEE8AA"/>
<stop offset="0.8" stop-color="#2E8B57"/>
<stop offset="1" stop-color="#4682B4"/>
</linearGradient>
<linearGradient id="paint18_linear_16563_161213" x1="-721.062" y1="779.566" x2="-99.1324" y2="-176.851" gradientUnits="userSpaceOnUse">
<stop stop-color="#914CEB"/>
<stop offset="0.2" stop-color="#CD5C5C"/>
<stop offset="0.4" stop-color="#FF8C00"/>
<stop offset="0.6" stop-color="#EEE8AA"/>
<stop offset="0.8" stop-color="#2E8B57"/>
<stop offset="1" stop-color="#4682B4"/>
</linearGradient>
<linearGradient id="paint19_linear_16563_161213" x1="-740.201" y1="766.869" x2="-40.755" y2="-136.191" gradientUnits="userSpaceOnUse">
<stop stop-color="#914CEB"/>
<stop offset="0.2" stop-color="#CD5C5C"/>
<stop offset="0.4" stop-color="#FF8C00"/>
<stop offset="0.6" stop-color="#EEE8AA"/>
<stop offset="0.8" stop-color="#2E8B57"/>
<stop offset="1" stop-color="#4682B4"/>
</linearGradient>
<linearGradient id="paint20_linear_16563_161213" x1="-758.203" y1="752.627" x2="14.4071" y2="-90.6849" gradientUnits="userSpaceOnUse">
<stop stop-color="#914CEB"/>
<stop offset="0.2" stop-color="#CD5C5C"/>
<stop offset="0.4" stop-color="#FF8C00"/>
<stop offset="0.6" stop-color="#EEE8AA"/>
<stop offset="0.8" stop-color="#2E8B57"/>
<stop offset="1" stop-color="#4682B4"/>
</linearGradient>
<linearGradient id="paint21_linear_16563_161213" x1="-774.948" y1="736.998" x2="65.9153" y2="-40.4776" gradientUnits="userSpaceOnUse">
<stop stop-color="#914CEB"/>
<stop offset="0.2" stop-color="#CD5C5C"/>
<stop offset="0.4" stop-color="#FF8C00"/>
<stop offset="0.6" stop-color="#EEE8AA"/>
<stop offset="0.8" stop-color="#2E8B57"/>
<stop offset="1" stop-color="#4682B4"/>
</linearGradient>
<linearGradient id="paint22_linear_16563_161213" x1="-790.318" y1="720.017" x2="113.331" y2="14.1017" gradientUnits="userSpaceOnUse">
<stop stop-color="#914CEB"/>
<stop offset="0.2" stop-color="#CD5C5C"/>
<stop offset="0.4" stop-color="#FF8C00"/>
<stop offset="0.6" stop-color="#EEE8AA"/>
<stop offset="0.8" stop-color="#2E8B57"/>
<stop offset="1" stop-color="#4682B4"/>
</linearGradient>
<linearGradient id="paint23_linear_16563_161213" x1="-804.212" y1="701.868" x2="156.224" y2="72.8089" gradientUnits="userSpaceOnUse">
<stop stop-color="#914CEB"/>
<stop offset="0.2" stop-color="#CD5C5C"/>
<stop offset="0.4" stop-color="#FF8C00"/>
<stop offset="0.6" stop-color="#EEE8AA"/>
<stop offset="0.8" stop-color="#2E8B57"/>
<stop offset="1" stop-color="#4682B4"/>
</linearGradient>
<linearGradient id="paint24_linear_16563_161213" x1="-816.531" y1="682.64" x2="194.183" y2="135.246" gradientUnits="userSpaceOnUse">
<stop stop-color="#914CEB"/>
<stop offset="0.2" stop-color="#CD5C5C"/>
<stop offset="0.4" stop-color="#FF8C00"/>
<stop offset="0.6" stop-color="#EEE8AA"/>
<stop offset="0.8" stop-color="#2E8B57"/>
<stop offset="1" stop-color="#4682B4"/>
</linearGradient>
<linearGradient id="paint25_linear_16563_161213" x1="-827.192" y1="662.475" x2="226.823" y2="201.001" gradientUnits="userSpaceOnUse">
<stop stop-color="#914CEB"/>
<stop offset="0.2" stop-color="#CD5C5C"/>
<stop offset="0.4" stop-color="#FF8C00"/>
<stop offset="0.6" stop-color="#EEE8AA"/>
<stop offset="0.8" stop-color="#2E8B57"/>
<stop offset="1" stop-color="#4682B4"/>
</linearGradient>
<linearGradient id="paint26_linear_16563_161213" x1="-836.118" y1="641.532" x2="253.799" y2="269.617" gradientUnits="userSpaceOnUse">
<stop stop-color="#914CEB"/>
<stop offset="0.2" stop-color="#CD5C5C"/>
<stop offset="0.4" stop-color="#FF8C00"/>
<stop offset="0.6" stop-color="#EEE8AA"/>
<stop offset="0.8" stop-color="#2E8B57"/>
<stop offset="1" stop-color="#4682B4"/>
</linearGradient>
<linearGradient id="paint27_linear_16563_161213" x1="-843.253" y1="619.893" x2="274.81" y2="340.509" gradientUnits="userSpaceOnUse">
<stop stop-color="#914CEB"/>
<stop offset="0.2" stop-color="#CD5C5C"/>
<stop offset="0.4" stop-color="#FF8C00"/>
<stop offset="0.6" stop-color="#EEE8AA"/>
<stop offset="0.8" stop-color="#2E8B57"/>
<stop offset="1" stop-color="#4682B4"/>
</linearGradient>
<linearGradient id="paint28_linear_16563_161213" x1="-848.546" y1="597.787" x2="289.615" y2="413.188" gradientUnits="userSpaceOnUse">
<stop stop-color="#914CEB"/>
<stop offset="0.2" stop-color="#CD5C5C"/>
<stop offset="0.4" stop-color="#FF8C00"/>
<stop offset="0.6" stop-color="#EEE8AA"/>
<stop offset="0.8" stop-color="#2E8B57"/>
<stop offset="1" stop-color="#4682B4"/>
</linearGradient>
<linearGradient id="paint29_linear_16563_161213" x1="-851.959" y1="575.314" x2="298.043" y2="487.001" gradientUnits="userSpaceOnUse">
<stop stop-color="#914CEB"/>
<stop offset="0.2" stop-color="#CD5C5C"/>
<stop offset="0.4" stop-color="#FF8C00"/>
<stop offset="0.6" stop-color="#EEE8AA"/>
<stop offset="0.8" stop-color="#2E8B57"/>
<stop offset="1" stop-color="#4682B4"/>
</linearGradient>
<linearGradient id="paint30_linear_16563_161213" x1="-853.472" y1="552.644" x2="299.988" y2="561.337" gradientUnits="userSpaceOnUse">
<stop stop-color="#914CEB"/>
<stop offset="0.2" stop-color="#CD5C5C"/>
<stop offset="0.4" stop-color="#FF8C00"/>
<stop offset="0.6" stop-color="#EEE8AA"/>
<stop offset="0.8" stop-color="#2E8B57"/>
<stop offset="1" stop-color="#4682B4"/>
</linearGradient>
<linearGradient id="paint31_linear_16563_161213" x1="-853.073" y1="529.922" x2="295.423" y2="635.551" gradientUnits="userSpaceOnUse">
<stop stop-color="#914CEB"/>
<stop offset="0.2" stop-color="#CD5C5C"/>
<stop offset="0.4" stop-color="#FF8C00"/>
<stop offset="0.6" stop-color="#EEE8AA"/>
<stop offset="0.8" stop-color="#2E8B57"/>
<stop offset="1" stop-color="#4682B4"/>
</linearGradient>
<linearGradient id="paint32_linear_16563_161213" x1="-850.763" y1="507.312" x2="284.402" y2="709.015" gradientUnits="userSpaceOnUse">
<stop stop-color="#914CEB"/>
<stop offset="0.2" stop-color="#CD5C5C"/>
<stop offset="0.4" stop-color="#FF8C00"/>
<stop offset="0.6" stop-color="#EEE8AA"/>
<stop offset="0.8" stop-color="#2E8B57"/>
<stop offset="1" stop-color="#4682B4"/>
</linearGradient>
<linearGradient id="paint33_linear_16563_161213" x1="-846.559" y1="484.947" x2="267.049" y2="781.086" gradientUnits="userSpaceOnUse">
<stop stop-color="#914CEB"/>
<stop offset="0.2" stop-color="#CD5C5C"/>
<stop offset="0.4" stop-color="#FF8C00"/>
<stop offset="0.6" stop-color="#EEE8AA"/>
<stop offset="0.8" stop-color="#2E8B57"/>
<stop offset="1" stop-color="#4682B4"/>
</linearGradient>
<linearGradient id="paint34_linear_16563_161213" x1="-840.492" y1="463.016" x2="243.558" y2="851.205" gradientUnits="userSpaceOnUse">
<stop stop-color="#914CEB"/>
<stop offset="0.2" stop-color="#CD5C5C"/>
<stop offset="0.4" stop-color="#FF8C00"/>
<stop offset="0.6" stop-color="#EEE8AA"/>
<stop offset="0.8" stop-color="#2E8B57"/>
<stop offset="1" stop-color="#4682B4"/>
</linearGradient>
<linearGradient id="paint35_linear_16563_161213" x1="-832.601" y1="441.669" x2="214.193" y2="918.814" gradientUnits="userSpaceOnUse">
<stop stop-color="#914CEB"/>
<stop offset="0.2" stop-color="#CD5C5C"/>
<stop offset="0.4" stop-color="#FF8C00"/>
<stop offset="0.6" stop-color="#EEE8AA"/>
<stop offset="0.8" stop-color="#2E8B57"/>
<stop offset="1" stop-color="#4682B4"/>
</linearGradient>
<linearGradient id="paint36_linear_16563_161213" x1="-822.941" y1="421.019" x2="179.271" y2="983.365" gradientUnits="userSpaceOnUse">
<stop stop-color="#914CEB"/>
<stop offset="0.2" stop-color="#CD5C5C"/>
<stop offset="0.4" stop-color="#FF8C00"/>
<stop offset="0.6" stop-color="#EEE8AA"/>
<stop offset="0.8" stop-color="#2E8B57"/>
<stop offset="1" stop-color="#4682B4"/>
</linearGradient>
<linearGradient id="paint37_linear_16563_161213" x1="-811.578" y1="401.225" x2="139.155" y2="1044.41" gradientUnits="userSpaceOnUse">
<stop stop-color="#914CEB"/>
<stop offset="0.2" stop-color="#CD5C5C"/>
<stop offset="0.4" stop-color="#FF8C00"/>
<stop offset="0.6" stop-color="#EEE8AA"/>
<stop offset="0.8" stop-color="#2E8B57"/>
<stop offset="1" stop-color="#4682B4"/>
</linearGradient>
<linearGradient id="paint38_linear_16563_161213" x1="-798.589" y1="382.425" x2="94.2453" y2="1101.56" gradientUnits="userSpaceOnUse">
<stop stop-color="#914CEB"/>
<stop offset="0.2" stop-color="#CD5C5C"/>
<stop offset="0.4" stop-color="#FF8C00"/>
<stop offset="0.6" stop-color="#EEE8AA"/>
<stop offset="0.8" stop-color="#2E8B57"/>
<stop offset="1" stop-color="#4682B4"/>
</linearGradient>
<linearGradient id="paint39_linear_16563_161213" x1="-784.069" y1="364.777" x2="44.9603" y2="1154.47" gradientUnits="userSpaceOnUse">
<stop stop-color="#914CEB"/>
<stop offset="0.2" stop-color="#CD5C5C"/>
<stop offset="0.4" stop-color="#FF8C00"/>
<stop offset="0.6" stop-color="#EEE8AA"/>
<stop offset="0.8" stop-color="#2E8B57"/>
<stop offset="1" stop-color="#4682B4"/>
</linearGradient>
<linearGradient id="paint40_linear_16563_161213" x1="-768.108" y1="348.345" x2="-8.25181" y2="1202.81" gradientUnits="userSpaceOnUse">
<stop stop-color="#914CEB"/>
<stop offset="0.2" stop-color="#CD5C5C"/>
<stop offset="0.4" stop-color="#FF8C00"/>
<stop offset="0.6" stop-color="#EEE8AA"/>
<stop offset="0.8" stop-color="#2E8B57"/>
<stop offset="1" stop-color="#4682B4"/>
</linearGradient>
<linearGradient id="paint41_linear_16563_161213" x1="-750.822" y1="333.283" x2="-64.9512" y2="1246.38" gradientUnits="userSpaceOnUse">
<stop stop-color="#914CEB"/>
<stop offset="0.2" stop-color="#CD5C5C"/>
<stop offset="0.4" stop-color="#FF8C00"/>
<stop offset="0.6" stop-color="#EEE8AA"/>
<stop offset="0.8" stop-color="#2E8B57"/>
<stop offset="1" stop-color="#4682B4"/>
</linearGradient>
<linearGradient id="paint42_linear_16563_161213" x1="-732.329" y1="319.669" x2="-124.693" y2="1284.95" gradientUnits="userSpaceOnUse">
<stop stop-color="#914CEB"/>
<stop offset="0.2" stop-color="#CD5C5C"/>
<stop offset="0.4" stop-color="#FF8C00"/>
<stop offset="0.6" stop-color="#EEE8AA"/>
<stop offset="0.8" stop-color="#2E8B57"/>
<stop offset="1" stop-color="#4682B4"/>
</linearGradient>
<linearGradient id="paint43_linear_16563_161213" x1="-712.756" y1="307.621" x2="-187.041" y2="1318.4" gradientUnits="userSpaceOnUse">
<stop stop-color="#914CEB"/>
<stop offset="0.2" stop-color="#CD5C5C"/>
<stop offset="0.4" stop-color="#FF8C00"/>
<stop offset="0.6" stop-color="#EEE8AA"/>
<stop offset="0.8" stop-color="#2E8B57"/>
<stop offset="1" stop-color="#4682B4"/>
</linearGradient>
<linearGradient id="paint44_linear_16563_161213" x1="-692.237" y1="297.207" x2="-251.569" y2="1346.62" gradientUnits="userSpaceOnUse">
<stop stop-color="#914CEB"/>
<stop offset="0.2" stop-color="#CD5C5C"/>
<stop offset="0.4" stop-color="#FF8C00"/>
<stop offset="0.6" stop-color="#EEE8AA"/>
<stop offset="0.8" stop-color="#2E8B57"/>
<stop offset="1" stop-color="#4682B4"/>
</linearGradient>
<linearGradient id="paint45_linear_16563_161213" x1="-670.911" y1="288.489" x2="-317.865" y2="1369.51" gradientUnits="userSpaceOnUse">
<stop stop-color="#914CEB"/>
<stop offset="0.2" stop-color="#CD5C5C"/>
<stop offset="0.4" stop-color="#FF8C00"/>
<stop offset="0.6" stop-color="#EEE8AA"/>
<stop offset="0.8" stop-color="#2E8B57"/>
<stop offset="1" stop-color="#4682B4"/>
</linearGradient>
<linearGradient id="paint46_linear_16563_161213" x1="-648.927" y1="281.547" x2="-385.532" y2="1387.04" gradientUnits="userSpaceOnUse">
<stop stop-color="#914CEB"/>
<stop offset="0.2" stop-color="#CD5C5C"/>
<stop offset="0.4" stop-color="#FF8C00"/>
<stop offset="0.6" stop-color="#EEE8AA"/>
<stop offset="0.8" stop-color="#2E8B57"/>
<stop offset="1" stop-color="#4682B4"/>
</linearGradient>
<linearGradient id="paint47_linear_16563_161213" x1="-626.435" y1="276.434" x2="-454.188" y2="1399.17" gradientUnits="userSpaceOnUse">
<stop stop-color="#914CEB"/>
<stop offset="0.2" stop-color="#CD5C5C"/>
<stop offset="0.4" stop-color="#FF8C00"/>
<stop offset="0.6" stop-color="#EEE8AA"/>
<stop offset="0.8" stop-color="#2E8B57"/>
<stop offset="1" stop-color="#4682B4"/>
</linearGradient>
<linearGradient id="paint48_linear_16563_161213" x1="-603.589" y1="273.153" x2="-523.46" y2="1405.87" gradientUnits="userSpaceOnUse">
<stop stop-color="#914CEB"/>
<stop offset="0.2" stop-color="#CD5C5C"/>
<stop offset="0.4" stop-color="#FF8C00"/>
<stop offset="0.6" stop-color="#EEE8AA"/>
<stop offset="0.8" stop-color="#2E8B57"/>
<stop offset="1" stop-color="#4682B4"/>
</linearGradient>
<linearGradient id="paint49_linear_16563_161213" x1="-557.462" y1="272.216" x2="-662.397" y2="1402.97" gradientUnits="userSpaceOnUse">
<stop stop-color="#914CEB"/>
<stop offset="0.2" stop-color="#CD5C5C"/>
<stop offset="0.4" stop-color="#FF8C00"/>
<stop offset="0.6" stop-color="#EEE8AA"/>
<stop offset="0.8" stop-color="#2E8B57"/>
<stop offset="1" stop-color="#4682B4"/>
</linearGradient>
<linearGradient id="paint50_linear_16563_161213" x1="-534.498" y1="274.591" x2="-731.342" y2="1393.41" gradientUnits="userSpaceOnUse">
<stop stop-color="#914CEB"/>
<stop offset="0.2" stop-color="#CD5C5C"/>
<stop offset="0.4" stop-color="#FF8C00"/>
<stop offset="0.6" stop-color="#EEE8AA"/>
<stop offset="0.8" stop-color="#2E8B57"/>
<stop offset="1" stop-color="#4682B4"/>
</linearGradient>
<linearGradient id="paint51_linear_16563_161213" x1="-511.81" y1="278.8" x2="-799.452" y2="1378.42" gradientUnits="userSpaceOnUse">
<stop stop-color="#914CEB"/>
<stop offset="0.2" stop-color="#CD5C5C"/>
<stop offset="0.4" stop-color="#FF8C00"/>
<stop offset="0.6" stop-color="#EEE8AA"/>
<stop offset="0.8" stop-color="#2E8B57"/>
<stop offset="1" stop-color="#4682B4"/>
</linearGradient>
<linearGradient id="paint52_linear_16563_161213" x1="-489.557" y1="284.861" x2="-866.358" y2="1358.09" gradientUnits="userSpaceOnUse">
<stop stop-color="#914CEB"/>
<stop offset="0.2" stop-color="#CD5C5C"/>
<stop offset="0.4" stop-color="#FF8C00"/>
<stop offset="0.6" stop-color="#EEE8AA"/>
<stop offset="0.8" stop-color="#2E8B57"/>
<stop offset="1" stop-color="#4682B4"/>
</linearGradient>
<linearGradient id="paint53_linear_16563_161213" x1="-467.889" y1="292.689" x2="-931.673" y2="1332.41" gradientUnits="userSpaceOnUse">
<stop stop-color="#914CEB"/>
<stop offset="0.2" stop-color="#CD5C5C"/>
<stop offset="0.4" stop-color="#FF8C00"/>
<stop offset="0.6" stop-color="#EEE8AA"/>
<stop offset="0.8" stop-color="#2E8B57"/>
<stop offset="1" stop-color="#4682B4"/>
</linearGradient>
</defs>
</svg>
