<svg width="912" height="234" viewBox="0 0 912 234" fill="none" xmlns="http://www.w3.org/2000/svg">
<path opacity="0.2" d="M360.438 213.73C334.403 202.873 457.835 124.504 245.605 124.803C233.344 124.82 220.604 126.278 208.6 128.773L162.342 138.387C75.9346 156.345 11.5119 228.817 3.80295 316.733L1.94246 337.951C0.789015 351.105 0.941176 364.342 2.39672 377.466L4.54373 396.826C12.1591 465.492 54.6747 525.366 116.995 555.188L196.431 593.201C252.491 620.027 317.836 619.268 373.257 591.148L487.404 533.231C551.213 500.855 587.154 431.288 576.638 360.512C561.652 259.654 454.547 252.978 360.438 213.73Z" stroke="url(#paint0_linear_16563_161469)"/>
<path opacity="0.2" d="M377.188 207.777C355.424 194.248 481.858 125.753 272.408 111.695C260.142 110.872 247.255 111.459 234.997 113.132L188.098 119.534C100.119 131.545 28.6271 199.258 12.1457 286.186L8.09147 307.569C5.63146 320.543 4.45886 333.688 4.59074 346.81L4.78972 366.609C5.48104 435.397 41.8189 497.844 100.919 531.809L176.015 574.966C229.349 605.617 294.791 609.334 353.02 585.019L472.246 535.232C539.134 507.301 581.942 440.528 578.574 369.378C573.766 267.778 462.826 261.013 377.188 207.777Z" stroke="url(#paint1_linear_16563_161469)"/>
<path opacity="0.2" d="M393.773 201.987C382.044 185.055 501.756 127.996 300.569 100.486C288.293 98.8074 275.258 98.5115 262.74 99.3519L215.858 102.499C126.781 108.48 48.7323 170.743 23.7146 255.781L17.2158 277.871C13.5086 290.472 11.0517 303.326 9.88019 316.247L7.99426 337.048C1.8183 405.168 31.7402 469.518 87.1941 507.376L156.996 555.029C207.52 589.522 273.093 597.784 334.1 577.345L456.851 536.22C526.455 512.901 575.799 449.584 579.573 378.746C584.995 276.975 450.462 283.821 393.773 201.987Z" stroke="url(#paint2_linear_16563_161469)"/>
<path opacity="0.2" d="M411.738 195.609C414.766 175.847 516.546 130.194 329.886 91.279C317.601 88.7178 304.419 87.5162 291.637 87.4995L245.427 87.4388C155.736 87.3212 71.7506 143.499 38.5749 225.803L29.2098 249.036C24.3513 261.089 20.689 273.471 18.2741 286.007L13.9809 308.294C1.13257 374.991 24.5141 440.575 75.9253 482.046L139.625 533.429C187.203 571.808 252.909 584.754 316.67 568.312L441.33 536.167C513.267 517.616 568.708 458.379 579.509 388.524C595.181 287.166 396.202 296.976 411.738 195.609Z" stroke="url(#paint3_linear_16563_161469)"/>
<path opacity="0.2" d="M432.901 189.609C448.204 169.124 529.982 132.312 360.143 84.1645C347.86 80.6826 334.542 78.541 321.497 77.6308L276.586 74.497C186.777 68.2304 97.573 117.762 56.7377 196.569L43.9612 221.227C38.0752 232.586 33.3176 244.34 29.7525 256.33L22.5795 280.455C3.37646 345.039 20.199 411.211 67.2033 455.984L124.163 510.241C168.595 552.564 234.389 570.391 300.865 558.119L425.812 535.053C499.667 521.418 560.666 466.825 578.277 398.597C604.179 298.251 368.02 276.468 432.901 189.609Z" stroke="url(#paint4_linear_16563_161469)"/>
<path opacity="0.2" d="M456.701 185.066C479.91 165.482 544.003 134.723 391.112 79.2034C378.857 74.7532 365.422 71.6279 352.126 69.777L309.096 63.7865C219.682 51.3391 126.053 93.7518 78.15 168.402L61.3517 194.579C54.58 205.132 48.8582 216.137 44.2602 227.451L33.6353 253.596C8.49521 315.46 18.8337 381.613 61.1024 429.352L110.871 485.561C151.889 531.887 217.656 554.844 286.772 546.962L410.433 532.861C485.757 524.271 551.686 474.816 575.8 408.814C611.867 310.099 370.672 257.661 456.701 185.066Z" stroke="url(#paint5_linear_16563_161469)"/>
<path opacity="0.2" d="M482.352 182.315C509.917 164.436 558.471 137.49 422.556 76.4527C410.37 70.98 396.855 66.8201 383.333 63.9719L342.699 55.4135C254.213 36.7762 157.009 71.6974 102.695 141.637L81.2607 169.237C73.7526 178.905 67.2088 189.072 61.7096 199.614L47.0177 227.777C16.4322 286.407 20.439 351.986 57.6828 402.329L100.006 459.539C137.268 509.905 202.808 538.278 274.437 535.05L395.337 529.603C471.64 526.165 541.802 482.256 572.033 419.023C618.143 322.578 385.098 245.397 482.352 182.315Z" stroke="url(#paint6_linear_16563_161469)"/>
<path opacity="0.2" d="M509.227 181.517C538.246 165.551 573.216 140.634 454.229 75.9661C442.173 69.4135 428.631 64.1639 414.925 60.2558L377.122 49.477C290.116 24.6687 190.223 51.8286 130.189 116.616L103.56 145.354C95.4629 154.092 88.2406 163.367 81.9766 173.071L62.6173 203.062C27.1247 258.047 25.0129 322.554 56.9847 375.12L91.8104 432.378C124.903 486.787 189.915 520.881 263.855 522.604L380.665 525.324C457.418 527.112 531.066 489.065 566.964 429.082C622.931 335.562 405.176 238.763 509.227 181.517Z" stroke="url(#paint7_linear_16563_161469)"/>
<path opacity="0.2" d="M536.739 182.675C564.84 168.394 588.163 144.136 485.882 77.7342C474.039 70.0452 460.544 63.6505 446.716 58.6165L412.085 46.0089C327.13 15.0812 225.45 34.3126 160.399 93.6117L128.118 123.038C119.571 130.829 111.808 139.186 104.912 148.018L80.3516 179.475C40.5111 230.501 32.5375 293.498 59.0352 347.89L86.5071 404.282C114.956 462.679 179.023 502.799 254.982 509.785L366.553 520.045C443.195 527.094 519.554 495.128 560.621 438.802C626.188 348.873 428.94 237.461 536.739 182.675Z" stroke="url(#paint8_linear_16563_161469)"/>
<path opacity="0.2" d="M564.283 185.7C589.618 172.572 603.305 148.017 517.259 81.7421C505.735 72.8664 492.384 65.2758 478.521 59.0517L447.294 45.0312C364.982 8.07498 262.411 19.3098 193.036 72.8806L154.791 102.413C145.918 109.264 137.738 116.702 130.335 124.651L100.15 157.062C56.5191 203.91 42.9688 265.02 63.8369 320.829L84.2837 375.512C107.562 437.769 170.142 484.189 247.729 496.752L353.119 513.817C429.065 526.114 507.355 500.351 553.065 448.02C627.895 362.351 455.944 241.84 564.283 185.7Z" stroke="url(#paint9_linear_16563_161469)"/>
<path opacity="0.2" d="M591.235 190.401C612.546 177.736 618.695 152.359 548.109 87.9689C537.037 77.8685 523.948 69.0406 510.162 61.5692L482.46 46.556C403.397 3.70755 300.815 6.97032 227.78 54.6563L183.427 83.6156C174.336 89.5516 165.849 96.089 158.049 103.165L121.959 135.903C75.0741 178.432 56.2469 237.334 71.3776 294.148L85.2902 346.388C102.84 412.283 163.262 465.217 241.97 483.651L340.469 506.719C415.121 524.203 494.583 504.673 544.398 456.599C628.069 375.852 486.734 252.507 591.235 190.401Z" stroke="url(#paint10_linear_16563_161469)"/>
<path opacity="0.2" d="M616.906 196.534C633.668 183.674 634.508 157.402 578.182 96.3569C567.715 85.0131 555.031 74.9226 541.46 66.1599L517.292 50.5553C442.096 2.00294 340.349 -2.59686 264.282 39.1171L213.859 66.768C204.637 71.8251 195.935 77.4926 187.832 83.7191L145.724 116.076C96.0873 154.218 72.2858 210.642 81.6187 268.047L89.6186 317.252C100.87 386.457 158.34 446.022 237.548 470.574L328.683 498.824C401.446 521.378 481.358 508.03 534.747 464.405C626.752 389.225 522.104 269.267 616.906 196.534Z" stroke="url(#paint11_linear_16563_161469)"/>
<path opacity="0.2" d="M640.702 203.907C653.199 190.428 650.947 163.572 607.235 106.813C597.548 94.2334 585.434 82.877 572.241 72.7998L551.507 56.9626C480.798 2.95255 380.689 -9.3239 302.17 26.3861L245.907 51.9741C236.624 56.1958 227.781 61.0326 219.453 66.443L171.392 97.6659C119.458 131.405 90.978 185.128 94.4981 242.716L97.2947 288.468C101.7 360.537 155.311 426.713 234.283 457.562L317.819 490.193C388.115 517.653 467.816 510.366 524.268 471.317C624.015 402.321 561.075 289.794 640.702 203.907Z" stroke="url(#paint12_linear_16563_161469)"/>
<path opacity="0.2" d="M662.325 212.555C671.498 198.364 668.09 171.424 635.046 119.235C626.325 105.463 614.962 92.8656 602.333 81.4785L584.838 65.7028C519.23 6.54395 421.509 -13.1566 341.068 16.5587L279.379 39.347C270.088 42.7792 261.16 46.8281 252.667 51.4608L198.902 80.7887C145.074 110.151 112.197 160.988 109.932 218.362L108.27 260.437C105.334 334.799 154.098 407.391 231.996 444.618L307.922 480.903C375.204 513.058 454.1 511.655 513.143 477.254C619.958 415.02 599.023 310.482 662.325 212.555Z" stroke="url(#paint13_linear_16563_161469)"/>
<path opacity="0.2" d="M681.845 222.672C688.878 207.933 685.719 181.372 661.403 133.5C653.843 118.616 643.422 104.838 631.56 92.1803L617.031 76.6756C557.12 12.743 462.477 -14.0723 380.595 9.68566L314.068 28.9882C304.805 31.6758 295.833 34.9795 287.22 38.8739L228.179 65.5707C172.805 90.6091 135.792 138.405 127.807 195.185L122.409 233.565C111.725 309.527 154.612 388.133 230.511 431.698L299.016 471.02C362.779 507.62 440.358 511.888 501.563 482.163C614.699 427.217 630.842 329.564 681.845 222.672Z" stroke="url(#paint14_linear_16563_161469)"/>
<path opacity="0.2" d="M699.515 234.362C705.427 219.323 703.351 193.466 686.128 149.467C679.916 133.598 670.626 118.721 659.742 104.872L647.856 89.7485C594.207 21.4845 503.266 -12.0899 420.373 5.76456L335.922 23.9548L259.131 52.1363C202.504 72.918 161.593 117.54 147.985 173.363L139.485 208.231C120.774 284.991 156.768 368.974 229.688 418.699L291.119 460.589C350.907 501.358 426.736 511.064 489.729 486.009C608.371 438.82 655.065 347.442 699.515 234.362Z" stroke="url(#paint15_linear_16563_161469)"/>
<path opacity="0.2" d="M715.311 248.179C721.06 233.142 720.621 208.092 709.078 167.046C704.386 150.362 696.39 134.438 686.691 119.521L677.108 104.781C630.24 32.6931 543.556 -7.249 460.041 4.76173L372.477 17.3548L291.646 40.6248C234.007 57.2184 189.409 98.5471 170.304 153.072L159.191 184.79C132.329 261.451 160.495 349.942 229.437 405.49L284.25 449.655C339.656 494.297 413.38 509.202 477.841 488.794C601.117 449.766 670.762 364.694 715.311 248.179Z" stroke="url(#paint16_linear_16563_161469)"/>
<path opacity="0.2" d="M729.366 263.766C735.483 248.908 736.88 224.669 730.079 185.954C727.042 168.667 720.533 151.894 712.213 136.075L704.609 121.618C664.981 46.2736 583.039 0.380246 499.252 6.60407L409.57 13.2659L325.586 31.1748C267.133 43.6396 219.037 81.5608 194.582 134.463L181.146 163.53C146.195 239.14 165.747 331.043 229.736 391.924L278.431 438.254C329.097 486.46 400.427 506.338 466.085 490.55C593.08 460.012 680.757 381.849 729.366 263.766Z" stroke="url(#paint17_linear_16563_161469)"/>
<path opacity="0.2" d="M741.386 281.406C748.351 266.884 751.763 243.313 749.036 206.04C747.745 188.394 742.88 171.01 736.1 154.491L730.205 140.125C698.2 62.1427 621.418 10.7292 537.685 11.2134L446.945 11.7381L360.783 23.9508C301.679 32.3284 250.251 66.7237 220.614 117.698L204.919 144.691C162.136 218.273 172.508 312.313 230.637 377.886L273.69 426.453C319.301 477.904 388.001 502.548 454.628 491.358C584.387 469.566 685.089 398.8 741.386 281.406Z" stroke="url(#paint18_linear_16563_161469)"/>
<path opacity="0.2" d="M750.987 301.074C759.218 287.039 764.86 263.923 765.882 227.093C766.374 209.352 763.259 191.623 758.143 174.637L753.765 160.101C729.683 80.1405 658.416 23.6436 575.044 18.4214L484.345 12.7402L397.04 19.0483C337.424 23.3557 282.82 54.0951 248.182 102.848L230.058 128.357C179.9 198.954 180.793 293.737 232.27 363.231L270.068 414.257C310.343 468.627 376.21 497.854 443.607 491.261C575.152 478.392 684.09 415.14 750.987 301.074Z" stroke="url(#paint19_linear_16563_161469)"/>
<path opacity="0.2" d="M757.875 322.407C767.683 309.041 775.795 286.232 780.577 249C782.833 231.434 781.515 213.641 778.138 196.438L775.191 181.432C759.237 100.178 693.781 39.0322 611.075 28.121L521.516 16.3059L434.132 16.6352C374.136 16.8614 316.507 43.7969 277.068 90.0467L256.134 114.596C199.239 181.317 190.651 275.409 234.835 347.951L267.616 401.77C302.304 458.721 365.153 492.374 433.132 490.397C565.467 486.548 678.674 430.344 757.875 322.407Z" stroke="url(#paint20_linear_16563_161469)"/>
<path opacity="0.2" d="M761.501 345.224C773.222 332.852 784.183 310.262 793.086 271.611C797.033 254.475 797.501 236.897 795.882 219.731L794.394 203.95C786.675 122.102 727.28 56.7322 645.551 40.1345L558.202 22.3955L471.802 16.8086C411.559 12.9132 351.066 35.8753 307.046 79.3467L282.753 103.336C219.915 165.392 202.14 257.402 238.57 332.058L266.383 389.057C295.26 448.234 354.903 486.176 423.27 488.86C555.392 494.047 668.534 443.359 761.501 345.224Z" stroke="url(#paint21_linear_16563_161469)"/>
<path opacity="0.2" d="M761.607 368.828C775.457 357.947 789.676 335.717 803.384 294.789C808.901 278.315 811.084 261.215 811.192 244.326L811.301 227.5C811.826 145.752 758.701 76.5707 678.281 54.2772L594.15 30.9551L509.761 19.6477C449.426 11.5633 386.249 30.3594 337.89 70.7822L309.593 94.4358C241.72 151.17 215.321 239.83 243.726 315.644L266.416 376.201C289.281 437.228 345.515 479.334 414.051 486.745C544.962 500.902 654.553 452.932 761.607 368.828Z" stroke="url(#paint22_linear_16563_161469)"/>
<path opacity="0.2" d="M758.151 392.465C774.158 383.753 791.983 362.309 811.447 318.459C818.379 302.842 822.155 286.454 823.913 270.06L825.852 251.98C834.537 171.008 787.862 98.4137 709.111 70.4095L629.115 41.9627L547.701 25.255C487.457 12.8919 421.812 27.3093 369.385 64.418L336.413 87.7555C264.486 138.666 230.238 222.89 250.543 298.927L267.748 363.353C284.43 425.823 337.028 471.97 405.475 484.191C534.191 507.172 638.151 457.781 758.151 392.465Z" stroke="url(#paint23_linear_16563_161469)"/>
<path opacity="0.2" d="M750.7 415.489C768.743 410.02 790.537 390.209 817.187 342.577C825.359 327.971 830.624 312.374 833.917 296.661L837.994 277.207C854.666 197.657 814.6 122.033 737.916 88.3053L675.907 61.0328C667.217 57.2107 658.171 53.9833 648.84 51.3755L585.289 33.616C525.364 16.8697 457.512 26.6803 401.318 60.2162L363.057 83.0497C288.079 127.795 246.904 206.719 259.213 282.099L270.396 350.585C280.76 414.062 329.464 464.119 397.513 481.235C523.072 512.816 620.312 455.01 750.7 415.489Z" stroke="url(#paint24_linear_16563_161469)"/>
<path opacity="0.2" d="M739.857 436.789C759.378 435.72 785.114 418.859 820.602 366.97C829.824 353.486 836.427 338.816 841.112 323.934L847.677 303.085C872.086 225.564 838.778 147.281 764.601 107.83L708.036 77.7458C699.451 73.18 690.435 69.2031 681.062 65.8473L622.18 44.768C562.852 23.5289 493.11 28.4979 433.485 58.2122L389.441 80.162C312.394 118.558 265.295 191.555 269.865 265.484L274.351 338.059C278.309 402.081 322.829 455.893 390.114 477.983C511.591 517.864 605.906 444.124 739.857 436.789Z" stroke="url(#paint25_linear_16563_161469)"/>
<path opacity="0.2" d="M726.288 455.476C746.3 459.954 775.428 447.869 821.661 391.501C831.745 379.205 839.517 365.566 845.439 351.625L854.852 329.468C886.683 254.535 860.277 173.957 789.092 128.805L738.419 96.6622C729.985 91.3125 721.04 86.5425 711.661 82.3931L658.016 58.66C599.62 32.825 528.37 32.7212 465.687 58.3799L415.537 78.9083C337.347 110.915 285.335 177.584 282.55 249.375L279.582 325.884C277.096 389.965 317.117 447.349 383.209 474.468C499.73 522.281 599.931 427.207 726.288 455.476Z" stroke="url(#paint26_linear_16563_161469)"/>
<path opacity="0.2" d="M711.134 471.044C730.292 481.783 761.476 476.601 820.338 416.062C831.107 404.986 839.879 392.444 846.876 379.519L859.474 356.245C898.361 284.407 879.002 201.897 811.34 151.1L766.823 117.678C758.601 111.506 749.784 105.899 740.452 100.909L692.44 75.237C635.372 44.7225 563.063 39.3315 497.729 60.7205L441.359 79.1747C362.863 104.873 306.912 165.022 297.245 234.104L286.037 314.192C277.131 377.835 312.316 438.57 376.728 470.74C487.476 526.053 604.103 411.048 711.134 471.044Z" stroke="url(#paint27_linear_16563_161469)"/>
<path opacity="0.2" d="M695.568 483.594C712.467 500.531 743.558 504.258 816.615 440.492C827.908 430.636 837.515 419.227 845.43 407.357L861.504 383.252C907.038 314.963 894.875 230.89 831.309 174.554L793.025 140.625C785.093 133.595 776.479 127.112 767.266 121.238L725.1 94.3567C669.817 59.1129 596.964 48.2509 529.419 65.1814L466.939 80.842C388.87 100.41 329.87 154.018 313.847 219.941L293.646 303.058C278.406 365.762 308.405 429.584 370.602 466.778C474.829 529.105 613.777 401.615 695.568 483.594Z" stroke="url(#paint28_linear_16563_161469)"/>
<path opacity="0.2" d="M680.329 493.769C693.873 516.052 722.109 530.224 810.482 464.674C822.158 456.014 832.45 445.747 841.138 434.945L860.903 410.371C912.648 346.034 907.835 260.783 848.973 199.075L816.818 165.365C809.271 157.454 800.952 150.063 791.946 143.268L755.654 115.888C702.669 75.9134 629.856 59.4416 560.567 71.7548L492.313 83.8842C415.287 97.5722 354.018 144.749 332.191 207.178L302.327 292.589C280.902 353.868 305.362 420.463 364.768 462.594C461.799 531.408 623.057 399.541 680.329 493.769Z" stroke="url(#paint29_linear_16563_161469)"/>
<path opacity="0.2" d="M665.658 502.246C675.3 528.464 697.522 554.045 801.946 488.427C813.888 480.922 824.731 471.782 834.062 462.04L857.644 437.42C915.143 377.387 917.837 291.37 864.311 224.531L838.008 191.685C830.959 182.883 823.045 174.565 814.355 166.825L783.783 139.598C733.658 94.9564 661.525 72.796 590.984 80.3671L517.503 88.2538C442.022 96.3552 379.142 137.309 352.053 196.011L311.994 282.82C284.589 342.207 303.162 411.213 359.178 458.127C448.417 532.865 628.959 402.46 665.658 502.246Z" stroke="url(#paint30_linear_16563_161469)"/>
<path opacity="0.2" d="M651.468 509.618C657.33 538.043 670.092 575.489 791.025 511.618C803.139 505.22 814.42 497.179 824.283 488.473L851.706 464.266C914.49 408.845 924.844 322.508 877.298 250.865L856.424 219.412C849.997 209.727 842.616 200.485 834.366 191.793L809.197 165.274C762.532 116.107 691.766 88.2525 620.481 90.994L542.515 93.9923C468.964 96.8209 405.005 131.817 373.168 186.654L322.558 273.826C289.429 330.888 301.785 401.89 353.801 453.358C434.732 533.438 630.526 408.077 651.468 509.618Z" stroke="url(#paint31_linear_16563_161469)"/>
<path opacity="0.2" d="M637.514 516.305C640.478 545.047 640.096 594.333 777.762 534.074C789.978 528.727 801.602 521.749 811.905 514.045L843.087 490.728C910.681 440.185 928.834 354.018 887.903 277.997L871.92 248.312C866.25 237.781 859.54 227.64 851.871 218.012L831.649 192.626C789.064 139.165 720.383 105.697 648.873 103.56L567.329 101.123C495.992 98.9916 431.363 128.325 395.244 179.229L333.94 265.627C295.38 319.971 301.216 392.502 348.631 448.22C420.816 533.045 627.04 414.748 637.514 516.305Z" stroke="url(#paint32_linear_16563_161469)"/>
<path opacity="0.2" d="M623.422 522.605C625.241 549.718 607.748 610.416 762.215 555.635C774.48 551.285 786.376 545.326 797.048 538.584L831.796 516.635C903.725 471.197 929.788 385.744 896.075 305.872L884.376 278.155C879.602 266.843 873.707 255.857 866.767 245.34L850.936 221.347C813.05 163.927 747.186 125.02 675.976 117.997L591.892 109.703C522.965 102.904 457.963 126.871 417.967 173.831L346.063 258.254C302.393 309.528 301.445 383.07 343.685 442.655C406.758 531.627 616.625 421.286 623.422 522.605Z" stroke="url(#paint33_linear_16563_161469)"/>
<path opacity="0.2" d="M608.697 528.72C612.208 552.251 573.197 623.599 744.463 576.146C756.744 572.743 768.859 567.761 779.846 561.942L817.863 541.812C893.654 501.678 927.692 417.533 901.745 334.446L893.706 308.702C889.96 296.707 885.025 284.967 878.966 273.639L866.919 251.116C834.324 190.177 771.998 146.106 701.612 134.227L616.125 119.799C549.73 108.594 484.551 127.471 441.015 170.514L358.862 251.737C310.418 299.632 302.473 373.618 339.009 436.612C392.672 529.136 593.579 427.394 608.697 528.72Z" stroke="url(#paint34_linear_16563_161469)"/>
<path opacity="0.2" d="M592.624 534.77C602.175 552.746 536.503 633.702 724.602 595.421C736.881 592.922 749.177 588.878 760.445 583.946L801.334 566.049C880.518 531.389 922.535 449.2 904.815 363.63L899.854 339.676C897.256 327.129 893.413 314.757 888.377 302.732L879.515 281.568C852.75 217.655 794.649 168.792 725.604 152.129L639.912 131.449C576.119 116.054 510.873 130.08 464.064 169.252L372.27 246.069C319.396 290.316 304.307 364.136 334.671 430.013C378.682 525.501 543.053 441.473 592.624 534.77Z" stroke="url(#paint35_linear_16563_161469)"/>
<path opacity="0.2" d="M574.978 541.456C593.441 553.979 500.697 640.159 702.75 613.34C715.02 611.711 727.477 608.574 739.004 604.498L782.283 589.192C864.392 560.153 914.309 480.611 905.166 393.378L902.805 370.857C901.449 357.92 898.809 345.072 894.921 332.497L888.709 312.402C868.23 246.153 814.987 192.966 747.789 171.63L663.111 144.744C601.954 125.326 536.687 134.69 486.803 170.039L386.227 241.31C329.268 281.673 306.965 354.678 330.766 422.853C364.936 520.728 487.392 482.048 574.978 541.456Z" stroke="url(#paint36_linear_16563_161469)"/>
<path opacity="0.2" d="M557.066 548.416C581.627 558.726 469.17 643.091 679.045 629.731C691.307 628.951 703.913 626.698 715.69 623.455L760.806 611.031C845.376 587.742 903.016 511.567 902.663 423.557L902.576 401.977C902.523 388.835 901.166 375.693 898.524 362.743L894.552 343.278C880.706 275.412 832.87 218.448 768.01 192.587L685.55 159.708C627.05 136.382 561.757 141.213 508.935 172.774L400.67 237.463C339.968 273.732 310.472 345.249 327.412 415.089C351.592 514.783 461.778 508.416 557.066 548.416Z" stroke="url(#paint37_linear_16563_161469)"/>
<path opacity="0.2" d="M539.616 554.839C565.528 565.864 441.429 643.465 653.639 644.464C665.9 644.521 678.653 643.141 690.68 640.72L737.022 631.389C823.589 613.959 888.663 541.885 897.163 454.02L899.214 432.81C900.486 419.664 900.453 406.427 899.116 393.295L897.143 373.919C890.146 305.209 848.171 245.078 786.121 214.876L707.03 176.379C651.212 149.211 585.861 149.57 530.186 177.351L415.524 234.567C351.425 266.552 314.858 335.897 324.737 406.734C338.815 507.682 445.886 514.955 539.616 554.839Z" stroke="url(#paint38_linear_16563_161469)"/>
<path opacity="0.2" d="M522.919 560.757C543.999 574.585 417.776 642.091 626.706 657.404C638.972 658.303 651.873 657.794 664.154 656.195L711.079 650.083C799.175 638.609 871.276 571.357 888.534 484.562L892.794 463.137C895.369 450.188 896.659 437.061 896.645 423.949L896.624 404.082C896.552 335.323 860.78 272.677 801.99 238.354L727.331 194.765C674.244 163.771 608.791 159.652 550.313 183.623L430.706 232.653C363.56 260.178 320.152 326.668 322.878 397.819C326.772 499.457 438.701 505.511 522.919 560.757Z" stroke="url(#paint39_linear_16563_161469)"/>
<path opacity="0.2" d="M506.288 566.555C516.903 583.772 398.242 639.799 598.433 668.438C610.71 670.194 623.759 670.57 636.301 669.805L683.149 666.948C772.3 661.512 850.908 599.768 876.673 514.942L883.409 492.764C887.224 480.206 889.793 467.387 891.078 454.493L893.164 433.577C899.947 365.555 870.608 301.067 815.5 262.874L746.214 214.854C695.947 180.016 630.362 171.34 569.107 191.427L446.119 231.758C376.289 254.657 326.38 317.633 321.971 388.411C315.631 490.168 454.067 481.854 506.288 566.555Z" stroke="url(#paint40_linear_16563_161469)"/>
<path opacity="0.2" d="M488.087 572.966C483.815 592.876 383.804 637.624 569.024 677.454C581.31 680.096 594.504 681.38 607.31 681.475L653.429 681.818C743.152 682.484 827.634 626.88 861.518 544.859L871.165 521.507C876.121 509.51 879.886 497.18 882.408 484.686L886.938 462.247C900.37 395.712 877.576 330.049 826.545 288.269L763.425 236.593C716.119 197.863 650.403 184.489 586.397 200.565L461.645 231.899C389.519 250.015 333.557 308.859 322.136 378.594C305.547 479.886 509.719 472.152 488.087 572.966Z" stroke="url(#paint41_linear_16563_161469)"/>
<path opacity="0.2" d="M466.657 578.862C450.507 599.317 370.333 635.487 538.695 684.381C550.976 687.947 564.306 690.175 577.374 691.167L622.14 694.567C711.934 701.386 801.568 652.474 843.061 574.013L856.173 549.221C862.144 537.929 866.993 526.238 870.656 514.303L878.114 490.003C897.867 425.639 881.629 359.444 835.036 314.391L778.704 259.922C734.565 217.242 668.768 198.967 602.052 210.855L477.157 233.112C403.151 246.299 341.685 300.452 323.477 368.504C296.662 468.73 534.103 493.444 466.657 578.862Z" stroke="url(#paint42_linear_16563_161469)"/>
<path opacity="0.2" d="M442.656 583.268C418.926 602.722 356.296 633.056 507.674 689.148C519.925 693.687 533.368 696.903 546.686 698.841L589.522 705.074C678.874 718.076 772.859 676.32 821.363 602.071L838.552 575.759C845.396 565.283 851.197 554.35 855.881 543.101L866.845 516.772C892.494 455.179 882.729 389.055 840.899 341.068L791.789 284.73C751.093 238.044 685.337 214.614 615.989 222.09L492.517 235.402C417.085 243.534 350.748 292.508 326.069 358.284C289.097 456.822 529.957 511.697 442.656 583.268Z" stroke="url(#paint43_linear_16563_161469)"/>
<path opacity="0.2" d="M416.865 585.845C389.06 603.554 341.81 630.252 476.2 691.689C488.378 697.256 501.897 701.511 515.438 704.451L555.835 713.224C644.211 732.415 741.692 698.179 796.547 628.684L818.425 600.968C825.992 591.381 832.602 581.292 838.176 570.824L853.261 542.486C884.309 484.167 880.859 418.665 844.078 368.107L802.426 310.854C765.52 260.125 700.013 231.253 628.168 234.05L507.582 238.744C431.217 241.717 360.712 285.112 329.954 348.073C282.953 444.283 514.873 523.425 416.865 585.845Z" stroke="url(#paint44_linear_16563_161469)"/>
<path opacity="0.2" d="M389.907 586.474C360.883 602.275 327.048 627.084 444.519 691.98C456.56 698.632 470.1 703.982 483.821 707.988L521.352 718.947C608.198 744.306 708.288 717.85 768.799 653.542L795.918 624.722C804.061 616.068 811.337 606.875 817.663 597.248L837.468 567.108C873.372 512.466 876.02 448.078 844.531 395.332L810.372 338.114C777.675 283.345 712.728 248.723 638.595 246.543L522.21 243.12C445.443 240.862 371.52 278.372 335.139 338.044C278.3 431.27 494.41 529.585 389.907 586.474Z" stroke="url(#paint45_linear_16563_161469)"/>
<path opacity="0.2" d="M362.372 585.142C334.453 599.295 312.082 623.547 412.882 690.011C424.701 697.804 438.187 704.304 452.022 709.442L486.357 722.193C571.1 753.665 672.896 735.148 738.362 676.353L771.166 646.892C779.747 639.185 787.553 630.911 794.499 622.158L819.548 590.593C859.75 539.933 868.235 477.09 842.236 422.555L815.408 366.283C787.4 307.533 723.443 266.86 647.32 259.388L536.267 248.487C459.663 240.967 383.1 272.382 341.595 328.362C275.183 417.937 470.359 530.398 362.372 585.142Z" stroke="url(#paint46_linear_16563_161469)"/>
<path opacity="0.2" d="M334.853 581.962C309.839 595.021 296.92 619.635 381.54 685.807C393.029 694.791 406.362 702.491 420.223 708.824L451.139 722.951C533.184 760.441 635.792 749.922 705.521 696.873L744.31 667.363C753.206 660.595 761.418 653.238 768.861 645.368L799.566 612.901C843.509 566.435 857.544 505.51 837.186 449.594L817.346 395.102C794.557 332.509 732.141 285.513 654.433 272.436L549.633 254.8C473.778 242.035 395.353 267.24 349.253 319.2C273.613 404.455 443.046 525.481 334.853 581.962Z" stroke="url(#paint47_linear_16563_161469)"/>
<path opacity="0.2" d="M307.991 577.119C287.079 589.777 281.5 615.238 350.751 679.38C361.776 689.591 374.835 698.532 388.608 706.117L415.992 721.199C494.734 764.567 597.275 762.014 670.606 714.86L715.507 685.987C724.614 680.131 733.124 673.673 740.954 666.675L777.581 633.941C824.732 591.802 844.017 533.112 829.403 476.228L816.047 424.238C799.038 358.032 738.846 304.506 660.066 285.535L562.21 261.969C487.703 244.026 408.173 262.999 358.016 310.682C273.577 390.956 411.875 514.234 307.991 577.119Z" stroke="url(#paint48_linear_16563_161469)"/>
<path opacity="0.2" d="M282.468 570.875C266.112 583.778 265.638 610.119 320.761 670.808C331.166 682.263 343.805 692.468 357.35 701.347L381.205 716.987C456.025 766.039 557.657 771.334 633.967 730.157L684.924 702.66C694.154 697.68 702.871 692.088 710.997 685.936L753.644 653.65C803.504 615.902 827.737 559.711 818.924 502.274L811.42 453.363C800.76 383.881 743.597 323.721 664.378 298.612L573.917 269.938C501.352 246.937 421.432 259.736 367.749 302.956C275.026 377.607 376.095 497.011 282.468 570.875Z" stroke="url(#paint49_linear_16563_161469)"/>
<path opacity="0.2" d="M258.858 563.388C246.707 576.933 249.137 603.818 291.809 660.166C301.418 672.854 313.472 684.323 326.623 694.518L347.058 710.361C417.335 764.846 517.259 777.798 595.972 742.625L652.74 717.258C662.026 713.109 670.878 708.345 679.224 703.006L727.808 671.921C779.927 638.576 808.812 585.104 805.812 527.519L803.445 482.09C799.677 409.791 746.459 343.03 667.547 311.611L584.695 278.624C514.647 250.735 434.996 257.488 378.292 296.122C277.884 364.536 336.965 476.318 258.858 563.388Z" stroke="url(#paint50_linear_16563_161469)"/>
<path opacity="0.2" d="M237.429 554.621C228.5 568.871 231.938 595.794 264.121 647.574C272.745 661.45 284.032 674.156 296.601 685.659L313.819 701.418C378.941 761.02 476.413 781.371 557.002 752.191L619.151 729.688C628.44 726.324 637.374 722.344 645.879 717.778L700.137 688.657C754.116 659.684 787.374 609.113 790.154 551.777L792.179 510.035C795.794 435.499 747.513 362.349 669.756 324.551L594.505 287.971C527.517 255.408 448.72 256.294 389.467 290.277C282.054 351.88 299.386 455.745 237.429 554.621Z" stroke="url(#paint51_linear_16563_161469)"/>
<path opacity="0.2" d="M218.093 544.358C211.193 559.132 214.279 585.643 237.903 633.158C245.35 648.136 255.677 662.015 267.459 674.784L281.738 690.257C341.111 754.597 435.447 782.032 517.437 758.805L584.362 739.845C593.622 737.222 602.596 733.983 611.218 730.153L670.705 703.726C726.203 679.072 763.574 631.555 772.067 574.846L777.767 536.79C789.16 460.722 746.849 381.606 671.176 337.479L603.321 297.911C539.895 260.926 462.457 256.161 401.077 285.468C287.414 339.738 268.31 436.825 218.093 544.358Z" stroke="url(#paint52_linear_16563_161469)"/>
<path opacity="0.2" d="M200.591 532.486C194.718 547.532 196.658 573.321 213.329 617.037C219.411 632.986 228.593 647.964 239.38 661.914L251.045 677.002C304.108 745.63 394.689 779.791 477.653 762.462L562.422 744.756L639.607 716.993C696.335 696.589 737.584 652.258 751.69 596.536L760.441 561.967C779.879 485.179 744.549 400.753 671.945 350.491L611.126 308.389C551.714 267.26 476.06 257.079 412.923 281.717C293.83 328.191 244.881 419.028 200.591 532.486Z" stroke="url(#paint53_linear_16563_161469)"/>
<path opacity="0.2" d="M184.944 518.521C179.182 533.548 179.464 558.524 190.548 599.333C195.097 616.08 202.967 632.089 212.549 647.094L221.943 661.803C268.18 734.206 354.459 774.698 438.012 763.208L525.808 751.134L606.958 728.327C664.678 712.105 709.596 671.077 729.186 616.685L740.517 585.226C768.107 508.619 740.684 419.776 672.146 363.727L617.901 319.367C562.905 274.393 489.385 259.033 424.807 279.027C301.159 317.308 229.7 401.785 184.944 518.521Z" stroke="url(#paint54_linear_16563_161469)"/>
<path opacity="0.2" d="M139.929 420.711C128.023 432.973 116.787 455.54 107.486 494.364C103.392 511.45 102.767 528.995 104.23 546.147L105.582 562.01C112.561 643.877 171.403 709.605 253.029 726.713L340.13 744.967L426.391 751.076C486.649 755.343 547.39 732.746 591.809 689.537L616.433 665.583C679.761 603.979 698.334 512.22 662.615 437.421L635.25 380.119C606.904 320.759 547.558 282.44 479.166 279.336C347.111 273.342 234.166 323.654 139.929 420.711Z" stroke="url(#paint55_linear_16563_161469)"/>
<path opacity="0.2" d="M140.14 397.062C126.095 407.78 111.567 429.962 97.3863 471.127C91.7353 487.531 89.4046 504.576 89.1444 521.43L88.8831 538.36C87.6221 620.066 140.177 689.569 220.463 712.373L304.26 736.174L388.421 747.98C448.756 756.444 512.163 738.031 560.898 697.894L589.587 674.266C657.863 618.035 684.999 529.731 657.318 453.859L635.103 392.967C612.785 331.794 556.866 289.321 488.327 281.483C357.572 266.529 248.422 314.435 140.14 397.062Z" stroke="url(#paint56_linear_16563_161469)"/>
<path opacity="0.2" d="M143.962 373.454C127.756 381.915 109.578 403.255 89.5248 447.433C82.4743 462.966 78.5617 479.285 76.6608 495.625L74.5436 513.824C65.1357 594.694 111.225 667.576 189.809 696.092L269.394 724.972L350.497 742.143C410.722 754.895 476.576 740.88 529.354 704.081L562.775 680.778C635.016 630.408 669.924 546.626 650.342 470.614L633.651 405.829C617.53 343.251 565.27 296.748 496.844 284.093C368.373 260.331 265.082 310.213 143.962 373.454Z" stroke="url(#paint57_linear_16563_161469)"/>
<path opacity="0.2" d="M151.703 350.542C133.502 355.674 111.354 375.286 83.9934 423.266C75.7197 437.775 70.3283 453.294 66.9047 468.938L62.6195 488.518C45.2444 567.91 84.7108 643.787 161.189 678.027L222.733 705.581C231.415 709.468 240.46 712.761 249.796 715.434L312.957 733.516C372.84 750.66 440.875 741.273 497.391 708.069L536.152 685.297C611.355 641.115 653.101 562.699 641.498 487.418L630.886 418.564C621.091 355.019 572.75 304.62 504.753 287.062C379.523 254.724 282.739 313.595 151.703 350.542Z" stroke="url(#paint58_linear_16563_161469)"/>
<defs>
<linearGradient id="paint0_linear_16563_161469" x1="594.246" y1="380.277" x2="0.208038" y2="380.277" gradientUnits="userSpaceOnUse">
<stop stop-color="#914CEB"/>
<stop offset="0.2" stop-color="#CD5C5C"/>
<stop offset="0.4" stop-color="#FF8C00"/>
<stop offset="0.6" stop-color="#EEE8AA"/>
<stop offset="0.8" stop-color="#2E8B57"/>
<stop offset="1" stop-color="#4682B4"/>
</linearGradient>
<linearGradient id="paint1_linear_16563_161469" x1="594.128" y1="390.073" x2="4.037" y2="330.605" gradientUnits="userSpaceOnUse">
<stop stop-color="#914CEB"/>
<stop offset="0.2" stop-color="#CD5C5C"/>
<stop offset="0.4" stop-color="#FF8C00"/>
<stop offset="0.6" stop-color="#EEE8AA"/>
<stop offset="0.8" stop-color="#2E8B57"/>
<stop offset="1" stop-color="#4682B4"/>
</linearGradient>
<linearGradient id="paint2_linear_16563_161469" x1="593.027" y1="399.829" x2="14.5623" y2="282.428" gradientUnits="userSpaceOnUse">
<stop stop-color="#914CEB"/>
<stop offset="0.2" stop-color="#CD5C5C"/>
<stop offset="0.4" stop-color="#FF8C00"/>
<stop offset="0.6" stop-color="#EEE8AA"/>
<stop offset="0.8" stop-color="#2E8B57"/>
<stop offset="1" stop-color="#4682B4"/>
</linearGradient>
<linearGradient id="paint3_linear_16563_161469" x1="590.949" y1="409.478" x2="31.1746" y2="237.063" gradientUnits="userSpaceOnUse">
<stop stop-color="#914CEB"/>
<stop offset="0.2" stop-color="#CD5C5C"/>
<stop offset="0.4" stop-color="#FF8C00"/>
<stop offset="0.6" stop-color="#EEE8AA"/>
<stop offset="0.8" stop-color="#2E8B57"/>
<stop offset="1" stop-color="#4682B4"/>
</linearGradient>
<linearGradient id="paint4_linear_16563_161469" x1="587.911" y1="418.957" x2="52.9591" y2="195.566" gradientUnits="userSpaceOnUse">
<stop stop-color="#914CEB"/>
<stop offset="0.2" stop-color="#CD5C5C"/>
<stop offset="0.4" stop-color="#FF8C00"/>
<stop offset="0.6" stop-color="#EEE8AA"/>
<stop offset="0.8" stop-color="#2E8B57"/>
<stop offset="1" stop-color="#4682B4"/>
</linearGradient>
<linearGradient id="paint5_linear_16563_161469" x1="583.931" y1="428.188" x2="78.8118" y2="158.646" gradientUnits="userSpaceOnUse">
<stop stop-color="#914CEB"/>
<stop offset="0.2" stop-color="#CD5C5C"/>
<stop offset="0.4" stop-color="#FF8C00"/>
<stop offset="0.6" stop-color="#EEE8AA"/>
<stop offset="0.8" stop-color="#2E8B57"/>
<stop offset="1" stop-color="#4682B4"/>
</linearGradient>
<linearGradient id="paint6_linear_16563_161469" x1="579.037" y1="437.113" x2="107.569" y2="126.675" gradientUnits="userSpaceOnUse">
<stop stop-color="#914CEB"/>
<stop offset="0.2" stop-color="#CD5C5C"/>
<stop offset="0.4" stop-color="#FF8C00"/>
<stop offset="0.6" stop-color="#EEE8AA"/>
<stop offset="0.8" stop-color="#2E8B57"/>
<stop offset="1" stop-color="#4682B4"/>
</linearGradient>
<linearGradient id="paint7_linear_16563_161469" x1="573.262" y1="445.69" x2="138.115" y2="99.7191" gradientUnits="userSpaceOnUse">
<stop stop-color="#914CEB"/>
<stop offset="0.2" stop-color="#CD5C5C"/>
<stop offset="0.4" stop-color="#FF8C00"/>
<stop offset="0.6" stop-color="#EEE8AA"/>
<stop offset="0.8" stop-color="#2E8B57"/>
<stop offset="1" stop-color="#4682B4"/>
</linearGradient>
<linearGradient id="paint8_linear_16563_161469" x1="566.648" y1="453.838" x2="169.466" y2="77.5459" gradientUnits="userSpaceOnUse">
<stop stop-color="#914CEB"/>
<stop offset="0.2" stop-color="#CD5C5C"/>
<stop offset="0.4" stop-color="#FF8C00"/>
<stop offset="0.6" stop-color="#EEE8AA"/>
<stop offset="0.8" stop-color="#2E8B57"/>
<stop offset="1" stop-color="#4682B4"/>
</linearGradient>
<linearGradient id="paint9_linear_16563_161469" x1="559.237" y1="461.498" x2="200.816" y2="59.7514" gradientUnits="userSpaceOnUse">
<stop stop-color="#914CEB"/>
<stop offset="0.2" stop-color="#CD5C5C"/>
<stop offset="0.4" stop-color="#FF8C00"/>
<stop offset="0.6" stop-color="#EEE8AA"/>
<stop offset="0.8" stop-color="#2E8B57"/>
<stop offset="1" stop-color="#4682B4"/>
</linearGradient>
<linearGradient id="paint10_linear_16563_161469" x1="551.083" y1="468.629" x2="231.557" y2="45.8367" gradientUnits="userSpaceOnUse">
<stop stop-color="#914CEB"/>
<stop offset="0.2" stop-color="#CD5C5C"/>
<stop offset="0.4" stop-color="#FF8C00"/>
<stop offset="0.6" stop-color="#EEE8AA"/>
<stop offset="0.8" stop-color="#2E8B57"/>
<stop offset="1" stop-color="#4682B4"/>
</linearGradient>
<linearGradient id="paint11_linear_16563_161469" x1="542.241" y1="475.183" x2="261.268" y2="35.2393" gradientUnits="userSpaceOnUse">
<stop stop-color="#914CEB"/>
<stop offset="0.2" stop-color="#CD5C5C"/>
<stop offset="0.4" stop-color="#FF8C00"/>
<stop offset="0.6" stop-color="#EEE8AA"/>
<stop offset="0.8" stop-color="#2E8B57"/>
<stop offset="1" stop-color="#4682B4"/>
</linearGradient>
<linearGradient id="paint12_linear_16563_161469" x1="532.77" y1="481.106" x2="289.702" y2="27.3838" gradientUnits="userSpaceOnUse">
<stop stop-color="#914CEB"/>
<stop offset="0.2" stop-color="#CD5C5C"/>
<stop offset="0.4" stop-color="#FF8C00"/>
<stop offset="0.6" stop-color="#EEE8AA"/>
<stop offset="0.8" stop-color="#2E8B57"/>
<stop offset="1" stop-color="#4682B4"/>
</linearGradient>
<linearGradient id="paint13_linear_16563_161469" x1="522.737" y1="486.363" x2="316.758" y2="21.7442" gradientUnits="userSpaceOnUse">
<stop stop-color="#914CEB"/>
<stop offset="0.2" stop-color="#CD5C5C"/>
<stop offset="0.4" stop-color="#FF8C00"/>
<stop offset="0.6" stop-color="#EEE8AA"/>
<stop offset="0.8" stop-color="#2E8B57"/>
<stop offset="1" stop-color="#4682B4"/>
</linearGradient>
<linearGradient id="paint14_linear_16563_161469" x1="512.21" y1="490.924" x2="342.451" y2="17.8476" gradientUnits="userSpaceOnUse">
<stop stop-color="#914CEB"/>
<stop offset="0.2" stop-color="#CD5C5C"/>
<stop offset="0.4" stop-color="#FF8C00"/>
<stop offset="0.6" stop-color="#EEE8AA"/>
<stop offset="0.8" stop-color="#2E8B57"/>
<stop offset="1" stop-color="#4682B4"/>
</linearGradient>
<linearGradient id="paint15_linear_16563_161469" x1="501.261" y1="494.749" x2="366.889" y2="15.2762" gradientUnits="userSpaceOnUse">
<stop stop-color="#914CEB"/>
<stop offset="0.2" stop-color="#CD5C5C"/>
<stop offset="0.4" stop-color="#FF8C00"/>
<stop offset="0.6" stop-color="#EEE8AA"/>
<stop offset="0.8" stop-color="#2E8B57"/>
<stop offset="1" stop-color="#4682B4"/>
</linearGradient>
<linearGradient id="paint16_linear_16563_161469" x1="489.966" y1="497.813" x2="390.25" y2="13.694" gradientUnits="userSpaceOnUse">
<stop stop-color="#914CEB"/>
<stop offset="0.2" stop-color="#CD5C5C"/>
<stop offset="0.4" stop-color="#FF8C00"/>
<stop offset="0.6" stop-color="#EEE8AA"/>
<stop offset="0.8" stop-color="#2E8B57"/>
<stop offset="1" stop-color="#4682B4"/>
</linearGradient>
<linearGradient id="paint17_linear_16563_161469" x1="478.404" y1="500.091" x2="412.759" y2="12.8362" gradientUnits="userSpaceOnUse">
<stop stop-color="#914CEB"/>
<stop offset="0.2" stop-color="#CD5C5C"/>
<stop offset="0.4" stop-color="#FF8C00"/>
<stop offset="0.6" stop-color="#EEE8AA"/>
<stop offset="0.8" stop-color="#2E8B57"/>
<stop offset="1" stop-color="#4682B4"/>
</linearGradient>
<linearGradient id="paint18_linear_16563_161469" x1="466.651" y1="501.588" x2="434.677" y2="12.5402" gradientUnits="userSpaceOnUse">
<stop stop-color="#914CEB"/>
<stop offset="0.2" stop-color="#CD5C5C"/>
<stop offset="0.4" stop-color="#FF8C00"/>
<stop offset="0.6" stop-color="#EEE8AA"/>
<stop offset="0.8" stop-color="#2E8B57"/>
<stop offset="1" stop-color="#4682B4"/>
</linearGradient>
<linearGradient id="paint19_linear_16563_161469" x1="454.787" y1="502.254" x2="456.284" y2="12.6544" gradientUnits="userSpaceOnUse">
<stop stop-color="#914CEB"/>
<stop offset="0.2" stop-color="#CD5C5C"/>
<stop offset="0.4" stop-color="#FF8C00"/>
<stop offset="0.6" stop-color="#EEE8AA"/>
<stop offset="0.8" stop-color="#2E8B57"/>
<stop offset="1" stop-color="#4682B4"/>
</linearGradient>
<linearGradient id="paint20_linear_16563_161469" x1="442.897" y1="502.123" x2="477.874" y2="13.1839" gradientUnits="userSpaceOnUse">
<stop stop-color="#914CEB"/>
<stop offset="0.2" stop-color="#CD5C5C"/>
<stop offset="0.4" stop-color="#FF8C00"/>
<stop offset="0.6" stop-color="#EEE8AA"/>
<stop offset="0.8" stop-color="#2E8B57"/>
<stop offset="1" stop-color="#4682B4"/>
</linearGradient>
<linearGradient id="paint21_linear_16563_161469" x1="431.062" y1="501.182" x2="499.738" y2="14.1515" gradientUnits="userSpaceOnUse">
<stop stop-color="#914CEB"/>
<stop offset="0.2" stop-color="#CD5C5C"/>
<stop offset="0.4" stop-color="#FF8C00"/>
<stop offset="0.6" stop-color="#EEE8AA"/>
<stop offset="0.8" stop-color="#2E8B57"/>
<stop offset="1" stop-color="#4682B4"/>
</linearGradient>
<linearGradient id="paint22_linear_16563_161469" x1="419.362" y1="499.425" x2="522.155" y2="15.6572" gradientUnits="userSpaceOnUse">
<stop stop-color="#914CEB"/>
<stop offset="0.2" stop-color="#CD5C5C"/>
<stop offset="0.4" stop-color="#FF8C00"/>
<stop offset="0.6" stop-color="#EEE8AA"/>
<stop offset="0.8" stop-color="#2E8B57"/>
<stop offset="1" stop-color="#4682B4"/>
</linearGradient>
<linearGradient id="paint23_linear_16563_161469" x1="407.877" y1="496.901" x2="545.386" y2="17.9251" gradientUnits="userSpaceOnUse">
<stop stop-color="#914CEB"/>
<stop offset="0.2" stop-color="#CD5C5C"/>
<stop offset="0.4" stop-color="#FF8C00"/>
<stop offset="0.6" stop-color="#EEE8AA"/>
<stop offset="0.8" stop-color="#2E8B57"/>
<stop offset="1" stop-color="#4682B4"/>
</linearGradient>
<linearGradient id="paint24_linear_16563_161469" x1="396.688" y1="493.576" x2="569.654" y2="21.1677" gradientUnits="userSpaceOnUse">
<stop stop-color="#914CEB"/>
<stop offset="0.2" stop-color="#CD5C5C"/>
<stop offset="0.4" stop-color="#FF8C00"/>
<stop offset="0.6" stop-color="#EEE8AA"/>
<stop offset="0.8" stop-color="#2E8B57"/>
<stop offset="1" stop-color="#4682B4"/>
</linearGradient>
<linearGradient id="paint25_linear_16563_161469" x1="385.87" y1="489.509" x2="595.134" y2="25.76" gradientUnits="userSpaceOnUse">
<stop stop-color="#914CEB"/>
<stop offset="0.2" stop-color="#CD5C5C"/>
<stop offset="0.4" stop-color="#FF8C00"/>
<stop offset="0.6" stop-color="#EEE8AA"/>
<stop offset="0.8" stop-color="#2E8B57"/>
<stop offset="1" stop-color="#4682B4"/>
</linearGradient>
<linearGradient id="paint26_linear_16563_161469" x1="375.497" y1="484.712" x2="621.927" y2="32.0987" gradientUnits="userSpaceOnUse">
<stop stop-color="#914CEB"/>
<stop offset="0.2" stop-color="#CD5C5C"/>
<stop offset="0.4" stop-color="#FF8C00"/>
<stop offset="0.6" stop-color="#EEE8AA"/>
<stop offset="0.8" stop-color="#2E8B57"/>
<stop offset="1" stop-color="#4682B4"/>
</linearGradient>
<linearGradient id="paint27_linear_16563_161469" x1="365.641" y1="479.237" x2="650.042" y2="40.6835" gradientUnits="userSpaceOnUse">
<stop stop-color="#914CEB"/>
<stop offset="0.2" stop-color="#CD5C5C"/>
<stop offset="0.4" stop-color="#FF8C00"/>
<stop offset="0.6" stop-color="#EEE8AA"/>
<stop offset="0.8" stop-color="#2E8B57"/>
<stop offset="1" stop-color="#4682B4"/>
</linearGradient>
<linearGradient id="paint28_linear_16563_161469" x1="356.37" y1="473.096" x2="679.37" y2="52.0213" gradientUnits="userSpaceOnUse">
<stop stop-color="#914CEB"/>
<stop offset="0.2" stop-color="#CD5C5C"/>
<stop offset="0.4" stop-color="#FF8C00"/>
<stop offset="0.6" stop-color="#EEE8AA"/>
<stop offset="0.8" stop-color="#2E8B57"/>
<stop offset="1" stop-color="#4682B4"/>
</linearGradient>
<linearGradient id="paint29_linear_16563_161469" x1="347.747" y1="466.357" x2="709.652" y2="66.7023" gradientUnits="userSpaceOnUse">
<stop stop-color="#914CEB"/>
<stop offset="0.2" stop-color="#CD5C5C"/>
<stop offset="0.4" stop-color="#FF8C00"/>
<stop offset="0.6" stop-color="#EEE8AA"/>
<stop offset="0.8" stop-color="#2E8B57"/>
<stop offset="1" stop-color="#4682B4"/>
</linearGradient>
<linearGradient id="paint30_linear_16563_161469" x1="339.831" y1="459.035" x2="740.455" y2="85.253" gradientUnits="userSpaceOnUse">
<stop stop-color="#914CEB"/>
<stop offset="0.2" stop-color="#CD5C5C"/>
<stop offset="0.4" stop-color="#FF8C00"/>
<stop offset="0.6" stop-color="#EEE8AA"/>
<stop offset="0.8" stop-color="#2E8B57"/>
<stop offset="1" stop-color="#4682B4"/>
</linearGradient>
<linearGradient id="paint31_linear_16563_161469" x1="332.675" y1="451.209" x2="771.156" y2="108.203" gradientUnits="userSpaceOnUse">
<stop stop-color="#914CEB"/>
<stop offset="0.2" stop-color="#CD5C5C"/>
<stop offset="0.4" stop-color="#FF8C00"/>
<stop offset="0.6" stop-color="#EEE8AA"/>
<stop offset="0.8" stop-color="#2E8B57"/>
<stop offset="1" stop-color="#4682B4"/>
</linearGradient>
<linearGradient id="paint32_linear_16563_161469" x1="326.332" y1="442.918" x2="800.937" y2="135.922" gradientUnits="userSpaceOnUse">
<stop stop-color="#914CEB"/>
<stop offset="0.2" stop-color="#CD5C5C"/>
<stop offset="0.4" stop-color="#FF8C00"/>
<stop offset="0.6" stop-color="#EEE8AA"/>
<stop offset="0.8" stop-color="#2E8B57"/>
<stop offset="1" stop-color="#4682B4"/>
</linearGradient>
<linearGradient id="paint33_linear_16563_161469" x1="320.841" y1="434.223" x2="828.805" y2="168.603" gradientUnits="userSpaceOnUse">
<stop stop-color="#914CEB"/>
<stop offset="0.2" stop-color="#CD5C5C"/>
<stop offset="0.4" stop-color="#FF8C00"/>
<stop offset="0.6" stop-color="#EEE8AA"/>
<stop offset="0.8" stop-color="#2E8B57"/>
<stop offset="1" stop-color="#4682B4"/>
</linearGradient>
<linearGradient id="paint34_linear_16563_161469" x1="316.245" y1="425.193" x2="853.641" y2="206.178" gradientUnits="userSpaceOnUse">
<stop stop-color="#914CEB"/>
<stop offset="0.2" stop-color="#CD5C5C"/>
<stop offset="0.4" stop-color="#FF8C00"/>
<stop offset="0.6" stop-color="#EEE8AA"/>
<stop offset="0.8" stop-color="#2E8B57"/>
<stop offset="1" stop-color="#4682B4"/>
</linearGradient>
<linearGradient id="paint35_linear_16563_161469" x1="312.57" y1="415.862" x2="874.284" y2="248.221" gradientUnits="userSpaceOnUse">
<stop stop-color="#914CEB"/>
<stop offset="0.2" stop-color="#CD5C5C"/>
<stop offset="0.4" stop-color="#FF8C00"/>
<stop offset="0.6" stop-color="#EEE8AA"/>
<stop offset="0.8" stop-color="#2E8B57"/>
<stop offset="1" stop-color="#4682B4"/>
</linearGradient>
<linearGradient id="paint36_linear_16563_161469" x1="309.844" y1="406.33" x2="889.649" y2="294.016" gradientUnits="userSpaceOnUse">
<stop stop-color="#914CEB"/>
<stop offset="0.2" stop-color="#CD5C5C"/>
<stop offset="0.4" stop-color="#FF8C00"/>
<stop offset="0.6" stop-color="#EEE8AA"/>
<stop offset="0.8" stop-color="#2E8B57"/>
<stop offset="1" stop-color="#4682B4"/>
</linearGradient>
<linearGradient id="paint37_linear_16563_161469" x1="308.086" y1="396.64" x2="898.85" y2="342.456" gradientUnits="userSpaceOnUse">
<stop stop-color="#914CEB"/>
<stop offset="0.2" stop-color="#CD5C5C"/>
<stop offset="0.4" stop-color="#FF8C00"/>
<stop offset="0.6" stop-color="#EEE8AA"/>
<stop offset="0.8" stop-color="#2E8B57"/>
<stop offset="1" stop-color="#4682B4"/>
</linearGradient>
<linearGradient id="paint38_linear_16563_161469" x1="307.307" y1="386.865" x2="901.314" y2="392.212" gradientUnits="userSpaceOnUse">
<stop stop-color="#914CEB"/>
<stop offset="0.2" stop-color="#CD5C5C"/>
<stop offset="0.4" stop-color="#FF8C00"/>
<stop offset="0.6" stop-color="#EEE8AA"/>
<stop offset="0.8" stop-color="#2E8B57"/>
<stop offset="1" stop-color="#4682B4"/>
</linearGradient>
<linearGradient id="paint39_linear_16563_161469" x1="307.513" y1="377.067" x2="896.87" y2="441.805" gradientUnits="userSpaceOnUse">
<stop stop-color="#914CEB"/>
<stop offset="0.2" stop-color="#CD5C5C"/>
<stop offset="0.4" stop-color="#FF8C00"/>
<stop offset="0.6" stop-color="#EEE8AA"/>
<stop offset="0.8" stop-color="#2E8B57"/>
<stop offset="1" stop-color="#4682B4"/>
</linearGradient>
<linearGradient id="paint40_linear_16563_161469" x1="308.703" y1="367.318" x2="885.771" y2="489.782" gradientUnits="userSpaceOnUse">
<stop stop-color="#914CEB"/>
<stop offset="0.2" stop-color="#CD5C5C"/>
<stop offset="0.4" stop-color="#FF8C00"/>
<stop offset="0.6" stop-color="#EEE8AA"/>
<stop offset="0.8" stop-color="#2E8B57"/>
<stop offset="1" stop-color="#4682B4"/>
</linearGradient>
<linearGradient id="paint41_linear_16563_161469" x1="310.867" y1="357.674" x2="868.655" y2="534.832" gradientUnits="userSpaceOnUse">
<stop stop-color="#914CEB"/>
<stop offset="0.2" stop-color="#CD5C5C"/>
<stop offset="0.4" stop-color="#FF8C00"/>
<stop offset="0.6" stop-color="#EEE8AA"/>
<stop offset="0.8" stop-color="#2E8B57"/>
<stop offset="1" stop-color="#4682B4"/>
</linearGradient>
<linearGradient id="paint42_linear_16563_161469" x1="313.992" y1="348.218" x2="846.46" y2="575.946" gradientUnits="userSpaceOnUse">
<stop stop-color="#914CEB"/>
<stop offset="0.2" stop-color="#CD5C5C"/>
<stop offset="0.4" stop-color="#FF8C00"/>
<stop offset="0.6" stop-color="#EEE8AA"/>
<stop offset="0.8" stop-color="#2E8B57"/>
<stop offset="1" stop-color="#4682B4"/>
</linearGradient>
<linearGradient id="paint43_linear_16563_161469" x1="318.055" y1="339.013" x2="820.3" y2="612.435" gradientUnits="userSpaceOnUse">
<stop stop-color="#914CEB"/>
<stop offset="0.2" stop-color="#CD5C5C"/>
<stop offset="0.4" stop-color="#FF8C00"/>
<stop offset="0.6" stop-color="#EEE8AA"/>
<stop offset="0.8" stop-color="#2E8B57"/>
<stop offset="1" stop-color="#4682B4"/>
</linearGradient>
<linearGradient id="paint44_linear_16563_161469" x1="323.03" y1="330.109" x2="791.34" y2="643.947" gradientUnits="userSpaceOnUse">
<stop stop-color="#914CEB"/>
<stop offset="0.2" stop-color="#CD5C5C"/>
<stop offset="0.4" stop-color="#FF8C00"/>
<stop offset="0.6" stop-color="#EEE8AA"/>
<stop offset="0.8" stop-color="#2E8B57"/>
<stop offset="1" stop-color="#4682B4"/>
</linearGradient>
<linearGradient id="paint45_linear_16563_161469" x1="328.882" y1="321.574" x2="760.685" y2="670.468" gradientUnits="userSpaceOnUse">
<stop stop-color="#914CEB"/>
<stop offset="0.2" stop-color="#CD5C5C"/>
<stop offset="0.4" stop-color="#FF8C00"/>
<stop offset="0.6" stop-color="#EEE8AA"/>
<stop offset="0.8" stop-color="#2E8B57"/>
<stop offset="1" stop-color="#4682B4"/>
</linearGradient>
<linearGradient id="paint46_linear_16563_161469" x1="335.572" y1="313.468" x2="729.305" y2="692.231" gradientUnits="userSpaceOnUse">
<stop stop-color="#914CEB"/>
<stop offset="0.2" stop-color="#CD5C5C"/>
<stop offset="0.4" stop-color="#FF8C00"/>
<stop offset="0.6" stop-color="#EEE8AA"/>
<stop offset="0.8" stop-color="#2E8B57"/>
<stop offset="1" stop-color="#4682B4"/>
</linearGradient>
<linearGradient id="paint47_linear_16563_161469" x1="343.049" y1="305.858" x2="697.986" y2="709.661" gradientUnits="userSpaceOnUse">
<stop stop-color="#914CEB"/>
<stop offset="0.2" stop-color="#CD5C5C"/>
<stop offset="0.4" stop-color="#FF8C00"/>
<stop offset="0.6" stop-color="#EEE8AA"/>
<stop offset="0.8" stop-color="#2E8B57"/>
<stop offset="1" stop-color="#4682B4"/>
</linearGradient>
<linearGradient id="paint48_linear_16563_161469" x1="351.269" y1="298.773" x2="667.325" y2="723.252" gradientUnits="userSpaceOnUse">
<stop stop-color="#914CEB"/>
<stop offset="0.2" stop-color="#CD5C5C"/>
<stop offset="0.4" stop-color="#FF8C00"/>
<stop offset="0.6" stop-color="#EEE8AA"/>
<stop offset="0.8" stop-color="#2E8B57"/>
<stop offset="1" stop-color="#4682B4"/>
</linearGradient>
<linearGradient id="paint49_linear_16563_161469" x1="360.171" y1="292.278" x2="637.721" y2="733.586" gradientUnits="userSpaceOnUse">
<stop stop-color="#914CEB"/>
<stop offset="0.2" stop-color="#CD5C5C"/>
<stop offset="0.4" stop-color="#FF8C00"/>
<stop offset="0.6" stop-color="#EEE8AA"/>
<stop offset="0.8" stop-color="#2E8B57"/>
<stop offset="1" stop-color="#4682B4"/>
</linearGradient>
<linearGradient id="paint50_linear_16563_161469" x1="369.695" y1="286.407" x2="609.408" y2="741.216" gradientUnits="userSpaceOnUse">
<stop stop-color="#914CEB"/>
<stop offset="0.2" stop-color="#CD5C5C"/>
<stop offset="0.4" stop-color="#FF8C00"/>
<stop offset="0.6" stop-color="#EEE8AA"/>
<stop offset="0.8" stop-color="#2E8B57"/>
<stop offset="1" stop-color="#4682B4"/>
</linearGradient>
<linearGradient id="paint51_linear_16563_161469" x1="379.775" y1="281.213" x2="582.476" y2="746.683" gradientUnits="userSpaceOnUse">
<stop stop-color="#914CEB"/>
<stop offset="0.2" stop-color="#CD5C5C"/>
<stop offset="0.4" stop-color="#FF8C00"/>
<stop offset="0.6" stop-color="#EEE8AA"/>
<stop offset="0.8" stop-color="#2E8B57"/>
<stop offset="1" stop-color="#4682B4"/>
</linearGradient>
<linearGradient id="paint52_linear_16563_161469" x1="390.342" y1="276.722" x2="556.9" y2="750.451" gradientUnits="userSpaceOnUse">
<stop stop-color="#914CEB"/>
<stop offset="0.2" stop-color="#CD5C5C"/>
<stop offset="0.4" stop-color="#FF8C00"/>
<stop offset="0.6" stop-color="#EEE8AA"/>
<stop offset="0.8" stop-color="#2E8B57"/>
<stop offset="1" stop-color="#4682B4"/>
</linearGradient>
<linearGradient id="paint53_linear_16563_161469" x1="401.324" y1="272.963" x2="532.566" y2="752.92" gradientUnits="userSpaceOnUse">
<stop stop-color="#914CEB"/>
<stop offset="0.2" stop-color="#CD5C5C"/>
<stop offset="0.4" stop-color="#FF8C00"/>
<stop offset="0.6" stop-color="#EEE8AA"/>
<stop offset="0.8" stop-color="#2E8B57"/>
<stop offset="1" stop-color="#4682B4"/>
</linearGradient>
<linearGradient id="paint54_linear_16563_161469" x1="412.646" y1="269.97" x2="509.291" y2="754.429" gradientUnits="userSpaceOnUse">
<stop stop-color="#914CEB"/>
<stop offset="0.2" stop-color="#CD5C5C"/>
<stop offset="0.4" stop-color="#FF8C00"/>
<stop offset="0.6" stop-color="#EEE8AA"/>
<stop offset="0.8" stop-color="#2E8B57"/>
<stop offset="1" stop-color="#4682B4"/>
</linearGradient>
<linearGradient id="paint55_linear_16563_161469" x1="471.576" y1="266.97" x2="399.866" y2="753.767" gradientUnits="userSpaceOnUse">
<stop stop-color="#914CEB"/>
<stop offset="0.2" stop-color="#CD5C5C"/>
<stop offset="0.4" stop-color="#FF8C00"/>
<stop offset="0.6" stop-color="#EEE8AA"/>
<stop offset="0.8" stop-color="#2E8B57"/>
<stop offset="1" stop-color="#4682B4"/>
</linearGradient>
<linearGradient id="paint56_linear_16563_161469" x1="483.26" y1="268.786" x2="377.386" y2="752.19" gradientUnits="userSpaceOnUse">
<stop stop-color="#914CEB"/>
<stop offset="0.2" stop-color="#CD5C5C"/>
<stop offset="0.4" stop-color="#FF8C00"/>
<stop offset="0.6" stop-color="#EEE8AA"/>
<stop offset="0.8" stop-color="#2E8B57"/>
<stop offset="1" stop-color="#4682B4"/>
</linearGradient>
<linearGradient id="paint57_linear_16563_161469" x1="494.72" y1="271.399" x2="354.069" y2="749.863" gradientUnits="userSpaceOnUse">
<stop stop-color="#914CEB"/>
<stop offset="0.2" stop-color="#CD5C5C"/>
<stop offset="0.4" stop-color="#FF8C00"/>
<stop offset="0.6" stop-color="#EEE8AA"/>
<stop offset="0.8" stop-color="#2E8B57"/>
<stop offset="1" stop-color="#4682B4"/>
</linearGradient>
<linearGradient id="paint58_linear_16563_161469" x1="505.879" y1="274.775" x2="329.698" y2="746.499" gradientUnits="userSpaceOnUse">
<stop stop-color="#914CEB"/>
<stop offset="0.2" stop-color="#CD5C5C"/>
<stop offset="0.4" stop-color="#FF8C00"/>
<stop offset="0.6" stop-color="#EEE8AA"/>
<stop offset="0.8" stop-color="#2E8B57"/>
<stop offset="1" stop-color="#4682B4"/>
</linearGradient>
</defs>
</svg>
