<svg width="1728" height="740" viewBox="0 0 1728 740" fill="none" xmlns="http://www.w3.org/2000/svg">
<path opacity="0.2" d="M778.994 -603.112C420.779 -493.373 964.544 -794.15 416.806 -788.027C402.255 -787.864 386.774 -785.838 372.651 -782.332L127.073 -721.374C43.1539 -700.544 -17.8766 -628.143 -24.2076 -541.909L-44.5739 -264.503C-45.3841 -253.467 -45.2771 -242.384 -44.2541 -231.367L-23.2105 -4.7428C-17.1834 60.1641 20.0974 118.061 76.6924 150.407L405.682 338.433C468.764 374.486 546.436 373.491 608.575 335.836L996.886 100.519C1064.31 59.6633 1101.44 -16.9857 1091.7 -95.2156L1049.33 -435.817C1033.41 -563.817 902.323 -640.894 778.994 -603.112Z" stroke="url(#paint0_linear_16563_161712)"/>
<path opacity="0.2" d="M814.109 -605.768C447.993 -525.625 1015.11 -781.042 468.767 -819.569C454.248 -820.593 438.645 -819.835 424.271 -817.491L174.426 -776.755C89.037 -762.832 22.1265 -695.661 8.56775 -610.251L-35.0595 -335.43C-36.7942 -324.502 -37.6193 -313.452 -37.5263 -302.392L-35.6112 -74.8054C-35.0629 -9.64241 -2.78033 51.0842 50.8992 87.9291L362.926 302.1C422.774 343.179 500.288 348.519 565.395 316.047L972.144 113.187C1042.76 77.9669 1086.21 4.62275 1083.09 -74.1145L1069.5 -417.033C1064.39 -545.885 940.211 -633.372 814.109 -605.768Z" stroke="url(#paint1_linear_16563_161712)"/>
<path opacity="0.2" d="M849.233 -605.54C477.932 -555.576 1064.34 -763.859 523.218 -846.761C508.821 -848.967 493.194 -849.483 478.659 -848.317L226.29 -828.082C140.007 -821.163 67.6764 -759.7 46.9906 -675.722L-19.6151 -405.322C-22.2603 -394.584 -24.01 -383.649 -24.8465 -372.631L-42.0812 -145.592C-47.0115 -80.6444 -19.9492 -17.5244 30.444 23.5647L323.326 262.372C379.555 308.219 456.426 319.867 524.087 292.794L946.443 123.794C1019.77 94.4539 1069.21 24.9492 1072.72 -53.7208L1088.02 -396.667C1093.76 -525.476 977.282 -622.771 849.233 -605.54Z" stroke="url(#paint2_linear_16563_161712)"/>
<path opacity="0.2" d="M884.125 -602.454C510.392 -582.995 1111.9 -742.736 579.781 -869.416C565.597 -872.792 550.045 -874.582 535.44 -874.605L282.308 -875.002C195.713 -875.137 118.462 -819.82 90.8045 -737.871L1.64879 -473.705C-1.88469 -463.235 -4.54373 -452.498 -6.30105 -441.602L-42.5881 -216.623C-52.9534 -152.358 -31.2923 -87.2964 15.4668 -42.2481L287.165 219.51C339.406 269.84 415.15 287.739 484.935 266.247L919.959 132.269C995.475 109.012 1050.56 43.8495 1060.66 -34.1816L1104.76 -374.862C1121.32 -502.733 1013.28 -609.179 884.125 -602.454Z" stroke="url(#paint3_linear_16563_161712)"/>
<path opacity="0.2" d="M918.552 -596.548C545.147 -607.661 1157.48 -717.822 638.066 -887.368C624.186 -891.898 608.807 -894.955 594.226 -896.17L342.094 -917.182C255.771 -924.376 174.14 -875.6 139.718 -796.258L28.5847 -540.102C24.1924 -529.978 20.6473 -519.517 17.9855 -508.825L-37.1366 -287.408C-52.8508 -224.287 -36.7308 -157.747 6.07233 -109.052L254.706 173.807C302.611 228.307 376.744 252.368 448.207 236.611L892.874 138.567C970.054 121.55 1030.37 61.1973 1046.97 -15.6316L1119.62 -351.761C1146.86 -477.808 1047.95 -592.697 918.552 -596.548Z" stroke="url(#paint4_linear_16563_161712)"/>
<path opacity="0.2" d="M952.291 -587.91C581.95 -629.406 1200.77 -689.327 697.67 -900.519C684.185 -906.18 669.079 -910.489 654.614 -912.894L405.235 -954.358C319.768 -968.568 234.329 -926.68 193.399 -850.501L61.0054 -604.089C55.7907 -594.383 51.3897 -584.273 47.8474 -573.863L-25.7723 -357.497C-46.7083 -295.967 -36.227 -228.42 2.3262 -176.415L226.185 125.548C269.428 183.878 341.468 213.975 414.151 204.076L865.372 142.623C943.677 131.958 1008.78 76.8418 1031.74 1.76408L1132.48 -327.548C1170.22 -450.898 1081.08 -573.479 952.291 -587.91Z" stroke="url(#paint5_linear_16563_161712)"/>
<path opacity="0.2" d="M985.128 -576.604C620.533 -648.049 1241.49 -657.441 758.183 -908.767C745.181 -915.528 730.447 -921.069 716.193 -924.655L471.296 -986.26C387.265 -1007.4 298.619 -972.695 251.486 -900.208L98.6886 -665.217C92.6942 -655.998 87.4745 -646.312 83.0824 -636.257L-8.57712 -426.406C-34.5687 -366.9 -29.7821 -298.82 4.25714 -243.866L201.816 75.0742C240.093 136.869 309.563 172.841 382.993 168.89L837.639 144.422C916.523 140.177 985.927 90.6801 1015.07 17.8835L1143.27 -302.379C1191.22 -422.18 1112.44 -551.657 985.128 -576.604Z" stroke="url(#paint6_linear_16563_161712)"/>
<path opacity="0.2" d="M1016.86 -562.675C660.608 -663.398 1279.36 -622.345 819.181 -912.008C806.752 -919.832 792.489 -926.576 778.541 -931.326L539.815 -1012.62C457.794 -1040.55 366.565 -1013.28 313.576 -944.981L141.372 -723.025C134.646 -714.356 128.65 -705.16 123.446 -695.53L14.3246 -493.628C-16.5202 -436.557 -17.4429 -368.417 11.8502 -310.896L181.777 22.7828C214.81 87.6486 281.239 129.299 354.933 131.349L809.858 144.004C888.775 146.199 961.972 102.656 997.053 32.6462L1151.9 -276.378C1209.74 -391.807 1141.82 -527.344 1016.86 -562.675Z" stroke="url(#paint7_linear_16563_161712)"/>
<path opacity="0.2" d="M1047.28 -546.274C701.881 -675.386 1314.14 -584.328 880.248 -910.272C868.478 -919.114 854.784 -927.024 841.236 -932.914L610.324 -1033.31C530.875 -1067.86 437.706 -1048.2 379.248 -984.553L188.768 -777.169C181.363 -769.107 174.64 -760.464 168.665 -751.325L42.7799 -558.76C7.31787 -504.514 0.7114 -436.785 25.0596 -377.092L166.224 -31.0099C193.764 36.509 256.689 83.5994 330.153 91.6685L782.22 141.322C860.623 149.933 937.081 112.63 977.825 45.8859L1158.32 -249.776C1225.63 -360.041 1169.04 -500.761 1047.28 -546.274Z" stroke="url(#paint8_linear_16563_161712)"/>
<path opacity="0.2" d="M1076.22 -527.524C744.035 -683.935 1345.62 -543.662 940.956 -903.58C929.929 -913.389 916.9 -922.419 903.848 -929.418L682.329 -1048.2C605.998 -1089.13 511.547 -1077.22 448.042 -1018.65L240.546 -827.29C232.52 -819.888 225.122 -811.852 218.425 -803.264L76.591 -621.376C36.7781 -570.32 24.552 -503.463 43.791 -442.011L155.269 -85.9339C177.1 -16.2044 236.069 36.0489 308.806 50.1154L754.904 136.386C832.255 151.345 911.42 120.517 957.517 57.4863L1162.48 -222.763C1238.79 -327.111 1193.93 -472.105 1076.22 -527.524Z" stroke="url(#paint9_linear_16563_161712)"/>
<path opacity="0.2" d="M1103.51 -506.519C786.761 -688.956 1373.58 -500.588 1000.89 -891.951C990.688 -902.666 978.419 -912.763 965.955 -920.831L755.338 -1057.16C682.654 -1104.21 587.584 -1100.11 519.484 -1047.01L296.359 -873.015C287.772 -866.318 279.755 -858.942 272.387 -850.96L115.535 -681.025C71.665 -633.496 53.921 -567.962 67.9219 -505.174L149.001 -141.568C164.939 -70.0928 219.52 -12.9954 291.025 7.00561L728.098 129.261C803.866 150.454 885.173 126.288 936.277 67.3844L1164.35 -195.494C1249.13 -293.216 1216.32 -441.539 1103.51 -506.519Z" stroke="url(#paint10_linear_16563_161712)"/>
<path opacity="0.2" d="M1128.96 -483.39C829.734 -690.421 1397.84 -455.392 1059.64 -875.465C1050.33 -887.018 1038.92 -898.119 1027.13 -907.208L828.842 -1060.12C760.311 -1112.97 665.287 -1116.72 593.074 -1069.42L355.823 -914.031C346.737 -908.079 338.16 -901.408 330.177 -894.082L159.35 -737.305C111.739 -693.61 88.6146 -629.838 97.2848 -566.145L147.465 -197.513C157.367 -124.779 207.144 -63.1979 276.917 -37.3674L701.977 119.995C775.646 147.268 858.523 129.897 914.26 75.5018L1163.93 -168.155C1256.59 -258.587 1236.09 -409.267 1128.96 -483.39Z" stroke="url(#paint11_linear_16563_161712)"/>
<path opacity="0.2" d="M1152.43 -458.303C872.634 -688.356 1418.25 -408.396 1116.78 -854.261C1108.46 -866.577 1097.97 -878.612 1086.96 -888.664L902.333 -1057.09C838.434 -1115.38 744.119 -1126.93 668.295 -1085.75L418.53 -950.08C409.01 -944.909 399.935 -938.981 391.395 -932.355L207.74 -789.856C156.728 -750.275 128.393 -688.687 131.676 -624.527L150.671 -253.394C154.432 -179.902 199.02 -114.24 266.561 -82.7287L676.714 108.626C747.784 141.784 831.655 131.296 891.626 81.7515L1161.2 -140.956C1261.1 -223.487 1253.1 -375.526 1152.43 -458.303Z" stroke="url(#paint12_linear_16563_161712)"/>
<path opacity="0.2" d="M1173.76 -431.395C915.15 -682.779 1434.67 -359.895 1171.94 -828.474C1164.66 -841.469 1155.19 -854.358 1145.02 -865.308L975.309 -1048.08C916.49 -1111.43 823.537 -1130.68 744.625 -1095.86L484.056 -980.902C474.168 -976.539 464.658 -971.388 455.621 -965.501L260.387 -838.307C206.329 -803.089 172.986 -744.091 170.864 -679.902L158.595 -308.796C156.157 -235.064 195.201 -165.76 260.02 -128.763L652.481 95.2443C720.473 134.052 804.765 130.484 868.549 86.0992L1156.2 -114.069C1262.65 -188.145 1267.25 -340.522 1173.76 -431.395Z" stroke="url(#paint13_linear_16563_161712)"/>
<path opacity="0.2" d="M1192.83 -402.815C956.974 -673.739 1447 -310.194 1224.74 -798.27C1218.55 -811.856 1210.18 -825.51 1200.94 -837.285L1047.26 -1033.15C993.942 -1101.11 902.991 -1127.92 821.528 -1099.69L551.953 -1006.27C541.763 -1002.74 531.883 -998.394 522.41 -993.278L316.938 -882.314C260.205 -851.675 222.086 -795.653 214.576 -731.875L171.175 -363.31C162.526 -289.864 195.706 -217.399 257.329 -175.154L629.442 79.9495C693.897 124.137 778.042 127.482 845.2 88.5265L1148.95 -87.6659C1261.22 -152.788 1278.45 -304.468 1192.83 -402.815Z" stroke="url(#paint14_linear_16563_161712)"/>
<path opacity="0.2" d="M1209.5 -372.753C997.808 -661.342 1455.14 -259.637 1274.8 -763.878C1269.77 -777.958 1262.55 -792.282 1254.32 -804.8L1117.71 -1012.41C1070.26 -1084.52 981.93 -1118.68 898.465 -1097.21L621.756 -1026.03C611.33 -1023.35 601.146 -1019.83 591.301 -1015.51L377.014 -921.59C317.989 -895.719 275.355 -843.039 262.51 -780.106L188.312 -416.57C173.488 -343.939 200.53 -268.826 258.498 -221.615L607.75 62.8245C668.236 112.086 751.675 122.292 821.754 89.0014L1139.51 -61.9455C1256.83 -117.678 1286.62 -267.618 1209.5 -372.753Z" stroke="url(#paint15_linear_16563_161712)"/>
<path opacity="0.2" d="M1223.65 -341.393C1037.37 -645.701 1459.03 -208.559 1321.8 -725.539C1317.95 -740.01 1311.96 -754.902 1304.79 -768.074L1186.15 -986.014C1144.91 -1061.78 1059.81 -1103.04 974.902 -1088.46L692.988 -1040.04C682.395 -1038.22 671.972 -1035.55 661.82 -1032.06L440.213 -955.863C379.289 -934.916 332.426 -885.921 314.337 -824.262L209.877 -468.199C188.964 -396.914 209.639 -319.695 263.521 -267.843L587.557 43.9804C643.668 97.9776 725.852 114.951 798.386 87.5245L1127.94 -37.0859C1249.51 -83.0549 1291.71 -230.209 1223.65 -341.393Z" stroke="url(#paint16_linear_16563_161712)"/>
<path opacity="0.2" d="M1235.18 -308.936C1075.4 -626.961 1458.65 -157.306 1365.4 -683.525C1362.79 -698.282 1358.05 -713.634 1352.01 -727.365L1252.13 -954.157C1217.39 -1033.04 1136.09 -1081.12 1050.31 -1073.51L765.166 -1048.21C754.472 -1047.26 743.877 -1045.46 733.482 -1042.81L506.11 -984.901C443.69 -969.004 392.91 -924.015 369.701 -864.049L235.708 -517.848C208.842 -448.432 222.973 -369.674 272.366 -313.547L569.002 23.5328C620.364 81.8984 700.757 105.507 775.272 84.1063L1114.31 -13.2659C1239.31 -49.1644 1293.68 -192.494 1235.18 -308.936Z" stroke="url(#paint17_linear_16563_161712)"/>
<path opacity="0.2" d="M1243.99 -275.535C1111.65 -605.222 1453.98 -106.17 1405.32 -638.078C1403.95 -653.011 1400.52 -668.709 1395.65 -682.898L1315.2 -917.008C1287.21 -998.469 1210.25 -1053.01 1124.16 -1052.42L837.79 -1050.44C827.063 -1050.37 816.362 -1049.43 805.79 -1047.64L574.257 -1008.45C510.749 -997.694 456.385 -957.007 428.216 -899.143L265.608 -565.121C232.974 -498.087 240.441 -418.375 284.974 -358.376L552.211 1.66837C598.481 64.0069 676.565 94.0786 752.575 78.8326L1098.73 9.4018C1226.3 -16.186 1292.5 -154.669 1243.99 -275.535Z" stroke="url(#paint18_linear_16563_161712)"/>
<path opacity="0.2" d="M1249.99 -241.503C1145.87 -580.754 1445.04 -55.5928 1441.27 -589.608C1441.16 -604.605 1439.07 -620.532 1435.4 -635.075L1374.92 -874.922C1353.87 -958.39 1281.78 -1019.02 1195.93 -1025.44L910.361 -1046.8C899.669 -1047.6 888.929 -1047.54 878.246 -1046.62L644.188 -1026.42C580.004 -1020.88 522.414 -984.769 489.477 -929.4L299.353 -609.797C261.186 -545.638 261.924 -465.567 301.268 -402.132L537.302 -21.5656C578.169 44.3251 653.441 80.6527 730.457 71.6541L1081.29 30.6626C1210.57 15.5574 1288.18 -117.079 1249.99 -241.503Z" stroke="url(#paint19_linear_16563_161712)"/>
<path opacity="0.2" d="M1253.15 -206.968C1177.87 -553.646 1431.88 -5.82359 1473.03 -538.352C1474.18 -553.302 1473.43 -569.34 1471 -584.126L1430.89 -828.095C1416.94 -912.985 1350.18 -979.28 1265.16 -992.676L982.389 -1037.23C971.797 -1038.9 961.085 -1039.71 950.357 -1039.67L715.432 -1038.61C650.989 -1038.32 590.55 -1007.02 553.069 -954.519L336.704 -651.478C293.284 -590.665 287.289 -510.837 321.155 -444.431L524.388 -45.9174C559.576 23.0819 631.553 65.4232 709.08 62.73L1062.12 50.4658C1192.23 45.9459 1280.74 -79.8821 1253.15 -206.968Z" stroke="url(#paint20_linear_16563_161712)"/>
<path opacity="0.2" d="M1253.39 -172.198C1207.45 -524.129 1414.57 42.7614 1500.37 -484.698C1502.77 -499.488 1503.37 -515.517 1502.2 -530.437L1482.74 -776.883C1475.97 -862.601 1414.99 -934.106 1331.35 -954.392L1053.38 -1021.82C1042.95 -1024.34 1032.33 -1026.03 1021.63 -1026.86L787.497 -1044.94C723.214 -1049.9 660.321 -1023.63 618.55 -974.363L377.388 -689.924C329.039 -632.899 316.365 -553.91 344.51 -485.022L513.56 -71.2568C542.831 0.387359 611.049 48.4666 688.588 52.102L1041.35 68.641C1171.41 74.7388 1270.21 -43.3618 1253.39 -172.198Z" stroke="url(#paint21_linear_16563_161712)"/>
<path opacity="0.2" d="M1250.7 -137.464C1234.43 -492.438 1393.22 89.7945 1523.11 -429.041C1526.74 -443.562 1528.69 -459.463 1528.77 -474.405L1530.1 -721.666C1530.56 -807.614 1475.76 -883.843 1394.06 -910.893L1122.83 -1000.69C1112.64 -1004.07 1102.18 -1006.62 1091.56 -1008.32L859.882 -1045.39C796.179 -1055.59 731.245 -1034.53 685.468 -988.827L421.114 -724.914C368.199 -672.086 348.957 -594.522 371.187 -523.659L504.895 -97.4403C528.049 -23.6333 592.064 29.8759 669.114 39.8273L1019.12 85.033C1148.25 101.711 1256.65 -7.79835 1250.7 -137.464Z" stroke="url(#paint22_linear_16563_161712)"/>
<path opacity="0.2" d="M1245.08 -102.925C1258.66 -458.7 1367.96 135.032 1541.09 -371.676C1545.93 -385.82 1549.19 -401.477 1550.53 -416.331L1572.66 -662.736C1580.34 -748.314 1532.08 -828.752 1452.86 -862.396L1190.28 -973.92C1180.38 -978.123 1170.15 -981.523 1159.69 -984.087L932.089 -1039.87C869.384 -1055.24 802.837 -1039.55 753.365 -997.728L467.579 -756.134C410.494 -707.877 384.851 -632.307 401.021 -559.989L498.46 -124.202C515.336 -48.7282 574.729 9.87076 650.789 26.0897L995.593 99.6153C1122.91 126.765 1240.13 26.6482 1245.08 -102.925Z" stroke="url(#paint23_linear_16563_161712)"/>
<path opacity="0.2" d="M1236.54 -68.9512C1279.99 -423.255 1338.96 178.034 1554.21 -313.11C1560.19 -326.777 1564.76 -342.076 1567.33 -356.733L1610.12 -600.612C1624.97 -685.226 1583.57 -769.332 1507.37 -809.361L1255.25 -941.798C1245.72 -946.806 1235.78 -951.039 1225.55 -954.455L1003.62 -1028.53C942.323 -1048.99 874.606 -1038.78 821.775 -1001.12L516.46 -783.507C455.633 -740.152 423.808 -667.122 433.822 -593.876L494.306 -151.474C504.782 -74.843 559.158 -11.5251 633.727 10.8758L970.917 112.169C1095.56 149.612 1220.77 59.6169 1236.54 -68.9512Z" stroke="url(#paint24_linear_16563_161712)"/>
<path opacity="0.2" d="M1225.12 -35.7083C1298.31 -386.245 1306.41 218.578 1562.36 -253.66C1569.45 -266.752 1575.27 -281.584 1579.06 -295.94L1642.25 -535.635C1664.14 -618.696 1629.88 -705.909 1557.21 -752.069L1317.3 -904.461C1308.19 -910.247 1298.62 -915.29 1288.68 -919.541L1073.96 -1011.35C1014.49 -1036.77 946.06 -1032.14 890.229 -998.911L567.425 -806.776C503.308 -768.613 465.567 -698.64 469.379 -624.994L492.465 -178.982C496.464 -101.713 545.453 -34.0773 618.034 -5.61794L945.269 122.692C1066.38 170.181 1198.67 90.9568 1225.12 -35.7083Z" stroke="url(#paint25_linear_16563_161712)"/>
<path opacity="0.2" d="M1210.89 -3.48444C1313.5 -347.941 1270.52 256.332 1565.49 -193.767C1573.63 -206.195 1580.66 -220.456 1585.62 -234.409L1668.8 -468.285C1697.59 -549.221 1670.69 -638.956 1602.05 -690.956L1376 -862.204C1367.38 -868.735 1358.24 -874.56 1348.65 -879.624L1142.63 -988.483C1085.39 -1018.73 1016.71 -1019.72 958.255 -991.143L620.127 -825.834C553.191 -793.11 509.844 -726.677 507.456 -653.157L492.951 -206.573C490.437 -129.189 533.699 -57.6672 603.801 -23.3117L918.822 131.073C1035.58 188.293 1173.99 120.402 1210.89 -3.48444Z" stroke="url(#paint26_linear_16563_161712)"/>
<path opacity="0.2" d="M1193.95 27.5223C1325.47 -308.536 1231.55 291.07 1563.58 -133.794C1572.71 -145.474 1580.88 -159.067 1586.98 -172.521L1689.62 -398.973C1725.08 -477.228 1705.73 -568.888 1641.6 -626.392L1430.95 -815.272C1422.88 -822.509 1414.22 -829.084 1405.06 -834.933L1209.15 -960.046C1154.53 -994.927 1086.06 -1001.55 1025.39 -977.829L674.215 -840.519C604.947 -813.435 556.34 -750.988 547.801 -678.111L495.765 -234.007C486.746 -157.035 523.972 -82.0862 591.112 -42.0368L891.758 137.3C1003.36 203.87 1146.88 147.785 1193.95 27.5223Z" stroke="url(#paint27_linear_16563_161712)"/>
<path opacity="0.2" d="M1174.41 57.0137C1334.15 -268.334 1189.76 322.477 1556.65 -74.2107C1566.69 -85.0663 1575.94 -97.9 1583.12 -110.765L1704.54 -328.234C1746.43 -403.272 1734.76 -496.244 1675.59 -558.879L1481.76 -764.048C1474.3 -771.948 1466.19 -779.234 1457.52 -785.835L1273.05 -926.296C1221.43 -965.595 1153.65 -977.829 1091.17 -959.125L729.33 -850.801C658.226 -829.515 604.738 -771.461 590.141 -699.73L500.891 -261.15C485.418 -185.119 516.332 -107.23 580.04 -61.7289L864.265 141.269C969.937 216.741 1117.54 172.841 1174.41 57.0137Z" stroke="url(#paint28_linear_16563_161712)"/>
<path opacity="0.2" d="M1152.41 84.8271C1339.48 -227.52 1145.45 350.387 1544.73 -15.3595C1555.61 -25.3225 1565.87 -37.3146 1574.08 -49.5056L1713.47 -256.486C1761.49 -327.798 1757.59 -421.459 1703.8 -488.812L1528.08 -708.824C1521.28 -717.338 1513.79 -725.291 1505.67 -732.603L1333.87 -887.406C1285.63 -930.873 1219.02 -948.65 1155.16 -935.096L785.109 -856.555C712.668 -841.18 654.705 -787.886 634.184 -717.789L508.291 -287.749C486.461 -213.181 510.825 -132.865 570.646 -82.1956L836.531 143.014C935.546 226.881 1086.15 195.446 1152.41 84.8271Z" stroke="url(#paint29_linear_16563_161712)"/>
<path opacity="0.2" d="M1128.11 110.677C1341.4 -186.422 1098.93 374.526 1527.92 42.2842C1539.55 33.2747 1550.74 22.1998 1559.92 10.7606L1716.34 -184.292C1770.15 -251.394 1774.07 -345.115 1726.04 -416.737L1569.6 -650.053C1563.52 -659.126 1556.69 -667.696 1549.19 -675.675L1391.21 -843.722C1346.69 -891.076 1281.7 -914.288 1216.9 -905.981L841.184 -857.818C767.907 -848.425 705.895 -800.217 679.624 -732.223L517.914 -313.69C489.868 -241.101 507.484 -158.893 562.983 -103.38L808.748 142.451C900.418 234.145 1052.96 215.358 1128.11 110.677Z" stroke="url(#paint30_linear_16563_161712)"/>
<path opacity="0.2" d="M1101.7 134.436C1339.89 -145.235 1050.53 394.785 1506.3 98.3919C1518.61 90.3892 1530.66 80.2991 1540.73 69.6832L1713.13 -112.078C1772.36 -174.52 1784.07 -267.668 1742.17 -343.075L1606.03 -588.075C1600.71 -597.649 1594.6 -606.779 1587.77 -615.373L1444.65 -795.487C1404.18 -846.413 1341.28 -874.913 1275.99 -871.914L897.184 -854.515C823.569 -851.134 757.953 -808.298 726.139 -742.851L529.69 -338.723C495.61 -268.617 506.325 -185.076 557.091 -125.082L781.104 139.649C864.79 238.547 1018.18 232.495 1101.7 134.436Z" stroke="url(#paint31_linear_16563_161712)"/>
<path opacity="0.2" d="M1073.37 155.894C1334.95 -104.253 1000.6 410.989 1480.05 152.547C1492.94 145.597 1505.76 136.552 1516.65 126.824L1703.87 -40.3707C1768.1 -97.7333 1787.54 -189.676 1752.07 -268.352L1637.11 -523.352C1632.6 -533.36 1627.27 -542.989 1621.16 -552.141L1493.82 -743.073C1457.7 -797.229 1397.35 -830.829 1332.01 -833.161L952.743 -846.698C879.282 -849.32 810.519 -812.099 773.403 -749.624L543.536 -362.707C503.651 -295.572 507.357 -211.272 553.009 -147.2L753.794 134.597C828.911 240.023 982.069 246.697 1073.37 155.894Z" stroke="url(#paint32_linear_16563_161712)"/>
<path opacity="0.2" d="M1043.35 174.906C1326.58 -63.737 949.491 423.032 1449.33 204.387C1462.72 198.528 1476.21 190.581 1487.85 181.799L1688.6 30.3467C1757.39 -21.5541 1784.44 -111.662 1755.68 -193.064L1662.64 -456.322C1658.97 -466.694 1654.45 -476.756 1649.12 -486.404L1538.39 -686.842C1506.9 -743.856 1449.52 -782.329 1384.58 -789.979L1007.49 -834.403C934.668 -842.982 863.224 -811.585 821.075 -752.479L559.351 -385.464C513.931 -321.771 510.569 -237.3 550.759 -169.589L727.002 127.337C793.024 238.568 944.891 257.868 1043.35 174.906Z" stroke="url(#paint33_linear_16563_161712)"/>
<path opacity="0.2" d="M1011.87 191.36C1314.81 -23.9373 897.574 430.855 1414.34 253.574C1428.15 248.838 1442.23 242.035 1454.54 234.25L1667.43 99.6102C1740.31 53.5166 1774.81 -34.1367 1752.97 -117.696L1682.44 -387.425C1679.65 -398.089 1675.98 -408.511 1671.47 -418.587L1578.06 -627.169C1551.42 -686.644 1497.44 -729.724 1433.35 -742.642L1061.07 -817.683C989.355 -832.138 915.704 -806.734 868.818 -751.37L577.025 -406.816C526.379 -347.012 515.943 -262.967 550.362 -192.089L700.917 117.942C757.379 234.211 906.915 265.95 1011.87 191.36Z" stroke="url(#paint34_linear_16563_161712)"/>
<path opacity="0.2" d="M979.159 205.086C1299.69 14.8113 845.213 434.348 1375.33 299.709C1389.46 296.121 1404.04 290.499 1416.93 283.757L1640.5 166.881C1716.98 126.901 1758.71 42.3102 1743.95 -42.8185L1696.37 -317.201C1694.49 -328.078 1691.7 -338.786 1688.04 -349.216L1612.55 -564.536C1590.98 -626.052 1540.77 -673.437 1477.98 -691.536L1113.11 -796.703C1042.97 -816.92 967.585 -797.643 916.282 -746.367L596.427 -426.679C540.902 -371.183 523.439 -288.166 551.82 -214.623L675.713 106.414C722.217 226.919 868.414 270.826 979.159 205.086Z" stroke="url(#paint35_linear_16563_161712)"/>
<path opacity="0.2" d="M945.469 216.08C1281.31 52.318 792.779 433.575 1332.56 342.554C1346.92 340.132 1361.9 335.724 1375.3 330.064L1607.99 231.778C1687.55 198.176 1736.23 117.238 1728.67 31.1429L1704.35 -246.051C1703.38 -257.061 1701.5 -267.976 1698.73 -278.684L1641.63 -499.299C1625.29 -562.416 1579.22 -613.772 1518.16 -636.927L1163.26 -771.509C1095.14 -797.344 1018.51 -784.293 963.13 -737.425L617.418 -444.835C557.399 -394.039 533.012 -312.648 555.135 -236.967L651.563 92.9142C687.783 216.822 829.665 272.547 945.469 216.08Z" stroke="url(#paint36_linear_16563_161712)"/>
<path opacity="0.2" d="M911.052 224.228C1259.77 88.2602 740.645 428.501 1286.33 381.757C1300.83 380.515 1316.11 377.345 1329.93 372.8L1570.13 293.798C1652.22 266.798 1707.54 190.082 1707.25 103.634L1706.31 -174.517C1706.27 -185.578 1705.32 -196.619 1703.46 -207.526L1665.11 -431.966C1654.14 -496.231 1612.53 -551.189 1553.62 -579.243L1211.19 -742.313C1145.51 -773.589 1068.12 -766.833 1009.03 -724.665L639.853 -461.215C575.757 -415.475 544.604 -336.303 560.296 -259.032L628.636 77.4842C654.316 203.933 790.951 271.056 911.052 224.228Z" stroke="url(#paint37_linear_16563_161712)"/>
<path opacity="0.2" d="M876.155 229.51C1235.19 122.39 689.17 419.188 1236.94 417.065C1251.49 417.009 1266.99 415.095 1281.14 411.693L1527.17 352.53C1611.24 332.313 1672.82 260.36 1679.8 174.174L1702.25 -103.076C1703.15 -114.105 1703.12 -125.189 1702.18 -136.213L1682.85 -362.985C1677.31 -427.934 1640.47 -486.102 1584.12 -518.86L1256.55 -709.284C1193.75 -745.796 1116.07 -745.369 1053.65 -708.168L663.571 -475.694C595.845 -435.331 558.138 -358.956 567.281 -280.657L607.086 60.246C622.045 188.358 752.545 266.391 876.155 229.51Z" stroke="url(#paint38_linear_16563_161712)"/>
<path opacity="0.2" d="M841.027 231.903C1207.72 154.441 638.712 405.706 1184.74 448.222C1199.25 449.352 1214.86 448.707 1229.25 446.468L1479.4 407.558C1564.89 394.259 1632.3 327.58 1646.5 242.273L1692.2 -32.2268C1694.02 -43.1409 1694.93 -54.1843 1694.92 -65.2434L1694.72 -292.843C1694.66 -358.006 1662.84 -418.965 1609.44 -456.201L1299.04 -672.642C1239.5 -714.158 1162.02 -720.064 1096.67 -688.068L688.405 -488.185C617.523 -453.482 573.529 -380.46 576.055 -301.706L587.059 41.3093C591.193 170.194 714.717 258.585 841.027 231.903Z" stroke="url(#paint39_linear_16563_161712)"/>
<path opacity="0.2" d="M805.916 231.418C1177.55 184.175 589.618 388.165 1130.09 475.016C1144.47 477.327 1160.09 477.957 1174.64 476.897L1427.15 458.506C1513.48 452.217 1586.27 391.287 1607.59 307.467L1676.23 37.5512C1678.96 26.8335 1680.79 15.9132 1681.71 4.90252L1700.66 -222.014C1706.08 -286.919 1679.49 -350.232 1629.41 -391.687L1338.34 -632.621C1282.46 -678.882 1205.67 -691.092 1137.8 -664.511L714.185 -498.603C640.643 -469.8 590.68 -400.663 586.578 -322.027L568.694 20.8102C561.978 149.571 677.733 247.713 805.916 231.418Z" stroke="url(#paint40_linear_16563_161712)"/>
<path opacity="0.2" d="M771.059 228.061C1144.88 211.34 542.22 366.68 1073.35 497.239C1087.51 500.72 1103.05 502.623 1117.66 502.753L1370.78 504.998C1457.37 505.766 1535.04 451.019 1563.31 369.28L1654.46 105.758C1658.07 95.3166 1660.81 84.6006 1662.65 73.7202L1700.63 -151.002C1711.48 -215.183 1690.31 -280.396 1643.89 -325.784L1374.18 -589.509C1322.32 -640.225 1246.7 -658.681 1176.74 -637.696L740.732 -506.901C665.045 -484.197 609.478 -419.447 598.79 -341.5L552.116 -1.13312C534.599 126.61 641.848 233.841 771.059 228.061Z" stroke="url(#paint41_linear_16563_161712)"/>
<path opacity="0.2" d="M736.685 221.914C1109.93 235.758 496.835 341.443 1014.93 514.772C1028.78 519.404 1044.14 522.574 1058.72 523.896L1310.67 546.748C1396.94 554.572 1478.94 506.4 1513.96 427.318L1627.02 171.964C1631.49 161.875 1635.11 151.442 1637.86 140.772L1694.65 -80.2532C1710.84 -143.25 1695.22 -209.899 1652.78 -258.905L1406.3 -543.558C1358.8 -598.415 1284.83 -623.022 1213.24 -607.785L767.863 -512.994C690.559 -496.541 629.799 -436.641 612.619 -359.947L537.436 -24.3346C509.246 101.505 607.302 217.115 736.685 221.914Z" stroke="url(#paint42_linear_16563_161712)"/>
<path opacity="0.2" d="M703.019 213.038C1072.95 257.236 453.765 312.639 955.233 527.491C968.679 533.252 983.756 537.672 998.205 540.184L1247.25 583.465C1332.62 598.3 1418.37 557.044 1459.86 481.174L1594.12 235.717C1599.41 226.052 1603.88 215.977 1607.5 205.595L1682.76 -10.2469C1704.16 -71.6131 1694.18 -139.227 1656.02 -191.511L1434.46 -495.083C1391.65 -553.738 1319.82 -584.369 1247.05 -574.999L795.394 -516.844C717.015 -506.752 651.511 -452.124 627.983 -377.23L524.756 -48.636C486.095 74.43 574.327 197.662 703.019 213.038Z" stroke="url(#paint43_linear_16563_161712)"/>
<path opacity="0.2" d="M670.275 201.475C1034.23 275.572 413.297 280.439 894.662 535.274C907.617 542.132 922.312 547.782 936.543 551.473L1180.96 614.862C1264.83 636.615 1353.73 602.567 1401.41 530.435L1555.98 296.547C1562.05 287.374 1567.34 277.729 1571.8 267.709L1665.05 58.5121C1691.49 -0.79298 1687.21 -68.8976 1653.59 -124.096L1458.45 -444.45C1420.63 -506.536 1351.41 -543.025 1277.94 -539.609L823.142 -518.464C744.232 -514.795 674.468 -465.818 644.785 -393.25L514.163 -73.9051C465.307 45.5378 543.141 175.592 670.275 201.475Z" stroke="url(#paint44_linear_16563_161712)"/>
<path opacity="0.2" d="M638.656 187.334C994.034 290.638 375.691 245.085 833.641 538.084C846.015 546.001 860.231 552.851 874.147 557.704L1112.24 640.737C1194.05 669.269 1285.48 642.668 1338.98 574.768L1512.87 354.056C1519.65 345.439 1525.72 336.29 1530.99 326.701L1641.65 125.578C1672.91 68.7445 1674.35 0.622932 1645.49 -57.1096L1478.09 -391.995C1445.54 -457.116 1379.41 -499.263 1305.72 -501.852L850.917 -517.829C772.024 -520.6 698.513 -477.604 662.914 -407.868L505.729 -99.9532C447.024 15.0452 513.946 151.082 638.656 187.334Z" stroke="url(#paint45_linear_16563_161712)"/>
<path opacity="0.2" d="M608.357 170.718C952.673 302.322 341.196 206.821 772.592 535.904C784.3 544.834 797.938 552.846 811.445 558.837L1041.58 660.915C1120.77 696.041 1214.08 677.07 1273.01 613.862L1465.07 407.854C1472.53 399.85 1479.32 391.258 1485.36 382.166L1612.71 190.503C1648.57 136.529 1655.68 68.8585 1631.78 8.99131L1493.24 -338.085C1466.21 -405.82 1403.62 -453.385 1330.2 -461.992L878.537 -514.943C800.206 -524.127 723.484 -487.394 682.246 -420.965L499.514 -126.6C431.375 -16.834 486.93 124.307 608.357 170.718Z" stroke="url(#paint46_linear_16563_161712)"/>
<path opacity="0.2" d="M579.555 151.772C910.451 310.567 310.027 165.938 711.933 528.778C722.89 538.67 735.854 547.798 748.858 554.894L969.461 675.287C1045.49 716.777 1140.02 705.562 1203.96 647.468L1412.91 457.605C1420.99 450.264 1428.44 442.286 1435.2 433.75L1578.42 252.881C1618.61 202.127 1631.33 135.37 1612.56 73.7815L1503.78 -283.072C1482.47 -352.977 1423.87 -405.677 1351.23 -420.278L905.812 -509.8C828.581 -525.322 749.201 -495.084 702.641 -432.406L495.555 -153.633C418.459 -49.8495 462.258 95.4812 579.555 151.772Z" stroke="url(#paint47_linear_16563_161712)"/>
<path opacity="0.2" d="M552.435 130.562C867.694 315.262 282.394 122.653 652.091 516.702C662.216 527.494 674.413 537.684 686.82 545.845L896.391 683.699C968.723 731.279 1063.82 727.89 1132.3 675.291L1356.76 502.913C1365.39 496.281 1373.46 488.967 1380.89 481.042L1539.03 312.237C1583.25 265.038 1601.48 199.644 1587.96 136.758L1509.63 -227.402C1494.22 -299.009 1440.06 -356.523 1368.69 -377.051L932.567 -502.489C856.966 -524.233 775.495 -500.671 723.96 -442.156L493.888 -180.924C408.375 -83.8287 440.095 64.746 552.435 130.562Z" stroke="url(#paint48_linear_16563_161712)"/>
<path opacity="0.2" d="M527.155 107.264C824.716 316.422 258.471 77.2954 593.475 499.8C602.692 511.424 614.03 522.612 625.751 531.789L822.869 686.135C891.004 739.486 985.991 743.935 1058.55 697.174L1296.99 543.507C1306.12 537.624 1314.74 531.018 1322.77 523.752L1494.8 368.209C1542.73 324.872 1566.33 261.278 1558.14 197.526L1510.74 -171.434C1501.38 -244.257 1452.06 -306.22 1382.46 -332.566L958.62 -493.02C885.164 -520.829 802.174 -504.072 746.041 -450.097L494.521 -208.247C401.183 -118.498 420.572 32.3452 527.155 107.264Z" stroke="url(#paint49_linear_16563_161712)"/>
<path opacity="0.2" d="M503.872 81.9941C781.836 314.028 238.412 30.1393 536.488 478.166C544.724 490.546 555.119 502.661 566.065 512.796L749.402 682.557C812.864 741.319 907.083 753.562 983.205 712.936L1234.01 579.085C1243.57 573.985 1252.68 568.125 1261.27 561.564L1446.01 420.394C1497.31 381.194 1526.1 319.822 1523.3 255.642L1507.11 -115.593C1503.9 -189.127 1459.8 -255.134 1392.48 -287.145L983.797 -481.481C912.983 -515.155 829.051 -505.285 768.721 -456.191L497.449 -235.438C396.933 -153.642 403.813 -1.53098 503.872 81.9941Z" stroke="url(#paint50_linear_16563_161712)"/>
<path opacity="0.2" d="M482.732 54.9321C739.37 308.14 222.352 -18.48 481.524 451.978C488.714 465.03 498.084 477.991 508.172 489.018L676.497 673.017C734.84 736.792 827.639 756.728 906.802 722.494L1168.25 609.429C1178.17 605.139 1187.72 600.06 1196.79 594.24L1393 468.463C1447.31 433.646 1481.09 374.899 1483.7 310.73L1498.76 -60.2518C1501.76 -133.98 1463.23 -203.586 1398.68 -241.064L1007.93 -467.922C940.236 -507.223 855.933 -504.275 791.829 -460.365L502.653 -262.287C395.651 -188.993 389.924 -36.6362 482.732 54.9321Z" stroke="url(#paint51_linear_16563_161712)"/>
<path opacity="0.2" d="M463.874 26.2256C697.622 298.809 210.398 -68.2582 428.959 421.403C435.044 435.037 443.316 448.755 452.468 460.6L604.656 657.57C657.468 725.921 748.208 753.398 829.873 725.767L1100.16 634.314C1110.38 630.858 1120.29 626.587 1129.8 621.542L1336.12 512.072C1393.07 481.853 1431.61 426.115 1439.6 362.395L1485.77 -5.8207C1494.98 -79.216 1462.33 -151.939 1401.02 -194.641L1030.85 -452.446C966.737 -497.1 882.632 -501.062 815.193 -462.605L510.099 -288.623C397.345 -224.325 378.994 -72.7574 463.874 26.2256Z" stroke="url(#paint52_linear_16563_161712)"/>
<path opacity="0.2" d="M447.427 -3.96176C656.889 286.115 202.635 -118.877 379.155 386.646C384.085 400.765 391.192 415.144 399.336 427.725L534.374 636.317C581.281 708.775 669.341 743.587 752.958 722.727L1030.21 653.561C1040.66 650.956 1050.87 647.515 1060.74 643.273L1275.75 550.909C1334.96 525.473 1377.98 473.109 1391.3 410.273L1468.23 47.306C1483.61 -25.2258 1457.12 -100.55 1399.5 -148.191L1052.42 -435.164C992.306 -484.863 908.957 -495.68 838.639 -462.907L519.735 -314.275C402.001 -259.403 371.096 -109.67 447.427 -3.96176Z" stroke="url(#paint53_linear_16563_161712)"/>
<path opacity="0.2" d="M433.506 -35.4254C617.45 270.194 199.12 -169.982 332.451 347.969C336.184 362.47 342.069 377.408 349.141 390.634L466.129 609.428C506.799 685.491 591.582 727.383 676.591 713.42L958.876 667.055C969.481 665.313 979.922 662.722 990.098 659.306L1212.29 584.726C1273.36 564.226 1320.59 515.577 1339.14 454.053L1446.28 98.7754C1467.73 27.6367 1447.63 -49.7438 1394.14 -101.994L1072.47 -416.168C1016.77 -470.572 934.721 -488.146 861.99 -461.252L531.496 -339.046C409.584 -293.967 366.284 -147.113 433.506 -35.4254Z" stroke="url(#paint54_linear_16563_161712)"/>
<path opacity="0.2" d="M422.217 -67.9677C579.57 251.186 199.886 -221.231 289.166 305.644C291.67 320.421 296.285 335.808 302.229 349.585L400.39 577.095C434.535 656.235 515.467 704.906 601.305 697.922L886.639 674.707C897.338 673.837 907.945 672.107 918.359 669.536L1146.17 613.288C1208.7 597.847 1259.82 553.232 1283.48 493.438L1420.07 148.233C1447.46 79.0099 1433.93 0.14215 1384.95 -56.3481L1090.87 -395.58C1039.95 -454.318 959.743 -478.513 885.075 -457.659L545.3 -362.762C420.04 -327.778 364.596 -184.84 422.217 -67.9677Z" stroke="url(#paint55_linear_16563_161712)"/>
<path opacity="0.2" d="M413.654 -101.413C543.497 229.217 204.939 -272.31 249.593 259.934C250.847 274.877 254.155 290.6 258.924 304.825L337.604 539.514C364.982 621.178 441.522 676.284 527.62 676.318L813.997 676.432C824.723 676.436 835.431 675.578 846.015 673.866L1077.84 636.361C1141.43 626.074 1196.1 585.785 1224.7 528.129L1389.82 195.308C1422.96 128.511 1416.09 48.7423 1372.01 -11.5825L1107.5 -373.566C1061.7 -436.24 983.845 -466.881 907.725 -452.191L561.054 -385.289C433.296 -360.633 366.049 -222.634 413.654 -101.413Z" stroke="url(#paint56_linear_16563_161712)"/>
<path opacity="0.2" d="M407.896 -135.545C509.461 204.46 214.26 -322.874 214.003 211.155C213.996 226.153 215.971 242.095 219.528 256.663L278.2 496.947C298.618 580.565 370.256 641.72 456.047 648.768L741.451 672.217C752.137 673.095 762.878 673.112 773.567 672.268L1007.77 653.78C1071.99 648.71 1129.86 613.016 1163.21 557.889L1355.74 239.682C1394.39 175.804 1394.25 95.7304 1355.39 32.0099L1122.23 -350.271C1081.86 -416.458 1006.86 -453.335 929.779 -444.899L578.65 -406.47C449.261 -392.309 370.646 -260.244 407.896 -135.545Z" stroke="url(#paint57_linear_16563_161712)"/>
<path opacity="0.2" d="M405.002 -170.097C477.669 177.142 227.794 -372.537 182.633 159.684C181.365 174.624 181.992 190.666 184.311 205.469L222.58 449.727C235.895 534.716 302.155 601.496 387.075 615.513L669.495 662.13C680.075 663.877 690.781 664.769 701.51 664.799L936.432 665.457C1000.88 665.638 1061.55 634.778 1099.43 582.556L1318.08 281.099C1361.95 220.607 1368.55 140.83 1335.18 74.1808L1134.96 -325.81C1100.29 -395.065 1028.63 -437.932 951.082 -435.805L597.965 -426.119C467.823 -422.549 378.366 -297.376 405.002 -170.097Z" stroke="url(#paint58_linear_16563_161712)"/>
<path opacity="0.2" d="M405.018 -204.85C448.317 147.445 245.468 -420.974 155.696 105.859C153.179 120.629 152.456 136.652 153.522 151.578L171.123 398.165C177.245 483.929 237.69 555.877 321.176 576.774L598.625 646.223C609.033 648.828 619.639 650.592 630.339 651.497L864.318 671.287C928.565 676.721 991.658 650.908 1033.8 601.947L1277.11 319.268C1325.88 262.603 1339.15 183.717 1311.52 114.631L1145.59 -300.365C1116.86 -372.222 1049 -420.801 971.488 -425.002L618.869 -444.116C488.856 -451.164 389.17 -333.798 405.018 -204.85Z" stroke="url(#paint59_linear_16563_161712)"/>
<path opacity="0.2" d="M407.969 -239.604C421.576 115.535 267.174 -467.886 133.376 50.0064C129.632 64.4974 127.567 80.3819 127.374 95.3205L124.179 342.573C123.068 428.513 177.299 505.14 258.798 532.787L529.331 624.561C539.501 628.011 549.938 630.637 560.543 632.414L791.927 671.179C855.558 681.84 920.654 661.255 966.775 615.89L1233.12 353.902C1286.43 301.469 1306.25 224.061 1284.56 153.046L1154.06 -274.148C1131.46 -348.125 1067.85 -402.104 990.863 -412.619L641.219 -460.378C512.217 -477.998 403 -369.298 407.969 -239.604Z" stroke="url(#paint60_linear_16563_161712)"/>
<path opacity="0.2" d="M413.854 -274.063C397.6 81.6732 292.77 -512.898 115.818 -7.44423C110.88 6.66156 107.493 22.2911 106.047 37.1319L82.0621 283.379C73.7325 368.895 121.392 449.684 200.361 483.909L462.085 597.34C471.951 601.616 482.155 605.092 492.596 607.732L719.758 665.175C782.354 681.003 849.023 665.798 898.81 624.338L1186.42 384.825C1243.86 336.993 1270.07 261.629 1254.45 189.206L1160.29 -247.295C1143.98 -322.893 1085.02 -381.93 1009.08 -398.707L664.857 -474.744C537.743 -502.823 419.771 -403.584 413.854 -274.063Z" stroke="url(#paint61_linear_16563_161712)"/>
<path opacity="0.2" d="M422.655 -308.021C376.531 46.0397 322.096 -555.731 103.145 -66.1442C97.0545 -52.5251 92.3766 -37.2637 89.6948 -22.6288L45.0624 220.943C29.5789 305.441 70.3521 389.849 146.259 430.438L397.354 564.703C406.852 569.782 416.756 574.088 426.967 577.579L648.316 653.265C709.462 674.172 777.261 664.463 830.376 627.193L1137.34 411.798C1198.48 368.896 1230.85 296.12 1221.39 222.816L1164.24 -220.033C1154.34 -296.742 1100.43 -360.464 1026.02 -383.412L689.626 -487.158C565.266 -525.512 439.386 -436.455 422.655 -308.021Z" stroke="url(#paint62_linear_16563_161712)"/>
<defs>
<linearGradient id="paint0_linear_16563_161712" x1="1107.7" y1="-195.635" x2="-45.7913" y2="-195.635" gradientUnits="userSpaceOnUse">
<stop stop-color="#914CEB"/>
<stop offset="0.2" stop-color="#CD5C5C"/>
<stop offset="0.4" stop-color="#FF8C00"/>
<stop offset="0.6" stop-color="#EEE8AA"/>
<stop offset="0.8" stop-color="#2E8B57"/>
<stop offset="1" stop-color="#4682B4"/>
</linearGradient>
<linearGradient id="paint1_linear_16563_161712" x1="1107.47" y1="-172.917" x2="-41.8106" y2="-269.891" gradientUnits="userSpaceOnUse">
<stop stop-color="#914CEB"/>
<stop offset="0.2" stop-color="#CD5C5C"/>
<stop offset="0.4" stop-color="#FF8C00"/>
<stop offset="0.6" stop-color="#EEE8AA"/>
<stop offset="0.8" stop-color="#2E8B57"/>
<stop offset="1" stop-color="#4682B4"/>
</linearGradient>
<linearGradient id="paint2_linear_16563_161712" x1="1105.33" y1="-150.29" x2="-31.3622" y2="-343.447" gradientUnits="userSpaceOnUse">
<stop stop-color="#914CEB"/>
<stop offset="0.2" stop-color="#CD5C5C"/>
<stop offset="0.4" stop-color="#FF8C00"/>
<stop offset="0.6" stop-color="#EEE8AA"/>
<stop offset="0.8" stop-color="#2E8B57"/>
<stop offset="1" stop-color="#4682B4"/>
</linearGradient>
<linearGradient id="paint3_linear_16563_161712" x1="1101.3" y1="-127.912" x2="-14.5669" y2="-415.683" gradientUnits="userSpaceOnUse">
<stop stop-color="#914CEB"/>
<stop offset="0.2" stop-color="#CD5C5C"/>
<stop offset="0.4" stop-color="#FF8C00"/>
<stop offset="0.6" stop-color="#EEE8AA"/>
<stop offset="0.8" stop-color="#2E8B57"/>
<stop offset="1" stop-color="#4682B4"/>
</linearGradient>
<linearGradient id="paint4_linear_16563_161712" x1="1095.4" y1="-105.93" x2="8.38515" y2="-485.994" gradientUnits="userSpaceOnUse">
<stop stop-color="#914CEB"/>
<stop offset="0.2" stop-color="#CD5C5C"/>
<stop offset="0.4" stop-color="#FF8C00"/>
<stop offset="0.6" stop-color="#EEE8AA"/>
<stop offset="0.8" stop-color="#2E8B57"/>
<stop offset="1" stop-color="#4682B4"/>
</linearGradient>
<linearGradient id="paint5_linear_16563_161712" x1="1087.67" y1="-84.5212" x2="37.2372" y2="-553.845" gradientUnits="userSpaceOnUse">
<stop stop-color="#914CEB"/>
<stop offset="0.2" stop-color="#CD5C5C"/>
<stop offset="0.4" stop-color="#FF8C00"/>
<stop offset="0.6" stop-color="#EEE8AA"/>
<stop offset="0.8" stop-color="#2E8B57"/>
<stop offset="1" stop-color="#4682B4"/>
</linearGradient>
<linearGradient id="paint6_linear_16563_161712" x1="1078.17" y1="-63.8233" x2="71.6783" y2="-618.71" gradientUnits="userSpaceOnUse">
<stop stop-color="#914CEB"/>
<stop offset="0.2" stop-color="#CD5C5C"/>
<stop offset="0.4" stop-color="#FF8C00"/>
<stop offset="0.6" stop-color="#EEE8AA"/>
<stop offset="0.8" stop-color="#2E8B57"/>
<stop offset="1" stop-color="#4682B4"/>
</linearGradient>
<linearGradient id="paint7_linear_16563_161712" x1="1066.95" y1="-43.9322" x2="111.345" y2="-680.075" gradientUnits="userSpaceOnUse">
<stop stop-color="#914CEB"/>
<stop offset="0.2" stop-color="#CD5C5C"/>
<stop offset="0.4" stop-color="#FF8C00"/>
<stop offset="0.6" stop-color="#EEE8AA"/>
<stop offset="0.8" stop-color="#2E8B57"/>
<stop offset="1" stop-color="#4682B4"/>
</linearGradient>
<linearGradient id="paint8_linear_16563_161712" x1="1054.11" y1="-25.035" x2="155.846" y2="-737.579" gradientUnits="userSpaceOnUse">
<stop stop-color="#914CEB"/>
<stop offset="0.2" stop-color="#CD5C5C"/>
<stop offset="0.4" stop-color="#FF8C00"/>
<stop offset="0.6" stop-color="#EEE8AA"/>
<stop offset="0.8" stop-color="#2E8B57"/>
<stop offset="1" stop-color="#4682B4"/>
</linearGradient>
<linearGradient id="paint9_linear_16563_161712" x1="1039.72" y1="-7.27154" x2="204.754" y2="-790.88" gradientUnits="userSpaceOnUse">
<stop stop-color="#914CEB"/>
<stop offset="0.2" stop-color="#CD5C5C"/>
<stop offset="0.4" stop-color="#FF8C00"/>
<stop offset="0.6" stop-color="#EEE8AA"/>
<stop offset="0.8" stop-color="#2E8B57"/>
<stop offset="1" stop-color="#4682B4"/>
</linearGradient>
<linearGradient id="paint10_linear_16563_161712" x1="1023.89" y1="9.26662" x2="257.636" y2="-839.646" gradientUnits="userSpaceOnUse">
<stop stop-color="#914CEB"/>
<stop offset="0.2" stop-color="#CD5C5C"/>
<stop offset="0.4" stop-color="#FF8C00"/>
<stop offset="0.6" stop-color="#EEE8AA"/>
<stop offset="0.8" stop-color="#2E8B57"/>
<stop offset="1" stop-color="#4682B4"/>
</linearGradient>
<linearGradient id="paint11_linear_16563_161712" x1="1006.72" y1="24.4673" x2="314.043" y2="-883.634" gradientUnits="userSpaceOnUse">
<stop stop-color="#914CEB"/>
<stop offset="0.2" stop-color="#CD5C5C"/>
<stop offset="0.4" stop-color="#FF8C00"/>
<stop offset="0.6" stop-color="#EEE8AA"/>
<stop offset="0.8" stop-color="#2E8B57"/>
<stop offset="1" stop-color="#4682B4"/>
</linearGradient>
<linearGradient id="paint12_linear_16563_161712" x1="988.327" y1="38.2033" x2="373.53" y2="-922.67" gradientUnits="userSpaceOnUse">
<stop stop-color="#914CEB"/>
<stop offset="0.2" stop-color="#CD5C5C"/>
<stop offset="0.4" stop-color="#FF8C00"/>
<stop offset="0.6" stop-color="#EEE8AA"/>
<stop offset="0.8" stop-color="#2E8B57"/>
<stop offset="1" stop-color="#4682B4"/>
</linearGradient>
<linearGradient id="paint13_linear_16563_161712" x1="968.845" y1="50.3949" x2="435.661" y2="-956.589" gradientUnits="userSpaceOnUse">
<stop stop-color="#914CEB"/>
<stop offset="0.2" stop-color="#CD5C5C"/>
<stop offset="0.4" stop-color="#FF8C00"/>
<stop offset="0.6" stop-color="#EEE8AA"/>
<stop offset="0.8" stop-color="#2E8B57"/>
<stop offset="1" stop-color="#4682B4"/>
</linearGradient>
<linearGradient id="paint14_linear_16563_161712" x1="948.405" y1="60.9719" x2="500.011" y2="-985.265" gradientUnits="userSpaceOnUse">
<stop stop-color="#914CEB"/>
<stop offset="0.2" stop-color="#CD5C5C"/>
<stop offset="0.4" stop-color="#FF8C00"/>
<stop offset="0.6" stop-color="#EEE8AA"/>
<stop offset="0.8" stop-color="#2E8B57"/>
<stop offset="1" stop-color="#4682B4"/>
</linearGradient>
<linearGradient id="paint15_linear_16563_161712" x1="927.144" y1="69.8442" x2="566.164" y2="-1008.63" gradientUnits="userSpaceOnUse">
<stop stop-color="#914CEB"/>
<stop offset="0.2" stop-color="#CD5C5C"/>
<stop offset="0.4" stop-color="#FF8C00"/>
<stop offset="0.6" stop-color="#EEE8AA"/>
<stop offset="0.8" stop-color="#2E8B57"/>
<stop offset="1" stop-color="#4682B4"/>
</linearGradient>
<linearGradient id="paint16_linear_16563_161712" x1="905.212" y1="76.9499" x2="633.723" y2="-1026.64" gradientUnits="userSpaceOnUse">
<stop stop-color="#914CEB"/>
<stop offset="0.2" stop-color="#CD5C5C"/>
<stop offset="0.4" stop-color="#FF8C00"/>
<stop offset="0.6" stop-color="#EEE8AA"/>
<stop offset="0.8" stop-color="#2E8B57"/>
<stop offset="1" stop-color="#4682B4"/>
</linearGradient>
<linearGradient id="paint17_linear_16563_161712" x1="882.76" y1="82.232" x2="702.306" y2="-1039.26" gradientUnits="userSpaceOnUse">
<stop stop-color="#914CEB"/>
<stop offset="0.2" stop-color="#CD5C5C"/>
<stop offset="0.4" stop-color="#FF8C00"/>
<stop offset="0.6" stop-color="#EEE8AA"/>
<stop offset="0.8" stop-color="#2E8B57"/>
<stop offset="1" stop-color="#4682B4"/>
</linearGradient>
<linearGradient id="paint18_linear_16563_161712" x1="859.938" y1="85.7056" x2="771.537" y2="-1046.42" gradientUnits="userSpaceOnUse">
<stop stop-color="#914CEB"/>
<stop offset="0.2" stop-color="#CD5C5C"/>
<stop offset="0.4" stop-color="#FF8C00"/>
<stop offset="0.6" stop-color="#EEE8AA"/>
<stop offset="0.8" stop-color="#2E8B57"/>
<stop offset="1" stop-color="#4682B4"/>
</linearGradient>
<linearGradient id="paint19_linear_16563_161712" x1="836.901" y1="87.2482" x2="841.047" y2="-1048.2" gradientUnits="userSpaceOnUse">
<stop stop-color="#914CEB"/>
<stop offset="0.2" stop-color="#CD5C5C"/>
<stop offset="0.4" stop-color="#FF8C00"/>
<stop offset="0.6" stop-color="#EEE8AA"/>
<stop offset="0.8" stop-color="#2E8B57"/>
<stop offset="1" stop-color="#4682B4"/>
</linearGradient>
<linearGradient id="paint20_linear_16563_161712" x1="813.814" y1="86.9448" x2="910.485" y2="-1044.52" gradientUnits="userSpaceOnUse">
<stop stop-color="#914CEB"/>
<stop offset="0.2" stop-color="#CD5C5C"/>
<stop offset="0.4" stop-color="#FF8C00"/>
<stop offset="0.6" stop-color="#EEE8AA"/>
<stop offset="0.8" stop-color="#2E8B57"/>
<stop offset="1" stop-color="#4682B4"/>
</linearGradient>
<linearGradient id="paint21_linear_16563_161712" x1="790.834" y1="84.7631" x2="979.486" y2="-1035.42" gradientUnits="userSpaceOnUse">
<stop stop-color="#914CEB"/>
<stop offset="0.2" stop-color="#CD5C5C"/>
<stop offset="0.4" stop-color="#FF8C00"/>
<stop offset="0.6" stop-color="#EEE8AA"/>
<stop offset="0.8" stop-color="#2E8B57"/>
<stop offset="1" stop-color="#4682B4"/>
</linearGradient>
<linearGradient id="paint22_linear_16563_161712" x1="768.114" y1="80.688" x2="1047.69" y2="-1020.95" gradientUnits="userSpaceOnUse">
<stop stop-color="#914CEB"/>
<stop offset="0.2" stop-color="#CD5C5C"/>
<stop offset="0.4" stop-color="#FF8C00"/>
<stop offset="0.6" stop-color="#EEE8AA"/>
<stop offset="0.8" stop-color="#2E8B57"/>
<stop offset="1" stop-color="#4682B4"/>
</linearGradient>
<linearGradient id="paint23_linear_16563_161712" x1="745.813" y1="74.834" x2="1114.71" y2="-1001.05" gradientUnits="userSpaceOnUse">
<stop stop-color="#914CEB"/>
<stop offset="0.2" stop-color="#CD5C5C"/>
<stop offset="0.4" stop-color="#FF8C00"/>
<stop offset="0.6" stop-color="#EEE8AA"/>
<stop offset="0.8" stop-color="#2E8B57"/>
<stop offset="1" stop-color="#4682B4"/>
</linearGradient>
<linearGradient id="paint24_linear_16563_161712" x1="724.085" y1="67.123" x2="1180.19" y2="-975.883" gradientUnits="userSpaceOnUse">
<stop stop-color="#914CEB"/>
<stop offset="0.2" stop-color="#CD5C5C"/>
<stop offset="0.4" stop-color="#FF8C00"/>
<stop offset="0.6" stop-color="#EEE8AA"/>
<stop offset="0.8" stop-color="#2E8B57"/>
<stop offset="1" stop-color="#4682B4"/>
</linearGradient>
<linearGradient id="paint25_linear_16563_161712" x1="703.08" y1="57.6917" x2="1243.71" y2="-945.441" gradientUnits="userSpaceOnUse">
<stop stop-color="#914CEB"/>
<stop offset="0.2" stop-color="#CD5C5C"/>
<stop offset="0.4" stop-color="#FF8C00"/>
<stop offset="0.6" stop-color="#EEE8AA"/>
<stop offset="0.8" stop-color="#2E8B57"/>
<stop offset="1" stop-color="#4682B4"/>
</linearGradient>
<linearGradient id="paint26_linear_16563_161712" x1="682.938" y1="46.5663" x2="1304.87" y2="-909.851" gradientUnits="userSpaceOnUse">
<stop stop-color="#914CEB"/>
<stop offset="0.2" stop-color="#CD5C5C"/>
<stop offset="0.4" stop-color="#FF8C00"/>
<stop offset="0.6" stop-color="#EEE8AA"/>
<stop offset="0.8" stop-color="#2E8B57"/>
<stop offset="1" stop-color="#4682B4"/>
</linearGradient>
<linearGradient id="paint27_linear_16563_161712" x1="663.799" y1="33.8694" x2="1363.24" y2="-869.191" gradientUnits="userSpaceOnUse">
<stop stop-color="#914CEB"/>
<stop offset="0.2" stop-color="#CD5C5C"/>
<stop offset="0.4" stop-color="#FF8C00"/>
<stop offset="0.6" stop-color="#EEE8AA"/>
<stop offset="0.8" stop-color="#2E8B57"/>
<stop offset="1" stop-color="#4682B4"/>
</linearGradient>
<linearGradient id="paint28_linear_16563_161712" x1="645.797" y1="19.6265" x2="1418.41" y2="-823.685" gradientUnits="userSpaceOnUse">
<stop stop-color="#914CEB"/>
<stop offset="0.2" stop-color="#CD5C5C"/>
<stop offset="0.4" stop-color="#FF8C00"/>
<stop offset="0.6" stop-color="#EEE8AA"/>
<stop offset="0.8" stop-color="#2E8B57"/>
<stop offset="1" stop-color="#4682B4"/>
</linearGradient>
<linearGradient id="paint29_linear_16563_161712" x1="629.052" y1="3.99809" x2="1469.92" y2="-773.478" gradientUnits="userSpaceOnUse">
<stop stop-color="#914CEB"/>
<stop offset="0.2" stop-color="#CD5C5C"/>
<stop offset="0.4" stop-color="#FF8C00"/>
<stop offset="0.6" stop-color="#EEE8AA"/>
<stop offset="0.8" stop-color="#2E8B57"/>
<stop offset="1" stop-color="#4682B4"/>
</linearGradient>
<linearGradient id="paint30_linear_16563_161712" x1="613.682" y1="-12.9826" x2="1517.33" y2="-718.898" gradientUnits="userSpaceOnUse">
<stop stop-color="#914CEB"/>
<stop offset="0.2" stop-color="#CD5C5C"/>
<stop offset="0.4" stop-color="#FF8C00"/>
<stop offset="0.6" stop-color="#EEE8AA"/>
<stop offset="0.8" stop-color="#2E8B57"/>
<stop offset="1" stop-color="#4682B4"/>
</linearGradient>
<linearGradient id="paint31_linear_16563_161712" x1="599.788" y1="-31.1324" x2="1560.22" y2="-660.191" gradientUnits="userSpaceOnUse">
<stop stop-color="#914CEB"/>
<stop offset="0.2" stop-color="#CD5C5C"/>
<stop offset="0.4" stop-color="#FF8C00"/>
<stop offset="0.6" stop-color="#EEE8AA"/>
<stop offset="0.8" stop-color="#2E8B57"/>
<stop offset="1" stop-color="#4682B4"/>
</linearGradient>
<linearGradient id="paint32_linear_16563_161712" x1="587.469" y1="-50.3598" x2="1598.18" y2="-597.754" gradientUnits="userSpaceOnUse">
<stop stop-color="#914CEB"/>
<stop offset="0.2" stop-color="#CD5C5C"/>
<stop offset="0.4" stop-color="#FF8C00"/>
<stop offset="0.6" stop-color="#EEE8AA"/>
<stop offset="0.8" stop-color="#2E8B57"/>
<stop offset="1" stop-color="#4682B4"/>
</linearGradient>
<linearGradient id="paint33_linear_16563_161712" x1="576.808" y1="-70.5246" x2="1630.82" y2="-531.999" gradientUnits="userSpaceOnUse">
<stop stop-color="#914CEB"/>
<stop offset="0.2" stop-color="#CD5C5C"/>
<stop offset="0.4" stop-color="#FF8C00"/>
<stop offset="0.6" stop-color="#EEE8AA"/>
<stop offset="0.8" stop-color="#2E8B57"/>
<stop offset="1" stop-color="#4682B4"/>
</linearGradient>
<linearGradient id="paint34_linear_16563_161712" x1="567.882" y1="-91.4673" x2="1657.8" y2="-463.382" gradientUnits="userSpaceOnUse">
<stop stop-color="#914CEB"/>
<stop offset="0.2" stop-color="#CD5C5C"/>
<stop offset="0.4" stop-color="#FF8C00"/>
<stop offset="0.6" stop-color="#EEE8AA"/>
<stop offset="0.8" stop-color="#2E8B57"/>
<stop offset="1" stop-color="#4682B4"/>
</linearGradient>
<linearGradient id="paint35_linear_16563_161712" x1="560.747" y1="-113.107" x2="1678.81" y2="-392.491" gradientUnits="userSpaceOnUse">
<stop stop-color="#914CEB"/>
<stop offset="0.2" stop-color="#CD5C5C"/>
<stop offset="0.4" stop-color="#FF8C00"/>
<stop offset="0.6" stop-color="#EEE8AA"/>
<stop offset="0.8" stop-color="#2E8B57"/>
<stop offset="1" stop-color="#4682B4"/>
</linearGradient>
<linearGradient id="paint36_linear_16563_161712" x1="555.454" y1="-135.212" x2="1693.61" y2="-319.812" gradientUnits="userSpaceOnUse">
<stop stop-color="#914CEB"/>
<stop offset="0.2" stop-color="#CD5C5C"/>
<stop offset="0.4" stop-color="#FF8C00"/>
<stop offset="0.6" stop-color="#EEE8AA"/>
<stop offset="0.8" stop-color="#2E8B57"/>
<stop offset="1" stop-color="#4682B4"/>
</linearGradient>
<linearGradient id="paint37_linear_16563_161712" x1="552.04" y1="-157.686" x2="1702.04" y2="-245.999" gradientUnits="userSpaceOnUse">
<stop stop-color="#914CEB"/>
<stop offset="0.2" stop-color="#CD5C5C"/>
<stop offset="0.4" stop-color="#FF8C00"/>
<stop offset="0.6" stop-color="#EEE8AA"/>
<stop offset="0.8" stop-color="#2E8B57"/>
<stop offset="1" stop-color="#4682B4"/>
</linearGradient>
<linearGradient id="paint38_linear_16563_161712" x1="550.528" y1="-180.356" x2="1703.99" y2="-171.663" gradientUnits="userSpaceOnUse">
<stop stop-color="#914CEB"/>
<stop offset="0.2" stop-color="#CD5C5C"/>
<stop offset="0.4" stop-color="#FF8C00"/>
<stop offset="0.6" stop-color="#EEE8AA"/>
<stop offset="0.8" stop-color="#2E8B57"/>
<stop offset="1" stop-color="#4682B4"/>
</linearGradient>
<linearGradient id="paint39_linear_16563_161712" x1="550.927" y1="-203.078" x2="1699.42" y2="-97.4488" gradientUnits="userSpaceOnUse">
<stop stop-color="#914CEB"/>
<stop offset="0.2" stop-color="#CD5C5C"/>
<stop offset="0.4" stop-color="#FF8C00"/>
<stop offset="0.6" stop-color="#EEE8AA"/>
<stop offset="0.8" stop-color="#2E8B57"/>
<stop offset="1" stop-color="#4682B4"/>
</linearGradient>
<linearGradient id="paint40_linear_16563_161712" x1="553.237" y1="-225.688" x2="1688.4" y2="-23.9849" gradientUnits="userSpaceOnUse">
<stop stop-color="#914CEB"/>
<stop offset="0.2" stop-color="#CD5C5C"/>
<stop offset="0.4" stop-color="#FF8C00"/>
<stop offset="0.6" stop-color="#EEE8AA"/>
<stop offset="0.8" stop-color="#2E8B57"/>
<stop offset="1" stop-color="#4682B4"/>
</linearGradient>
<linearGradient id="paint41_linear_16563_161712" x1="557.441" y1="-248.053" x2="1671.05" y2="48.0859" gradientUnits="userSpaceOnUse">
<stop stop-color="#914CEB"/>
<stop offset="0.2" stop-color="#CD5C5C"/>
<stop offset="0.4" stop-color="#FF8C00"/>
<stop offset="0.6" stop-color="#EEE8AA"/>
<stop offset="0.8" stop-color="#2E8B57"/>
<stop offset="1" stop-color="#4682B4"/>
</linearGradient>
<linearGradient id="paint42_linear_16563_161712" x1="563.508" y1="-269.984" x2="1647.56" y2="118.205" gradientUnits="userSpaceOnUse">
<stop stop-color="#914CEB"/>
<stop offset="0.2" stop-color="#CD5C5C"/>
<stop offset="0.4" stop-color="#FF8C00"/>
<stop offset="0.6" stop-color="#EEE8AA"/>
<stop offset="0.8" stop-color="#2E8B57"/>
<stop offset="1" stop-color="#4682B4"/>
</linearGradient>
<linearGradient id="paint43_linear_16563_161712" x1="571.399" y1="-291.331" x2="1618.19" y2="185.814" gradientUnits="userSpaceOnUse">
<stop stop-color="#914CEB"/>
<stop offset="0.2" stop-color="#CD5C5C"/>
<stop offset="0.4" stop-color="#FF8C00"/>
<stop offset="0.6" stop-color="#EEE8AA"/>
<stop offset="0.8" stop-color="#2E8B57"/>
<stop offset="1" stop-color="#4682B4"/>
</linearGradient>
<linearGradient id="paint44_linear_16563_161712" x1="581.059" y1="-311.98" x2="1583.27" y2="250.365" gradientUnits="userSpaceOnUse">
<stop stop-color="#914CEB"/>
<stop offset="0.2" stop-color="#CD5C5C"/>
<stop offset="0.4" stop-color="#FF8C00"/>
<stop offset="0.6" stop-color="#EEE8AA"/>
<stop offset="0.8" stop-color="#2E8B57"/>
<stop offset="1" stop-color="#4682B4"/>
</linearGradient>
<linearGradient id="paint45_linear_16563_161712" x1="592.422" y1="-331.774" x2="1543.16" y2="311.414" gradientUnits="userSpaceOnUse">
<stop stop-color="#914CEB"/>
<stop offset="0.2" stop-color="#CD5C5C"/>
<stop offset="0.4" stop-color="#FF8C00"/>
<stop offset="0.6" stop-color="#EEE8AA"/>
<stop offset="0.8" stop-color="#2E8B57"/>
<stop offset="1" stop-color="#4682B4"/>
</linearGradient>
<linearGradient id="paint46_linear_16563_161712" x1="605.411" y1="-350.575" x2="1498.25" y2="368.556" gradientUnits="userSpaceOnUse">
<stop stop-color="#914CEB"/>
<stop offset="0.2" stop-color="#CD5C5C"/>
<stop offset="0.4" stop-color="#FF8C00"/>
<stop offset="0.6" stop-color="#EEE8AA"/>
<stop offset="0.8" stop-color="#2E8B57"/>
<stop offset="1" stop-color="#4682B4"/>
</linearGradient>
<linearGradient id="paint47_linear_16563_161712" x1="619.931" y1="-368.223" x2="1448.96" y2="421.472" gradientUnits="userSpaceOnUse">
<stop stop-color="#914CEB"/>
<stop offset="0.2" stop-color="#CD5C5C"/>
<stop offset="0.4" stop-color="#FF8C00"/>
<stop offset="0.6" stop-color="#EEE8AA"/>
<stop offset="0.8" stop-color="#2E8B57"/>
<stop offset="1" stop-color="#4682B4"/>
</linearGradient>
<linearGradient id="paint48_linear_16563_161712" x1="635.892" y1="-384.655" x2="1395.75" y2="469.812" gradientUnits="userSpaceOnUse">
<stop stop-color="#914CEB"/>
<stop offset="0.2" stop-color="#CD5C5C"/>
<stop offset="0.4" stop-color="#FF8C00"/>
<stop offset="0.6" stop-color="#EEE8AA"/>
<stop offset="0.8" stop-color="#2E8B57"/>
<stop offset="1" stop-color="#4682B4"/>
</linearGradient>
<linearGradient id="paint49_linear_16563_161712" x1="653.178" y1="-399.717" x2="1339.05" y2="513.375" gradientUnits="userSpaceOnUse">
<stop stop-color="#914CEB"/>
<stop offset="0.2" stop-color="#CD5C5C"/>
<stop offset="0.4" stop-color="#FF8C00"/>
<stop offset="0.6" stop-color="#EEE8AA"/>
<stop offset="0.8" stop-color="#2E8B57"/>
<stop offset="1" stop-color="#4682B4"/>
</linearGradient>
<linearGradient id="paint50_linear_16563_161712" x1="671.671" y1="-413.331" x2="1279.31" y2="551.946" gradientUnits="userSpaceOnUse">
<stop stop-color="#914CEB"/>
<stop offset="0.2" stop-color="#CD5C5C"/>
<stop offset="0.4" stop-color="#FF8C00"/>
<stop offset="0.6" stop-color="#EEE8AA"/>
<stop offset="0.8" stop-color="#2E8B57"/>
<stop offset="1" stop-color="#4682B4"/>
</linearGradient>
<linearGradient id="paint51_linear_16563_161712" x1="691.244" y1="-425.379" x2="1216.96" y2="585.402" gradientUnits="userSpaceOnUse">
<stop stop-color="#914CEB"/>
<stop offset="0.2" stop-color="#CD5C5C"/>
<stop offset="0.4" stop-color="#FF8C00"/>
<stop offset="0.6" stop-color="#EEE8AA"/>
<stop offset="0.8" stop-color="#2E8B57"/>
<stop offset="1" stop-color="#4682B4"/>
</linearGradient>
<linearGradient id="paint52_linear_16563_161712" x1="711.763" y1="-435.793" x2="1152.43" y2="613.619" gradientUnits="userSpaceOnUse">
<stop stop-color="#914CEB"/>
<stop offset="0.2" stop-color="#CD5C5C"/>
<stop offset="0.4" stop-color="#FF8C00"/>
<stop offset="0.6" stop-color="#EEE8AA"/>
<stop offset="0.8" stop-color="#2E8B57"/>
<stop offset="1" stop-color="#4682B4"/>
</linearGradient>
<linearGradient id="paint53_linear_16563_161712" x1="733.089" y1="-444.511" x2="1086.14" y2="636.508" gradientUnits="userSpaceOnUse">
<stop stop-color="#914CEB"/>
<stop offset="0.2" stop-color="#CD5C5C"/>
<stop offset="0.4" stop-color="#FF8C00"/>
<stop offset="0.6" stop-color="#EEE8AA"/>
<stop offset="0.8" stop-color="#2E8B57"/>
<stop offset="1" stop-color="#4682B4"/>
</linearGradient>
<linearGradient id="paint54_linear_16563_161712" x1="755.073" y1="-451.453" x2="1018.47" y2="654.036" gradientUnits="userSpaceOnUse">
<stop stop-color="#914CEB"/>
<stop offset="0.2" stop-color="#CD5C5C"/>
<stop offset="0.4" stop-color="#FF8C00"/>
<stop offset="0.6" stop-color="#EEE8AA"/>
<stop offset="0.8" stop-color="#2E8B57"/>
<stop offset="1" stop-color="#4682B4"/>
</linearGradient>
<linearGradient id="paint55_linear_16563_161712" x1="777.565" y1="-456.566" x2="949.812" y2="666.174" gradientUnits="userSpaceOnUse">
<stop stop-color="#914CEB"/>
<stop offset="0.2" stop-color="#CD5C5C"/>
<stop offset="0.4" stop-color="#FF8C00"/>
<stop offset="0.6" stop-color="#EEE8AA"/>
<stop offset="0.8" stop-color="#2E8B57"/>
<stop offset="1" stop-color="#4682B4"/>
</linearGradient>
<linearGradient id="paint56_linear_16563_161712" x1="800.411" y1="-459.847" x2="880.54" y2="672.871" gradientUnits="userSpaceOnUse">
<stop stop-color="#914CEB"/>
<stop offset="0.2" stop-color="#CD5C5C"/>
<stop offset="0.4" stop-color="#FF8C00"/>
<stop offset="0.6" stop-color="#EEE8AA"/>
<stop offset="0.8" stop-color="#2E8B57"/>
<stop offset="1" stop-color="#4682B4"/>
</linearGradient>
<linearGradient id="paint57_linear_16563_161712" x1="823.456" y1="-461.27" x2="811.018" y2="674.122" gradientUnits="userSpaceOnUse">
<stop stop-color="#914CEB"/>
<stop offset="0.2" stop-color="#CD5C5C"/>
<stop offset="0.4" stop-color="#FF8C00"/>
<stop offset="0.6" stop-color="#EEE8AA"/>
<stop offset="0.8" stop-color="#2E8B57"/>
<stop offset="1" stop-color="#4682B4"/>
</linearGradient>
<linearGradient id="paint58_linear_16563_161712" x1="846.538" y1="-460.784" x2="741.604" y2="669.971" gradientUnits="userSpaceOnUse">
<stop stop-color="#914CEB"/>
<stop offset="0.2" stop-color="#CD5C5C"/>
<stop offset="0.4" stop-color="#FF8C00"/>
<stop offset="0.6" stop-color="#EEE8AA"/>
<stop offset="0.8" stop-color="#2E8B57"/>
<stop offset="1" stop-color="#4682B4"/>
</linearGradient>
<linearGradient id="paint59_linear_16563_161712" x1="869.502" y1="-458.409" x2="672.658" y2="660.411" gradientUnits="userSpaceOnUse">
<stop stop-color="#914CEB"/>
<stop offset="0.2" stop-color="#CD5C5C"/>
<stop offset="0.4" stop-color="#FF8C00"/>
<stop offset="0.6" stop-color="#EEE8AA"/>
<stop offset="0.8" stop-color="#2E8B57"/>
<stop offset="1" stop-color="#4682B4"/>
</linearGradient>
<linearGradient id="paint60_linear_16563_161712" x1="892.19" y1="-454.2" x2="604.548" y2="645.423" gradientUnits="userSpaceOnUse">
<stop stop-color="#914CEB"/>
<stop offset="0.2" stop-color="#CD5C5C"/>
<stop offset="0.4" stop-color="#FF8C00"/>
<stop offset="0.6" stop-color="#EEE8AA"/>
<stop offset="0.8" stop-color="#2E8B57"/>
<stop offset="1" stop-color="#4682B4"/>
</linearGradient>
<linearGradient id="paint61_linear_16563_161712" x1="914.443" y1="-448.139" x2="537.642" y2="625.088" gradientUnits="userSpaceOnUse">
<stop stop-color="#914CEB"/>
<stop offset="0.2" stop-color="#CD5C5C"/>
<stop offset="0.4" stop-color="#FF8C00"/>
<stop offset="0.6" stop-color="#EEE8AA"/>
<stop offset="0.8" stop-color="#2E8B57"/>
<stop offset="1" stop-color="#4682B4"/>
</linearGradient>
<linearGradient id="paint62_linear_16563_161712" x1="936.111" y1="-440.311" x2="472.327" y2="599.41" gradientUnits="userSpaceOnUse">
<stop stop-color="#914CEB"/>
<stop offset="0.2" stop-color="#CD5C5C"/>
<stop offset="0.4" stop-color="#FF8C00"/>
<stop offset="0.6" stop-color="#EEE8AA"/>
<stop offset="0.8" stop-color="#2E8B57"/>
<stop offset="1" stop-color="#4682B4"/>
</linearGradient>
</defs>
</svg>
