<svg width="430" height="606" viewBox="0 0 430 606" fill="none" xmlns="http://www.w3.org/2000/svg">
<g opacity="0.5">
<path opacity="0.2" d="M143.8 142.964C152.399 122.439 155.545 96.4502 64.8153 95.5288C52.192 95.4006 39.4922 97.155 27.2116 100.08C-49.135 118.261 -104.991 183.682 -110.979 261.935L-111.283 265.902C-112.101 276.595 -111.982 287.447 -110.949 298.121C-104.722 362.456 -66.9496 420.287 -10.2744 451.363C49.8628 484.338 122.944 483.461 182.236 448.989L226.886 423.029C272.699 396.394 298.068 344.88 291.253 292.327C280.467 209.143 111.388 220.33 143.8 142.964Z" stroke="url(#paint0_linear_16603_82213)"/>
<path opacity="0.2" d="M158.096 138.808C168.418 119.044 173.608 93.4879 83.4854 85.4933C70.9065 84.3775 58.0873 85.1339 45.5829 87.0899C-32.0884 99.2399 -93.4712 160.022 -106.287 237.475L-106.957 241.524C-108.708 252.11 -109.541 262.928 -109.447 273.64C-108.88 338.248 -76.3373 398.814 -22.5428 434.239C34.5224 471.818 107.425 476.625 169.56 446.894L216.279 424.539C264.274 401.574 294.069 352.245 291.885 299.364C288.426 215.608 119.111 213.449 158.096 138.808Z" stroke="url(#paint1_linear_16603_82213)"/>
<path opacity="0.2" d="M172.876 135.542C184.75 116.701 191.481 91.8739 103 76.9597C90.5323 74.8582 77.663 74.6101 65.0013 75.5841C-13.4479 81.6191 -79.8894 137.257 -99.4014 213.255L-100.514 217.588C-103.183 227.982 -104.961 238.728 -105.805 249.392C-110.887 313.624 -83.837 376.659 -33.3983 416.116C20.2454 458.08 92.613 468.582 157.219 443.78L205.572 425.218C255.431 406.078 289.435 359.318 291.89 306.521C295.786 222.743 127.762 207.129 172.876 135.542Z" stroke="url(#paint2_linear_16603_82213)"/>
<path opacity="0.2" d="M188.091 133.237C201.317 115.45 209.078 91.5313 123.222 69.9919C110.933 66.909 98.0846 65.6524 85.3335 65.6332C6.65819 65.5149 -64.3176 115.552 -90.3189 189.466L-92.0037 194.255C-95.564 204.376 -98.2441 214.759 -100.015 225.29L-100.313 227.069C-110.95 290.335 -89.3959 353.961 -42.7094 397.113C7.17536 443.222 78.6119 459.402 145.303 439.696L194.838 425.06C246.231 409.874 284.186 366.049 291.244 313.744C302.477 230.494 137.318 201.514 188.091 133.237Z" stroke="url(#paint3_linear_16603_82213)"/>
<path opacity="0.2" d="M203.674 131.964C218.025 115.336 226.34 92.3896 144.008 64.6455C131.968 60.5884 119.212 58.3223 106.442 57.3013C28.093 51.0369 -46.8444 95.0742 -79.0582 166.312L-81.4879 171.684C-85.9058 181.454 -89.4727 191.552 -92.1497 201.869L-92.8172 204.441C-108.842 266.197 -92.9672 330.872 -50.3741 377.361C-4.57339 427.352 65.5169 449.161 133.89 434.698L184.153 424.065C236.736 412.942 278.346 372.387 289.928 320.972C308.439 238.801 147.744 196.764 203.674 131.964Z" stroke="url(#paint4_linear_16603_82213)"/>
<path opacity="0.2" d="M219.531 131.791C234.764 116.387 243.232 94.3792 165.21 60.9529C153.491 55.9324 140.903 52.6594 128.186 50.6309C50.711 38.2722 -27.5769 75.975 -65.6653 143.988L-69.0421 150.018C-74.276 159.364 -78.6942 169.101 -82.2492 179.125L-83.4903 182.624C-104.675 242.359 -94.5151 307.54 -56.3114 356.981C-14.9065 410.565 53.4138 437.935 123.05 428.836L173.59 422.232C227.011 415.252 271.947 378.272 287.934 328.132C313.616 247.587 158.964 193.035 219.531 131.791Z" stroke="url(#paint5_linear_16603_82213)"/>
<path opacity="0.2" d="M235.555 132.781C251.414 118.629 259.73 97.4521 186.676 58.9458C175.353 52.977 163.008 48.7038 150.421 45.666C74.3607 27.3091 -6.63859 58.4107 -50.2127 122.704L-54.7524 129.402C-60.7539 138.258 -65.9807 147.563 -70.3776 157.221L-72.4243 161.717C-98.4895 218.97 -94.0159 284.129 -60.4505 336.117C-23.7376 392.981 42.3791 425.815 112.844 422.177L163.227 419.576C217.124 416.793 265.027 383.656 285.262 335.158C317.964 256.782 170.889 190.485 235.555 132.781Z" stroke="url(#paint6_linear_16603_82213)"/>
<path opacity="0.2" d="M251.616 135.001C267.848 122.089 275.812 101.588 208.252 58.6556C197.4 51.7592 185.379 46.4977 173.001 42.4535C98.8816 18.237 15.827 42.5409 -32.804 102.677L-38.7187 109.991C-45.4339 118.295 -51.4208 127.105 -56.6169 136.329L-59.7104 141.82C-90.3331 196.18 -91.463 260.818 -62.7364 314.937C-30.9934 374.74 32.4774 412.91 103.319 414.801L153.134 416.13C207.141 417.572 257.629 388.509 281.922 341.996C321.445 266.322 183.388 189.275 251.616 135.001Z" stroke="url(#paint7_linear_16603_82213)"/>
<path opacity="0.2" d="M267.576 138.466C283.947 126.741 291.462 106.744 229.784 60.0671C219.481 52.2702 207.866 46.0383 195.779 40.9963C124.111 11.0999 39.6634 28.4799 -13.5669 84.0814L-21.0482 91.8959C-28.419 99.595 -35.1123 107.851 -41.0595 116.579L-45.4323 122.996C-80.2597 174.109 -86.8618 237.757 -63.1269 293.584C-36.6096 355.956 23.7663 399.299 94.5176 406.755L143.385 411.904C197.13 417.568 249.805 392.769 277.936 348.557C324.035 276.108 196.315 189.505 267.576 138.466Z" stroke="url(#paint8_linear_16603_82213)"/>
<path opacity="0.2" d="M283.283 143.188C299.589 132.568 306.656 112.904 251.114 63.1655C241.441 54.5027 230.314 47.325 218.604 41.3007C149.878 5.94323 64.6948 16.3414 7.34071 67.0894L-1.8624 75.2325C-9.82747 82.2801 -17.1699 89.9307 -23.8157 98.1074L-29.6737 105.315C-68.3338 152.88 -80.2376 215.109 -61.6009 272.221C-40.539 336.765 16.2899 385.075 86.471 398.097L134.045 406.923C187.157 416.778 241.607 396.391 273.333 354.771C325.717 286.052 209.487 191.254 283.283 143.188Z" stroke="url(#paint9_linear_16603_82213)"/>
<path opacity="0.2" d="M298.565 149.186C314.661 139.569 321.389 120.098 272.092 67.9361C263.128 58.4504 252.575 50.3597 241.329 43.3762C176.011 2.81316 90.7373 6.2361 29.743 51.8694L18.7124 60.122C10.2165 66.4783 2.28498 73.4791 -5.00381 81.0553L-12.5106 88.8581C-54.6234 132.631 -71.6277 193.05 -58.1521 251.029C-42.7444 317.321 10.0868 370.348 79.2081 388.897L125.182 401.235C177.291 415.218 233.101 399.35 268.159 360.583C326.489 296.081 222.655 194.539 298.565 149.186Z" stroke="url(#paint10_linear_16603_82213)"/>
<path opacity="0.2" d="M313.274 156.43C329.061 147.708 335.607 128.327 292.567 74.3425C284.391 64.0863 274.496 55.1238 263.804 47.2133C202.333 1.73419 117.592 -1.75238 53.4411 38.5582L40.5371 46.6666C31.575 52.2981 23.1161 58.6109 15.2423 65.5437L5.97806 73.7009C-39.208 113.487 -61.0895 171.742 -52.7979 230.18C-43.2076 297.772 5.18365 355.215 72.7494 379.214L116.854 394.879C167.595 412.901 224.35 401.62 262.46 365.936C326.354 306.112 235.612 199.337 313.274 156.43Z" stroke="url(#paint11_linear_16603_82213)"/>
<path opacity="0.2" d="M327.254 164.877C342.69 156.949 349.261 137.601 312.395 82.3259C305.082 71.3612 295.929 61.5777 285.879 52.7818C228.668 2.7077 145.054 -7.56941 78.2227 27.2584L63.4661 34.9484C54.1029 39.8279 45.1791 45.4205 36.7798 51.673L25.7137 59.9107C-22.1746 95.5593 -48.6953 151.336 -45.5745 209.839C-41.9248 278.257 1.60025 339.768 67.1135 369.092L109.116 387.893C158.133 409.833 215.424 403.168 256.298 370.771C325.328 316.058 248.101 205.532 327.254 164.877Z" stroke="url(#paint12_linear_16603_82213)"/>
<path opacity="0.2" d="M340.341 174.491C355.451 167.283 362.296 147.97 331.436 91.8303C325.059 80.2293 316.729 69.6851 307.409 60.0556C254.836 5.73616 172.913 -11.166 103.866 18.061L87.3473 25.053C77.6478 29.1587 68.322 34.0047 59.4574 39.5455L46.6152 47.5724C-3.61841 78.9708 -34.5323 131.987 -36.5375 190.177C-38.9068 258.933 -0.649742 324.108 62.3187 358.589L102.02 380.33C148.968 406.039 206.395 403.987 249.737 375.051C323.436 325.848 259.816 212.905 340.341 174.491Z" stroke="url(#paint13_linear_16603_82213)"/>
<path opacity="0.2" d="M352.405 185.204C367.251 178.674 374.615 159.443 349.56 102.787C344.184 90.631 336.754 79.3963 328.248 68.9957C280.66 10.8064 200.957 -12.5158 130.142 11.0277L112.021 17.0526C102.049 20.3677 92.3845 24.4454 83.1154 29.248L68.594 36.7718C16.3548 63.8381 -18.7033 113.844 -25.7628 171.359C-34.1813 239.947 -1.56014 308.334 58.3816 347.759L95.6118 372.246C140.163 401.549 197.337 404.072 242.847 378.746C320.709 335.415 270.526 221.222 352.405 185.204Z" stroke="url(#paint14_linear_16603_82213)"/>
<path opacity="0.2" d="M363.323 196.932C377.992 191.076 386.109 172.017 366.643 115.107C362.327 102.488 355.866 90.6422 348.254 79.5431C305.963 17.8823 228.97 -11.6221 156.822 6.18472L137.249 11.0156C127.117 13.5163 117.222 16.7934 107.653 20.8171L91.552 27.588C37.6281 50.2641 -1.32621 97.0335 -13.345 153.53C-27.7917 221.438 -1.13156 292.537 55.3185 336.645L89.9316 363.69C131.773 396.384 188.323 403.42 235.7 381.828C317.183 344.691 280.022 230.187 363.323 196.932Z" stroke="url(#paint15_linear_16603_82213)"/>
<path opacity="0.2" d="M372.968 209.589C387.571 204.45 396.66 185.697 382.574 128.706C379.365 115.722 373.935 103.348 367.288 91.6326C330.57 26.9191 256.744 -8.50282 183.68 3.53748L162.948 6.95408C152.708 8.64139 142.637 11.1149 132.823 14.3523L115.381 20.1058C60.0753 38.3501 17.4704 81.6772 0.606409 136.827C-19.7941 203.541 0.631436 276.808 53.148 325.294L85.0173 354.718C123.857 390.577 179.426 402.037 228.368 384.282C312.902 353.615 288.119 239.443 372.968 209.589Z" stroke="url(#paint16_linear_16603_82213)"/>
<path opacity="0.2" d="M381.237 223.062C395.881 218.729 406.131 200.449 397.246 143.48C395.181 130.237 390.836 117.425 385.218 105.185C354.312 37.8554 284.074 -3.19778 210.497 3.06481L188.946 4.89919C178.651 5.77546 168.453 7.4439 158.445 9.88952L139.962 14.4058C83.5595 28.1875 37.5467 67.8815 15.9681 121.372C-10.2579 186.382 3.71972 261.24 51.8905 313.756L80.902 345.385C116.47 384.162 170.718 399.937 220.924 386.103C307.913 362.134 294.744 248.656 381.237 223.062Z" stroke="url(#paint17_linear_16603_82213)"/>
<path opacity="0.2" d="M388.037 237.246C402.812 233.843 414.378 216.234 410.563 159.33C409.665 145.939 406.449 132.797 401.913 120.132C377.022 50.6371 310.759 4.25596 237.063 4.74426L215.068 4.89C204.766 4.95826 194.491 5.82092 184.336 7.47027L165.156 10.5855C107.931 19.8798 58.7507 55.7596 32.6028 107.291C0.733764 170.097 8.11563 245.941 51.5638 302.102L77.6118 335.771C109.662 377.198 162.264 397.16 213.434 387.313C302.259 370.22 299.917 257.538 388.037 237.246Z" stroke="url(#paint18_linear_16603_82213)"/>
<path opacity="0.2" d="M393.293 251.962C408.259 249.65 421.256 232.94 422.44 176.111C422.719 162.686 420.665 149.326 417.252 136.341C398.539 65.1454 336.611 13.7538 263.18 8.48342L241.136 6.90124C230.874 6.16469 220.57 6.22115 210.316 7.07011L190.812 8.68491C133.03 13.4688 80.9246 45.3592 50.3664 94.6429C13.089 154.763 13.7981 230.971 52.1877 290.356L75.1696 325.906C103.479 369.698 154.127 393.701 205.96 387.89C295.99 377.798 303.76 265.796 393.293 251.962Z" stroke="url(#paint19_linear_16603_82213)"/>
<path opacity="0.2" d="M396.954 267.083C412.131 266.045 426.628 250.493 432.808 193.739C434.262 180.394 433.386 166.933 431.125 153.737C418.715 81.3147 361.454 25.2422 288.672 14.2397L266.975 10.9598C256.8 9.42163 246.513 8.67146 236.207 8.71598L216.768 8.79994C158.691 9.05079 103.907 36.7797 69.1119 83.5358C26.7107 140.512 20.743 216.457 53.7829 278.614L73.5964 315.889C97.9698 361.742 146.369 389.627 198.563 387.887C289.155 384.868 306.493 273.269 396.954 267.083Z" stroke="url(#paint20_linear_16603_82213)"/>
<path opacity="0.2" d="M398.991 282.418C414.347 282.854 430.362 268.75 441.605 212.083C444.214 198.931 444.521 185.484 443.426 172.188C437.405 99.0224 385.121 38.6099 313.371 21.9133L292.403 17.034C282.362 14.6975 272.141 13.1403 261.83 12.3763L242.842 10.9695C184.737 6.66427 127.53 30.0608 88.6856 74.0163C41.4915 127.42 28.9157 202.481 56.3637 266.935L72.904 305.775C93.1734 353.373 139.041 384.964 191.291 387.314C281.799 391.386 308.4 279.844 398.991 282.418Z" stroke="url(#paint21_linear_16603_82213)"/>
<path opacity="0.2" d="M399.407 297.772C414.857 299.884 432.347 287.545 448.777 231.011C452.512 218.159 453.989 204.843 454.064 191.558C454.476 118.136 407.457 53.7365 337.129 31.3971L317.242 25.0801C307.385 21.9489 297.277 19.5845 287.01 18.0082L268.841 15.2186C210.983 6.33522 151.623 25.2296 108.934 66.1173C57.3195 115.554 38.2749 189.125 59.9403 255.384L73.0986 295.626C89.1246 344.638 132.19 379.746 184.187 386.19C273.967 397.314 309.804 285.522 399.407 297.772Z" stroke="url(#paint22_linear_16603_82213)"/>
<path opacity="0.2" d="M398.242 312.987C413.639 316.964 432.491 306.73 454.281 250.438C459.099 237.99 461.725 224.905 462.958 211.739C469.808 138.553 428.324 70.5315 359.817 42.6167L341.318 35.0788C331.695 31.1577 321.752 27.9868 311.581 25.595L294.561 21.5929C237.238 8.11319 176.016 22.338 129.708 59.8962C74.0813 105.012 48.7732 176.514 64.5181 244.072L74.1825 285.541C85.8554 335.627 125.858 374.048 177.288 384.57C265.704 402.659 311.018 290.458 398.242 312.987Z" stroke="url(#paint23_linear_16603_82213)"/>
<path opacity="0.2" d="M395.568 327.846C410.711 333.846 430.729 326.07 458.08 270.196C463.929 258.247 467.673 245.489 470.04 232.547C483.292 160.09 447.596 88.8262 381.318 55.4243L364.451 46.9237C355.12 42.2212 345.401 38.2477 335.384 35.0399L319.791 30.0467C263.31 11.9606 200.54 21.3541 150.859 55.3274C91.6597 95.8098 60.3527 164.698 70.0924 233.046L76.1495 275.552C83.3903 326.364 120.08 367.877 170.624 382.444C257.053 407.354 312.285 294.847 395.568 327.846Z" stroke="url(#paint24_linear_16603_82213)"/>
<path opacity="0.2" d="M391.499 342.228C406.14 350.354 427.041 345.365 460.154 290.179C466.972 278.815 471.791 266.481 475.258 253.862C494.834 182.624 465.16 108.515 401.534 69.7399L386.414 60.5251C377.478 55.0793 368.089 50.3334 358.333 46.3316L344.311 40.5794C289.001 17.8907 225.029 22.3011 172.247 52.4418C109.937 88.0237 72.9471 153.796 76.6497 222.425L78.9875 265.758C81.7488 316.942 114.888 361.308 164.221 379.866C248.058 411.404 313.731 299.062 391.499 342.228Z" stroke="url(#paint25_linear_16603_82213)"/>
<path opacity="0.2" d="M386.151 355.992C400.008 366.291 421.427 364.395 460.488 310.245C468.207 299.544 474.048 287.722 478.572 275.518C504.35 205.983 480.917 129.446 420.376 85.4437L407.113 75.8035C398.633 69.6403 389.636 64.1426 380.208 59.3629L367.901 53.1243C314.114 25.8575 249.316 25.1492 193.733 51.2204C128.792 81.6807 86.4791 143.881 84.1631 212.289L82.6759 256.217C80.9426 307.415 110.304 354.378 158.097 376.849C238.76 414.776 315.354 303.374 386.151 355.992Z" stroke="url(#paint26_linear_16603_82213)"/>
<path opacity="0.2" d="M379.655 369.058C392.43 381.508 413.923 382.964 459.081 330.278C467.627 320.308 474.43 309.078 479.959 297.373C511.778 230.019 494.781 151.493 437.768 102.447L426.402 92.6693C418.439 85.8192 409.898 79.5957 400.862 74.0591L390.347 67.6165C338.458 35.824 273.244 29.8844 215.188 51.6631C148.107 76.8273 100.863 135.051 92.5956 202.748L87.1897 247.011C80.9788 297.868 106.349 347.15 152.27 373.43C229.205 417.46 317.047 308.047 379.655 369.058Z" stroke="url(#paint27_linear_16603_82213)"/>
<path opacity="0.2" d="M372.161 381.366C383.563 395.854 404.624 400.818 455.938 350.128C465.233 340.946 472.933 330.38 479.41 319.25C517.065 254.542 506.679 174.489 453.64 120.627L444.145 110.985C436.759 103.484 428.737 96.5664 420.159 90.2996L411.437 83.9285C361.841 47.6984 296.657 36.446 236.486 53.7278C167.759 73.467 116.004 127.358 101.896 193.872L92.496 238.187C81.8567 288.346 103.039 339.653 146.755 369.608C219.442 419.415 318.587 313.291 372.161 381.366Z" stroke="url(#paint28_linear_16603_82213)"/>
<path opacity="0.2" d="M363.786 392.91C373.551 409.259 393.638 417.786 451.077 369.686C461.043 361.34 469.57 351.5 476.932 341.013C520.177 279.401 516.547 198.311 467.929 139.908L460.216 130.643C453.466 122.534 446.026 114.96 437.97 107.995L430.975 101.949C384.084 61.4121 319.404 44.8044 257.508 57.4082C187.63 71.6374 131.796 120.893 111.999 185.771L98.5568 229.825C83.57 278.94 100.386 331.954 141.569 365.42C209.52 420.64 319.753 319.184 363.786 392.91Z" stroke="url(#paint29_linear_16603_82213)"/>
<path opacity="0.2" d="M354.63 403.655C362.531 421.632 381.093 433.675 444.525 388.796C455.082 381.327 464.365 372.268 472.545 362.481C521.095 304.398 524.335 222.786 480.576 160.171L474.502 151.48C468.444 142.812 461.645 134.625 454.176 127.003L448.78 121.496C405.016 76.8334 341.343 54.8749 278.139 62.6479C207.597 71.3235 148.126 115.686 122.83 178.501L105.329 221.958C86.1055 269.691 98.3989 324.073 136.727 360.855C199.494 421.091 320.351 325.661 354.63 403.655Z" stroke="url(#paint30_linear_16603_82213)"/>
<path opacity="0.2" d="M344.782 413.655C350.651 432.973 367.172 448.339 436.319 407.353C447.389 400.791 457.354 392.559 466.286 383.524C519.816 329.38 529.999 247.786 491.518 181.345L486.9 173.373C481.588 164.2 475.49 155.452 468.67 147.218L464.692 142.415C424.476 93.8615 362.333 66.6105 298.265 69.4337C227.538 72.5504 164.876 111.808 134.298 172.158L112.762 214.661C89.4435 260.685 97.0828 316.079 132.247 355.948C189.421 420.772 320.185 332.695 344.782 413.655Z" stroke="url(#paint31_linear_16603_82213)"/>
<path opacity="0.2" d="M334.3 422.916C338.026 443.265 352.056 461.646 426.51 425.22C438.017 419.591 448.589 412.224 458.204 403.986C516.351 354.165 533.507 273.152 500.697 203.326L497.327 196.154C492.809 186.539 487.466 177.286 481.353 168.494L478.575 164.498C442.323 112.348 382.243 79.9228 317.778 77.7154C247.33 75.3031 181.919 109.284 146.307 166.794L120.808 207.973C93.5605 251.974 96.4435 308.005 128.152 350.7C179.365 419.66 319.144 340.144 334.3 422.916Z" stroke="url(#paint32_linear_16603_82213)"/>
<path opacity="0.2" d="M323.224 431.458C324.752 452.523 335.939 473.505 415.158 442.277C427.026 437.599 438.133 431.13 448.363 423.725C510.729 378.582 534.835 298.736 508.05 226.02L505.71 219.667C502.03 209.677 497.491 199.984 492.14 190.693L490.324 187.539C458.428 132.146 400.947 94.7289 336.569 87.4527C266.851 79.5729 199.127 108.142 158.749 162.464L129.409 201.939C98.4261 243.622 96.4829 299.899 124.465 345.127C169.393 417.748 317.158 347.872 323.224 431.458Z" stroke="url(#paint33_linear_16603_82213)"/>
<path opacity="0.2" d="M311.578 439.301C310.906 460.774 319.026 483.859 402.334 458.411C414.491 454.698 426.06 449.154 436.837 442.615C502.993 402.474 533.97 324.391 513.514 249.333L511.993 243.752C509.188 233.46 505.496 223.397 500.958 213.674L499.862 211.328C472.684 153.104 418.325 110.942 354.531 98.6052C285.976 85.3475 216.368 108.399 171.514 159.213L138.508 196.605C104.006 235.692 97.2025 291.811 121.215 339.251C159.576 415.04 314.192 355.754 311.578 439.301Z" stroke="url(#paint34_linear_16603_82213)"/>
<path opacity="0.2" d="M299.375 446.428C296.543 468.017 301.522 492.652 388.12 473.488C400.494 470.75 412.454 466.152 423.711 460.506C493.198 425.654 530.904 349.941 517.023 273.132L516.135 268.218C514.234 257.702 511.426 247.346 507.741 237.263L507.142 235.623C484.999 175.035 434.265 128.44 371.555 111.098C304.581 92.5778 233.508 110.033 184.484 157.042L148.043 191.987C110.259 228.218 98.6 283.766 118.432 333.069C149.987 411.516 310.236 363.641 299.375 446.428Z" stroke="url(#paint35_linear_16603_82213)"/>
<path opacity="0.2" d="M286.623 452.857C281.705 474.299 283.63 499.908 372.607 487.427C385.131 485.67 397.411 482.037 409.082 477.307C481.416 447.995 525.641 375.255 518.513 297.324L518.11 292.923C517.135 282.265 515.199 271.547 512.403 261.183C495.558 198.741 448.661 147.14 387.533 124.9C322.542 101.255 250.417 113.058 197.543 155.991L157.95 188.14C117.141 221.277 100.673 275.836 116.149 326.631C140.702 407.216 305.295 371.448 286.623 452.857Z" stroke="url(#paint36_linear_16603_82213)"/>
<path opacity="0.2" d="M273.327 458.546C266.426 479.604 265.533 505.635 355.9 500.108C368.506 499.337 381.037 496.682 393.057 492.889C467.73 469.326 518.199 400.155 517.925 321.753L517.91 317.675C517.873 306.959 516.889 296.151 515.008 285.586C503.663 221.872 461.41 166.906 402.381 139.937C339.761 111.327 266.966 117.43 210.575 156.038L168.164 185.075C124.604 214.898 103.416 268.051 114.402 319.949C131.799 402.14 299.383 379.043 273.327 458.546Z" stroke="url(#paint37_linear_16603_82213)"/>
<path opacity="0.2" d="M259.499 463.457C250.739 483.922 247.391 509.887 338.109 511.444C350.731 511.66 363.445 509.995 375.748 507.157C452.235 489.51 508.604 424.483 515.206 346.274L515.541 342.309C516.443 331.622 516.41 320.769 515.461 310.088C509.739 245.711 472.422 187.618 415.992 156.145C356.115 122.749 283.029 123.115 223.468 157.17L178.615 182.817C132.595 209.13 106.822 260.464 113.223 313.063C123.356 396.322 292.517 386.32 259.499 463.457Z" stroke="url(#paint38_linear_16603_82213)"/>
<path opacity="0.2" d="M245.157 467.535C234.688 487.222 229.34 512.723 319.357 521.346C331.929 522.55 344.756 521.883 357.277 520.015C435.04 508.409 496.896 448.067 510.317 370.719L511.023 366.652C512.858 356.08 513.775 345.269 513.765 334.558C513.706 269.946 481.646 209.157 428.124 173.351C371.351 135.371 298.489 130.06 236.117 159.357L189.234 181.379C141.058 204.007 110.877 253.122 112.646 306.012C115.447 389.792 284.71 393.154 245.157 467.535Z" stroke="url(#paint39_linear_16603_82213)"/>
<path opacity="0.2" d="M230.337 470.718C218.333 489.47 211.489 514.221 299.775 529.742C312.229 531.932 325.099 532.27 337.772 531.385C416.264 525.9 483.134 470.745 503.236 394.909L504.394 390.541C507.144 380.168 508.992 369.595 509.92 358.94L510.025 357.723C515.61 293.555 488.973 231.366 438.855 191.565C385.534 149.22 313.233 138.207 248.424 162.559L199.947 180.775C149.937 199.566 115.568 246.077 112.699 298.847C108.145 382.6 275.977 399.418 230.337 470.718Z" stroke="url(#paint40_linear_16603_82213)"/>
<path opacity="0.2" d="M215.087 472.928C201.75 490.614 193.92 514.448 279.497 536.561C291.766 539.732 304.609 541.079 317.365 541.187C396.034 541.857 467.388 492.341 493.958 418.643L495.702 413.806C499.341 403.714 502.101 393.353 503.954 382.838L504.278 380.995C515.405 317.842 494.356 254.1 448.023 210.634C398.491 164.166 327.157 147.48 260.299 166.722L210.68 181.003C159.167 195.828 120.872 239.374 113.405 291.616C101.517 374.792 266.342 404.956 215.087 472.928Z" stroke="url(#paint41_linear_16603_82213)"/>
<path opacity="0.2" d="M199.476 474.107C185.035 490.628 176.692 513.487 258.668 541.763C270.682 545.907 283.426 548.263 296.194 549.374C374.487 556.187 449.75 512.704 482.505 441.734L485.011 436.304C489.503 426.569 493.148 416.5 495.905 406.207L496.615 403.556C513.112 341.962 497.748 277.219 455.537 230.449C410.117 180.125 340.167 157.814 271.664 171.802L221.358 182.074C168.686 192.83 126.763 233.077 114.782 284.393C95.6237 366.441 255.842 409.623 199.476 474.107Z" stroke="url(#paint42_linear_16603_82213)"/>
<path opacity="0.2" d="M183.599 474.18C168.299 489.472 159.833 511.401 237.436 545.307C249.123 550.413 261.693 553.776 274.401 555.895C351.771 568.795 430.328 531.674 468.924 463.974L472.396 457.884C477.701 448.58 482.193 438.878 485.825 428.884L487.129 425.297C508.763 365.766 499.114 300.566 461.316 250.88C420.319 196.989 352.178 169.126 282.449 177.74L231.906 183.983C178.427 190.59 133.211 227.236 116.837 277.243C90.5191 357.617 244.555 413.255 183.599 474.18Z" stroke="url(#paint43_linear_16603_82213)"/>
<path opacity="0.2" d="M167.567 473.075C151.665 487.115 143.374 508.225 215.955 547.155C227.239 553.207 239.558 557.57 252.129 560.698C328.038 579.585 409.248 549.086 453.293 485.147L457.947 478.391C464.015 469.582 469.312 460.319 473.782 450.697L475.913 446.111C502.4 389.101 498.432 323.969 465.292 271.772C429.013 214.631 363.115 181.313 292.598 184.459L242.249 186.705C188.327 189.11 140.176 221.891 119.57 270.225C86.2487 348.381 232.574 415.684 167.567 473.075Z" stroke="url(#paint44_linear_16603_82213)"/>
<path opacity="0.2" d="M151.509 470.749C135.255 483.553 127.329 504.001 194.376 547.297C205.183 554.275 217.17 559.624 229.526 563.758C303.447 588.491 386.653 564.803 435.715 505.058L441.762 497.694C448.539 489.442 454.591 480.679 459.856 471.497L463.055 465.919C494.069 411.836 495.695 347.268 467.41 292.979C436.124 232.931 372.912 194.29 302.059 191.902L252.314 190.226C198.315 188.406 147.615 217.094 122.969 263.414C82.8465 338.82 220.03 416.774 151.509 470.749Z" stroke="url(#paint45_linear_16603_82213)"/>
<path opacity="0.2" d="M135.566 467.173C119.193 478.795 111.721 498.756 172.858 545.734C183.107 553.61 194.682 559.928 206.739 565.058C278.163 595.453 362.703 578.697 416.323 523.518L423.952 515.666C431.379 508.023 438.133 499.82 444.145 491.139L448.643 484.644C483.828 433.838 490.913 370.299 467.63 314.34C441.593 251.757 381.516 207.961 310.796 200.006L262.031 194.521C208.327 188.481 155.477 212.89 127.013 256.881C80.3385 329.017 207.073 416.41 135.566 467.173Z" stroke="url(#paint46_linear_16603_82213)"/>
<path opacity="0.2" d="M119.889 462.34C103.597 472.866 96.5658 492.507 151.551 542.488C161.165 551.227 172.243 558.488 183.915 564.599C252.355 600.433 337.573 590.661 395.272 540.361L404.636 532.198C412.651 525.211 420.048 517.617 426.754 509.492L432.754 502.223C471.739 454.988 484.108 392.905 465.931 335.699C445.368 270.98 388.878 222.237 318.772 208.719L271.329 199.57C218.291 189.343 163.703 209.33 131.667 250.704C78.7367 319.065 193.891 414.527 119.889 462.34Z" stroke="url(#paint47_linear_16603_82213)"/>
<path opacity="0.2" d="M104.655 456.226C88.5825 465.758 81.8773 485.217 130.614 537.567C139.511 547.124 150.008 555.294 161.208 562.362C226.199 603.378 311.45 600.577 372.747 555.412L383.945 547.162C392.485 540.869 400.466 533.928 407.81 526.408L415.47 518.563C457.874 475.14 475.324 414.901 462.312 356.864C447.419 290.437 394.967 237.002 325.965 217.961L280.148 205.318C228.147 190.968 172.235 206.428 136.893 244.928C78.0479 309.03 180.737 411.104 104.655 456.226Z" stroke="url(#paint48_linear_16603_82213)"/>
<path opacity="0.2" d="M90.0035 448.877C74.2478 457.525 67.7096 476.902 110.191 531.021C118.294 541.343 128.125 550.382 138.764 558.373C199.869 604.277 284.533 608.377 348.944 568.552L362.015 560.469C371.016 554.904 379.519 548.655 387.442 541.781L396.867 533.605C442.31 494.184 464.617 436.138 456.789 377.678C447.726 309.994 399.753 252.171 332.351 227.69L288.426 211.736C237.825 193.358 181.005 204.227 142.635 239.623C78.2636 299.008 167.807 406.176 90.0035 448.877Z" stroke="url(#paint49_linear_16603_82213)"/>
<path opacity="0.2" d="M76.0974 440.319C60.6921 448.18 54.1072 467.525 90.4284 522.894C97.6605 533.919 106.743 543.773 116.731 552.646C173.542 603.115 257.027 613.992 324.075 579.662L338.994 572.023C348.39 567.212 357.353 561.685 365.796 555.495L377.023 547.264C425.136 511.992 452.06 456.452 449.4 397.961C446.287 329.492 403.218 267.637 337.912 237.843L296.108 218.771C247.263 196.487 189.943 202.738 148.836 234.832C79.3679 289.068 155.377 399.862 76.0974 440.319Z" stroke="url(#paint50_linear_16603_82213)"/>
<path opacity="0.2" d="M63.0969 430.605C48.0137 437.751 41.132 457.059 71.4638 513.258C77.7538 524.912 86.0065 535.521 95.2568 545.222C147.397 599.904 229.142 617.389 298.366 588.668L315.035 581.752C324.762 577.717 334.121 572.939 343.024 567.463L356.022 559.469C406.448 528.456 437.743 475.699 440.204 417.555C443.115 348.794 405.348 283.312 342.631 248.378L303.144 226.383C256.397 200.345 198.977 201.986 155.429 230.605C81.3361 279.296 143.743 392.396 63.0969 430.605Z" stroke="url(#paint51_linear_16603_82213)"/>
<path opacity="0.2" d="M51.1296 419.802C36.3044 426.272 28.8823 445.492 53.4278 502.18C58.7108 514.381 66.0574 525.674 74.4864 536.14C121.612 594.657 201.093 618.543 272.044 595.511L290.306 589.583C300.294 586.34 309.982 582.334 319.28 577.601L333.951 570.133C386.354 543.457 421.771 493.733 429.278 436.295C438.238 367.746 406.138 299.096 346.49 259.24L309.489 234.516C265.168 204.902 208.034 201.971 162.345 226.968C84.1365 269.757 133.132 384.011 51.1296 419.802Z" stroke="url(#paint52_linear_16603_82213)"/>
<path opacity="0.2" d="M40.321 407.986C25.6617 413.78 17.4666 432.818 36.4429 489.742C40.662 502.398 47.0326 514.294 54.5615 525.451C96.3641 587.403 173.092 617.448 245.338 600.157L265.028 595.444C275.172 593.016 285.085 589.811 294.678 585.857L310.91 579.167C364.969 556.886 404.261 510.417 416.718 454.028C431.702 386.205 405.589 314.89 349.474 270.377L315.101 243.111C273.517 210.125 217.04 202.689 169.511 223.942C87.7308 260.51 123.756 375.006 40.321 407.986Z" stroke="url(#paint53_linear_16603_82213)"/>
<path opacity="0.2" d="M30.795 395.252C16.192 400.323 7.00639 419.041 20.6202 476.033C23.7283 489.045 29.0632 501.463 35.6205 513.228C71.8271 578.194 145.349 614.132 218.475 602.609L239.295 599.328C249.541 597.713 259.627 595.312 269.46 592.145L287.007 586.494C342.423 568.648 385.343 525.639 402.635 470.625C423.563 404.042 403.707 330.609 351.563 281.747L319.945 252.119C281.387 215.989 225.923 204.137 176.855 221.544C92.0767 251.62 115.788 365.742 30.795 395.252Z" stroke="url(#paint54_linear_16603_82213)"/>
<path opacity="0.2" d="M22.6543 381.713C8.0018 385.968 -2.36061 404.197 6.06607 461.161C8.02765 474.422 12.2735 487.268 17.7967 499.55C48.1712 567.092 118.069 608.635 191.672 602.89L213.279 601.203C223.577 600.399 233.783 598.803 243.807 596.428L262.367 592.032C318.854 578.651 365.16 539.291 387.154 485.964C413.893 421.131 400.501 346.16 352.738 293.301L323.988 261.483C288.725 222.457 234.612 206.302 184.307 219.781C97.1282 243.141 109.296 356.549 22.6543 381.713Z" stroke="url(#paint55_linear_16603_82213)"/>
<path opacity="0.2" d="M15.9888 367.482C1.1985 370.794 -10.4916 388.332 -7.12529 445.23C-6.3326 458.628 -3.21968 471.795 1.21736 484.493C25.5612 554.159 91.4504 601.002 165.139 601.03L187.154 601.039C197.454 601.043 207.734 600.252 217.899 598.674L237.125 595.69C294.41 586.799 343.862 551.269 370.411 499.927C402.775 437.342 395.989 361.44 352.98 304.973L327.202 271.129C295.479 229.478 243.039 209.148 191.797 218.636C102.838 235.107 104.248 347.719 15.9888 367.482Z" stroke="url(#paint56_linear_16603_82213)"/>
<path opacity="0.2" d="M10.8725 352.708C-4.11259 354.914 -17.2414 371.531 -18.8714 428.353C-19.2564 441.776 -17.3069 455.149 -13.9962 468.158C4.15682 539.483 65.6803 591.307 139.069 597.092L161.098 598.828C171.354 599.637 181.658 599.653 191.919 598.875L211.433 597.398C269.253 593.019 321.608 561.494 352.553 512.425C390.301 452.567 390.191 376.357 352.269 316.706L329.566 280.995C301.602 237.006 251.143 212.649 199.265 218.096C109.159 227.557 100.513 339.51 10.8725 352.708Z" stroke="url(#paint57_linear_16603_82213)"/>
<path opacity="0.2" d="M7.35606 337.565C-7.83878 338.479 -22.4718 353.914 -29.1019 410.661C-30.6596 423.993 -29.8898 437.458 -27.7327 450.667C-15.8919 523.176 40.9355 579.651 113.641 591.165L135.288 594.593C145.453 596.203 155.736 597.025 166.045 597.053L185.459 597.105C243.549 597.261 298.561 569.913 333.726 523.397C376.571 466.723 383.134 390.832 350.586 328.45L331.061 291.028C307.048 245.006 258.864 216.782 206.653 218.156C116.042 220.54 97.8664 332.12 7.35606 337.565Z" stroke="url(#paint58_linear_16603_82213)"/>
<path opacity="0.2" d="M5.46459 322.228C-9.90444 321.65 -26.0546 335.61 -37.7555 392.267C-40.4672 405.397 -40.8789 418.836 -39.8894 432.136C-34.4426 505.345 17.3817 566.129 89.0205 583.333L109.905 588.349C119.932 590.756 130.145 592.386 140.454 593.222L159.383 594.758C217.477 599.473 274.888 576.472 314.086 532.781C361.691 479.716 374.853 404.765 347.916 340.128L331.674 301.156C311.779 253.418 266.151 221.504 213.911 218.787C123.442 214.082 96.0173 325.635 5.46459 322.228Z" stroke="url(#paint59_linear_16603_82213)"/>
<path opacity="0.2" d="M5.19166 306.87C-10.2598 304.598 -27.8784 316.763 -44.7807 373.281C-48.6146 386.101 -50.1953 399.4 -50.3741 412.679C-51.363 486.099 -4.82874 550.839 65.3527 573.68L85.1272 580.116C94.9657 583.318 105.061 585.755 115.321 587.404L133.4 590.31C191.223 599.604 250.762 581.121 293.784 540.521C345.775 491.457 365.389 418.048 344.249 351.652L331.399 311.293C315.759 262.171 272.957 226.757 220.998 219.948C131.314 208.195 94.6419 320.021 5.19166 306.87Z" stroke="url(#paint60_linear_16603_82213)"/>
<path opacity="0.2" d="M6.49395 291.693C-8.88913 287.541 -27.8543 297.569 -50.1334 353.832C-55.0465 366.239 -57.7743 379.299 -59.1093 392.449C-66.5349 465.59 -25.5589 533.918 42.7657 562.328L61.1275 569.963C70.727 573.954 80.6522 577.197 90.8124 579.662L107.714 583.763C164.975 597.654 226.349 583.856 272.969 546.608C328.934 501.895 354.791 430.606 339.581 362.955L330.235 321.386C318.956 271.22 279.24 232.513 227.876 221.627C139.612 202.922 93.4313 315.158 6.49395 291.693Z" stroke="url(#paint61_linear_16603_82213)"/>
<path opacity="0.2" d="M9.29896 276.858C-5.81012 270.67 -25.9199 278.21 -53.779 334.035C-59.7178 345.936 -63.5599 358.659 -66.027 371.576C-79.8488 443.944 -44.6821 515.479 21.3751 549.367L38.0921 557.943C47.3901 562.713 57.0823 566.757 67.0789 570.036L82.5393 575.108C138.929 593.606 201.821 584.653 251.791 551.013C311.288 510.959 343.118 442.33 333.918 373.936L328.189 331.347C321.348 280.487 284.966 238.709 234.517 223.782C148.296 198.27 92.1505 310.789 9.29896 276.858Z" stroke="url(#paint62_linear_16603_82213)"/>
</g>
<defs>
<linearGradient id="paint0_linear_16603_82213" x1="302.501" y1="300.019" x2="-112.512" y2="300.019" gradientUnits="userSpaceOnUse">
<stop stop-color="#914CEB"/>
<stop offset="0.2" stop-color="#CD5C5C"/>
<stop offset="0.4" stop-color="#FF8C00"/>
<stop offset="0.6" stop-color="#EEE8AA"/>
<stop offset="0.8" stop-color="#2E8B57"/>
<stop offset="1" stop-color="#4682B4"/>
</linearGradient>
<linearGradient id="paint1_linear_16603_82213" x1="302.418" y1="307.861" x2="-110.828" y2="271.517" gradientUnits="userSpaceOnUse">
<stop stop-color="#914CEB"/>
<stop offset="0.2" stop-color="#CD5C5C"/>
<stop offset="0.4" stop-color="#FF8C00"/>
<stop offset="0.6" stop-color="#EEE8AA"/>
<stop offset="0.8" stop-color="#2E8B57"/>
<stop offset="1" stop-color="#4682B4"/>
</linearGradient>
<linearGradient id="paint2_linear_16603_82213" x1="301.649" y1="315.672" x2="-106.331" y2="243.411" gradientUnits="userSpaceOnUse">
<stop stop-color="#914CEB"/>
<stop offset="0.2" stop-color="#CD5C5C"/>
<stop offset="0.4" stop-color="#FF8C00"/>
<stop offset="0.6" stop-color="#EEE8AA"/>
<stop offset="0.8" stop-color="#2E8B57"/>
<stop offset="1" stop-color="#4682B4"/>
</linearGradient>
<linearGradient id="paint3_linear_16603_82213" x1="300.198" y1="323.396" x2="-99.1262" y2="216.057" gradientUnits="userSpaceOnUse">
<stop stop-color="#914CEB"/>
<stop offset="0.2" stop-color="#CD5C5C"/>
<stop offset="0.4" stop-color="#FF8C00"/>
<stop offset="0.6" stop-color="#EEE8AA"/>
<stop offset="0.8" stop-color="#2E8B57"/>
<stop offset="1" stop-color="#4682B4"/>
</linearGradient>
<linearGradient id="paint4_linear_16603_82213" x1="298.075" y1="330.984" x2="-89.373" y2="189.785" gradientUnits="userSpaceOnUse">
<stop stop-color="#914CEB"/>
<stop offset="0.2" stop-color="#CD5C5C"/>
<stop offset="0.4" stop-color="#FF8C00"/>
<stop offset="0.6" stop-color="#EEE8AA"/>
<stop offset="0.8" stop-color="#2E8B57"/>
<stop offset="1" stop-color="#4682B4"/>
</linearGradient>
<linearGradient id="paint5_linear_16603_82213" x1="295.294" y1="338.374" x2="-77.2821" y2="164.867" gradientUnits="userSpaceOnUse">
<stop stop-color="#914CEB"/>
<stop offset="0.2" stop-color="#CD5C5C"/>
<stop offset="0.4" stop-color="#FF8C00"/>
<stop offset="0.6" stop-color="#EEE8AA"/>
<stop offset="0.8" stop-color="#2E8B57"/>
<stop offset="1" stop-color="#4682B4"/>
</linearGradient>
<linearGradient id="paint6_linear_16603_82213" x1="291.875" y1="345.519" x2="-63.0981" y2="141.539" gradientUnits="userSpaceOnUse">
<stop stop-color="#914CEB"/>
<stop offset="0.2" stop-color="#CD5C5C"/>
<stop offset="0.4" stop-color="#FF8C00"/>
<stop offset="0.6" stop-color="#EEE8AA"/>
<stop offset="0.8" stop-color="#2E8B57"/>
<stop offset="1" stop-color="#4682B4"/>
</linearGradient>
<linearGradient id="paint7_linear_16603_82213" x1="287.841" y1="352.384" x2="-47.0893" y2="119.99" gradientUnits="userSpaceOnUse">
<stop stop-color="#914CEB"/>
<stop offset="0.2" stop-color="#CD5C5C"/>
<stop offset="0.4" stop-color="#FF8C00"/>
<stop offset="0.6" stop-color="#EEE8AA"/>
<stop offset="0.8" stop-color="#2E8B57"/>
<stop offset="1" stop-color="#4682B4"/>
</linearGradient>
<linearGradient id="paint8_linear_16603_82213" x1="283.22" y1="358.908" x2="-29.5279" y2="100.325" gradientUnits="userSpaceOnUse">
<stop stop-color="#914CEB"/>
<stop offset="0.2" stop-color="#CD5C5C"/>
<stop offset="0.4" stop-color="#FF8C00"/>
<stop offset="0.6" stop-color="#EEE8AA"/>
<stop offset="0.8" stop-color="#2E8B57"/>
<stop offset="1" stop-color="#4682B4"/>
</linearGradient>
<linearGradient id="paint9_linear_16603_82213" x1="278.042" y1="365.039" x2="-10.6851" y2="82.6066" gradientUnits="userSpaceOnUse">
<stop stop-color="#914CEB"/>
<stop offset="0.2" stop-color="#CD5C5C"/>
<stop offset="0.4" stop-color="#FF8C00"/>
<stop offset="0.6" stop-color="#EEE8AA"/>
<stop offset="0.8" stop-color="#2E8B57"/>
<stop offset="1" stop-color="#4682B4"/>
</linearGradient>
<linearGradient id="paint10_linear_16603_82213" x1="272.346" y1="370.748" x2="9.18807" y2="66.8659" gradientUnits="userSpaceOnUse">
<stop stop-color="#914CEB"/>
<stop offset="0.2" stop-color="#CD5C5C"/>
<stop offset="0.4" stop-color="#FF8C00"/>
<stop offset="0.6" stop-color="#EEE8AA"/>
<stop offset="0.8" stop-color="#2E8B57"/>
<stop offset="1" stop-color="#4682B4"/>
</linearGradient>
<linearGradient id="paint11_linear_16603_82213" x1="266.168" y1="375.995" x2="29.8609" y2="53.0867" gradientUnits="userSpaceOnUse">
<stop stop-color="#914CEB"/>
<stop offset="0.2" stop-color="#CD5C5C"/>
<stop offset="0.4" stop-color="#FF8C00"/>
<stop offset="0.6" stop-color="#EEE8AA"/>
<stop offset="0.8" stop-color="#2E8B57"/>
<stop offset="1" stop-color="#4682B4"/>
</linearGradient>
<linearGradient id="paint12_linear_16603_82213" x1="259.552" y1="380.736" x2="51.1331" y2="41.2147" gradientUnits="userSpaceOnUse">
<stop stop-color="#914CEB"/>
<stop offset="0.2" stop-color="#CD5C5C"/>
<stop offset="0.4" stop-color="#FF8C00"/>
<stop offset="0.6" stop-color="#EEE8AA"/>
<stop offset="0.8" stop-color="#2E8B57"/>
<stop offset="1" stop-color="#4682B4"/>
</linearGradient>
<linearGradient id="paint13_linear_16603_82213" x1="252.542" y1="384.945" x2="72.8371" y2="31.1897" gradientUnits="userSpaceOnUse">
<stop stop-color="#914CEB"/>
<stop offset="0.2" stop-color="#CD5C5C"/>
<stop offset="0.4" stop-color="#FF8C00"/>
<stop offset="0.6" stop-color="#EEE8AA"/>
<stop offset="0.8" stop-color="#2E8B57"/>
<stop offset="1" stop-color="#4682B4"/>
</linearGradient>
<linearGradient id="paint14_linear_16603_82213" x1="245.188" y1="388.596" x2="94.837" y2="22.9391" gradientUnits="userSpaceOnUse">
<stop stop-color="#914CEB"/>
<stop offset="0.2" stop-color="#CD5C5C"/>
<stop offset="0.4" stop-color="#FF8C00"/>
<stop offset="0.6" stop-color="#EEE8AA"/>
<stop offset="0.8" stop-color="#2E8B57"/>
<stop offset="1" stop-color="#4682B4"/>
</linearGradient>
<linearGradient id="paint15_linear_16603_82213" x1="237.539" y1="391.658" x2="117.026" y2="16.3785" gradientUnits="userSpaceOnUse">
<stop stop-color="#914CEB"/>
<stop offset="0.2" stop-color="#CD5C5C"/>
<stop offset="0.4" stop-color="#FF8C00"/>
<stop offset="0.6" stop-color="#EEE8AA"/>
<stop offset="0.8" stop-color="#2E8B57"/>
<stop offset="1" stop-color="#4682B4"/>
</linearGradient>
<linearGradient id="paint16_linear_16603_82213" x1="229.648" y1="394.111" x2="139.328" y2="11.4331" gradientUnits="userSpaceOnUse">
<stop stop-color="#914CEB"/>
<stop offset="0.2" stop-color="#CD5C5C"/>
<stop offset="0.4" stop-color="#FF8C00"/>
<stop offset="0.6" stop-color="#EEE8AA"/>
<stop offset="0.8" stop-color="#2E8B57"/>
<stop offset="1" stop-color="#4682B4"/>
</linearGradient>
<linearGradient id="paint17_linear_16603_82213" x1="221.57" y1="395.934" x2="161.688" y2="8.03592" gradientUnits="userSpaceOnUse">
<stop stop-color="#914CEB"/>
<stop offset="0.2" stop-color="#CD5C5C"/>
<stop offset="0.4" stop-color="#FF8C00"/>
<stop offset="0.6" stop-color="#EEE8AA"/>
<stop offset="0.8" stop-color="#2E8B57"/>
<stop offset="1" stop-color="#4682B4"/>
</linearGradient>
<linearGradient id="paint18_linear_16603_82213" x1="213.359" y1="397.133" x2="184.068" y2="6.15547" gradientUnits="userSpaceOnUse">
<stop stop-color="#914CEB"/>
<stop offset="0.2" stop-color="#CD5C5C"/>
<stop offset="0.4" stop-color="#FF8C00"/>
<stop offset="0.6" stop-color="#EEE8AA"/>
<stop offset="0.8" stop-color="#2E8B57"/>
<stop offset="1" stop-color="#4682B4"/>
</linearGradient>
<linearGradient id="paint19_linear_16603_82213" x1="205.07" y1="397.666" x2="206.443" y2="5.72724" gradientUnits="userSpaceOnUse">
<stop stop-color="#914CEB"/>
<stop offset="0.2" stop-color="#CD5C5C"/>
<stop offset="0.4" stop-color="#FF8C00"/>
<stop offset="0.6" stop-color="#EEE8AA"/>
<stop offset="0.8" stop-color="#2E8B57"/>
<stop offset="1" stop-color="#4682B4"/>
</linearGradient>
<linearGradient id="paint20_linear_16603_82213" x1="196.764" y1="397.561" x2="228.797" y2="6.77261" gradientUnits="userSpaceOnUse">
<stop stop-color="#914CEB"/>
<stop offset="0.2" stop-color="#CD5C5C"/>
<stop offset="0.4" stop-color="#FF8C00"/>
<stop offset="0.6" stop-color="#EEE8AA"/>
<stop offset="0.8" stop-color="#2E8B57"/>
<stop offset="1" stop-color="#4682B4"/>
</linearGradient>
<linearGradient id="paint21_linear_16603_82213" x1="188.496" y1="396.808" x2="251.109" y2="9.28913" gradientUnits="userSpaceOnUse">
<stop stop-color="#914CEB"/>
<stop offset="0.2" stop-color="#CD5C5C"/>
<stop offset="0.4" stop-color="#FF8C00"/>
<stop offset="0.6" stop-color="#EEE8AA"/>
<stop offset="0.8" stop-color="#2E8B57"/>
<stop offset="1" stop-color="#4682B4"/>
</linearGradient>
<linearGradient id="paint22_linear_16603_82213" x1="180.321" y1="395.401" x2="273.355" y2="13.2963" gradientUnits="userSpaceOnUse">
<stop stop-color="#914CEB"/>
<stop offset="0.2" stop-color="#CD5C5C"/>
<stop offset="0.4" stop-color="#FF8C00"/>
<stop offset="0.6" stop-color="#EEE8AA"/>
<stop offset="0.8" stop-color="#2E8B57"/>
<stop offset="1" stop-color="#4682B4"/>
</linearGradient>
<linearGradient id="paint23_linear_16603_82213" x1="172.298" y1="393.381" x2="295.498" y2="18.8708" gradientUnits="userSpaceOnUse">
<stop stop-color="#914CEB"/>
<stop offset="0.2" stop-color="#CD5C5C"/>
<stop offset="0.4" stop-color="#FF8C00"/>
<stop offset="0.6" stop-color="#EEE8AA"/>
<stop offset="0.8" stop-color="#2E8B57"/>
<stop offset="1" stop-color="#4682B4"/>
</linearGradient>
<linearGradient id="paint24_linear_16603_82213" x1="164.48" y1="390.719" x2="317.481" y2="26.0342" gradientUnits="userSpaceOnUse">
<stop stop-color="#914CEB"/>
<stop offset="0.2" stop-color="#CD5C5C"/>
<stop offset="0.4" stop-color="#FF8C00"/>
<stop offset="0.6" stop-color="#EEE8AA"/>
<stop offset="0.8" stop-color="#2E8B57"/>
<stop offset="1" stop-color="#4682B4"/>
</linearGradient>
<linearGradient id="paint25_linear_16603_82213" x1="156.923" y1="387.463" x2="339.227" y2="34.8865" gradientUnits="userSpaceOnUse">
<stop stop-color="#914CEB"/>
<stop offset="0.2" stop-color="#CD5C5C"/>
<stop offset="0.4" stop-color="#FF8C00"/>
<stop offset="0.6" stop-color="#EEE8AA"/>
<stop offset="0.8" stop-color="#2E8B57"/>
<stop offset="1" stop-color="#4682B4"/>
</linearGradient>
<linearGradient id="paint26_linear_16603_82213" x1="149.676" y1="383.623" x2="360.628" y2="45.4911" gradientUnits="userSpaceOnUse">
<stop stop-color="#914CEB"/>
<stop offset="0.2" stop-color="#CD5C5C"/>
<stop offset="0.4" stop-color="#FF8C00"/>
<stop offset="0.6" stop-color="#EEE8AA"/>
<stop offset="0.8" stop-color="#2E8B57"/>
<stop offset="1" stop-color="#4682B4"/>
</linearGradient>
<linearGradient id="paint27_linear_16603_82213" x1="142.79" y1="379.24" x2="381.547" y2="57.9364" gradientUnits="userSpaceOnUse">
<stop stop-color="#914CEB"/>
<stop offset="0.2" stop-color="#CD5C5C"/>
<stop offset="0.4" stop-color="#FF8C00"/>
<stop offset="0.6" stop-color="#EEE8AA"/>
<stop offset="0.8" stop-color="#2E8B57"/>
<stop offset="1" stop-color="#4682B4"/>
</linearGradient>
<linearGradient id="paint28_linear_16603_82213" x1="136.313" y1="374.324" x2="401.816" y2="72.2634" gradientUnits="userSpaceOnUse">
<stop stop-color="#914CEB"/>
<stop offset="0.2" stop-color="#CD5C5C"/>
<stop offset="0.4" stop-color="#FF8C00"/>
<stop offset="0.6" stop-color="#EEE8AA"/>
<stop offset="0.8" stop-color="#2E8B57"/>
<stop offset="1" stop-color="#4682B4"/>
</linearGradient>
<linearGradient id="paint29_linear_16603_82213" x1="130.289" y1="368.929" x2="421.234" y2="88.5344" gradientUnits="userSpaceOnUse">
<stop stop-color="#914CEB"/>
<stop offset="0.2" stop-color="#CD5C5C"/>
<stop offset="0.4" stop-color="#FF8C00"/>
<stop offset="0.6" stop-color="#EEE8AA"/>
<stop offset="0.8" stop-color="#2E8B57"/>
<stop offset="1" stop-color="#4682B4"/>
</linearGradient>
<linearGradient id="paint30_linear_16603_82213" x1="124.759" y1="363.068" x2="439.572" y2="106.736" gradientUnits="userSpaceOnUse">
<stop stop-color="#914CEB"/>
<stop offset="0.2" stop-color="#CD5C5C"/>
<stop offset="0.4" stop-color="#FF8C00"/>
<stop offset="0.6" stop-color="#EEE8AA"/>
<stop offset="0.8" stop-color="#2E8B57"/>
<stop offset="1" stop-color="#4682B4"/>
</linearGradient>
<linearGradient id="paint31_linear_16603_82213" x1="119.76" y1="356.803" x2="456.576" y2="126.864" gradientUnits="userSpaceOnUse">
<stop stop-color="#914CEB"/>
<stop offset="0.2" stop-color="#CD5C5C"/>
<stop offset="0.4" stop-color="#FF8C00"/>
<stop offset="0.6" stop-color="#EEE8AA"/>
<stop offset="0.8" stop-color="#2E8B57"/>
<stop offset="1" stop-color="#4682B4"/>
</linearGradient>
<linearGradient id="paint32_linear_16603_82213" x1="115.327" y1="350.166" x2="471.981" y2="148.833" gradientUnits="userSpaceOnUse">
<stop stop-color="#914CEB"/>
<stop offset="0.2" stop-color="#CD5C5C"/>
<stop offset="0.4" stop-color="#FF8C00"/>
<stop offset="0.6" stop-color="#EEE8AA"/>
<stop offset="0.8" stop-color="#2E8B57"/>
<stop offset="1" stop-color="#4682B4"/>
</linearGradient>
<linearGradient id="paint33_linear_16603_82213" x1="111.492" y1="343.205" x2="485.515" y2="172.52" gradientUnits="userSpaceOnUse">
<stop stop-color="#914CEB"/>
<stop offset="0.2" stop-color="#CD5C5C"/>
<stop offset="0.4" stop-color="#FF8C00"/>
<stop offset="0.6" stop-color="#EEE8AA"/>
<stop offset="0.8" stop-color="#2E8B57"/>
<stop offset="1" stop-color="#4682B4"/>
</linearGradient>
<linearGradient id="paint34_linear_16603_82213" x1="108.28" y1="335.976" x2="496.917" y2="197.75" gradientUnits="userSpaceOnUse">
<stop stop-color="#914CEB"/>
<stop offset="0.2" stop-color="#CD5C5C"/>
<stop offset="0.4" stop-color="#FF8C00"/>
<stop offset="0.6" stop-color="#EEE8AA"/>
<stop offset="0.8" stop-color="#2E8B57"/>
<stop offset="1" stop-color="#4682B4"/>
</linearGradient>
<linearGradient id="paint35_linear_16603_82213" x1="105.713" y1="328.507" x2="505.947" y2="224.264" gradientUnits="userSpaceOnUse">
<stop stop-color="#914CEB"/>
<stop offset="0.2" stop-color="#CD5C5C"/>
<stop offset="0.4" stop-color="#FF8C00"/>
<stop offset="0.6" stop-color="#EEE8AA"/>
<stop offset="0.8" stop-color="#2E8B57"/>
<stop offset="1" stop-color="#4682B4"/>
</linearGradient>
<linearGradient id="paint36_linear_16603_82213" x1="103.809" y1="320.876" x2="512.401" y2="251.802" gradientUnits="userSpaceOnUse">
<stop stop-color="#914CEB"/>
<stop offset="0.2" stop-color="#CD5C5C"/>
<stop offset="0.4" stop-color="#FF8C00"/>
<stop offset="0.6" stop-color="#EEE8AA"/>
<stop offset="0.8" stop-color="#2E8B57"/>
<stop offset="1" stop-color="#4682B4"/>
</linearGradient>
<linearGradient id="paint37_linear_16603_82213" x1="102.581" y1="313.119" x2="516.129" y2="280.017" gradientUnits="userSpaceOnUse">
<stop stop-color="#914CEB"/>
<stop offset="0.2" stop-color="#CD5C5C"/>
<stop offset="0.4" stop-color="#FF8C00"/>
<stop offset="0.6" stop-color="#EEE8AA"/>
<stop offset="0.8" stop-color="#2E8B57"/>
<stop offset="1" stop-color="#4682B4"/>
</linearGradient>
<linearGradient id="paint38_linear_16603_82213" x1="102.037" y1="305.293" x2="517.036" y2="308.553" gradientUnits="userSpaceOnUse">
<stop stop-color="#914CEB"/>
<stop offset="0.2" stop-color="#CD5C5C"/>
<stop offset="0.4" stop-color="#FF8C00"/>
<stop offset="0.6" stop-color="#EEE8AA"/>
<stop offset="0.8" stop-color="#2E8B57"/>
<stop offset="1" stop-color="#4682B4"/>
</linearGradient>
<linearGradient id="paint39_linear_16603_82213" x1="102.18" y1="297.45" x2="515.096" y2="337.033" gradientUnits="userSpaceOnUse">
<stop stop-color="#914CEB"/>
<stop offset="0.2" stop-color="#CD5C5C"/>
<stop offset="0.4" stop-color="#FF8C00"/>
<stop offset="0.6" stop-color="#EEE8AA"/>
<stop offset="0.8" stop-color="#2E8B57"/>
<stop offset="1" stop-color="#4682B4"/>
</linearGradient>
<linearGradient id="paint40_linear_16603_82213" x1="103.011" y1="289.646" x2="510.353" y2="365.087" gradientUnits="userSpaceOnUse">
<stop stop-color="#914CEB"/>
<stop offset="0.2" stop-color="#CD5C5C"/>
<stop offset="0.4" stop-color="#FF8C00"/>
<stop offset="0.6" stop-color="#EEE8AA"/>
<stop offset="0.8" stop-color="#2E8B57"/>
<stop offset="1" stop-color="#4682B4"/>
</linearGradient>
<linearGradient id="paint41_linear_16603_82213" x1="104.524" y1="281.925" x2="502.913" y2="392.351" gradientUnits="userSpaceOnUse">
<stop stop-color="#914CEB"/>
<stop offset="0.2" stop-color="#CD5C5C"/>
<stop offset="0.4" stop-color="#FF8C00"/>
<stop offset="0.6" stop-color="#EEE8AA"/>
<stop offset="0.8" stop-color="#2E8B57"/>
<stop offset="1" stop-color="#4682B4"/>
</linearGradient>
<linearGradient id="paint42_linear_16603_82213" x1="106.707" y1="274.355" x2="492.942" y2="418.515" gradientUnits="userSpaceOnUse">
<stop stop-color="#914CEB"/>
<stop offset="0.2" stop-color="#CD5C5C"/>
<stop offset="0.4" stop-color="#FF8C00"/>
<stop offset="0.6" stop-color="#EEE8AA"/>
<stop offset="0.8" stop-color="#2E8B57"/>
<stop offset="1" stop-color="#4682B4"/>
</linearGradient>
<linearGradient id="paint43_linear_16603_82213" x1="109.545" y1="266.987" x2="480.653" y2="443.3" gradientUnits="userSpaceOnUse">
<stop stop-color="#914CEB"/>
<stop offset="0.2" stop-color="#CD5C5C"/>
<stop offset="0.4" stop-color="#FF8C00"/>
<stop offset="0.6" stop-color="#EEE8AA"/>
<stop offset="0.8" stop-color="#2E8B57"/>
<stop offset="1" stop-color="#4682B4"/>
</linearGradient>
<linearGradient id="paint44_linear_16603_82213" x1="113.021" y1="259.859" x2="466.296" y2="466.47" gradientUnits="userSpaceOnUse">
<stop stop-color="#914CEB"/>
<stop offset="0.2" stop-color="#CD5C5C"/>
<stop offset="0.4" stop-color="#FF8C00"/>
<stop offset="0.6" stop-color="#EEE8AA"/>
<stop offset="0.8" stop-color="#2E8B57"/>
<stop offset="1" stop-color="#4682B4"/>
</linearGradient>
<linearGradient id="paint45_linear_16603_82213" x1="117.11" y1="253.026" x2="450.137" y2="487.858" gradientUnits="userSpaceOnUse">
<stop stop-color="#914CEB"/>
<stop offset="0.2" stop-color="#CD5C5C"/>
<stop offset="0.4" stop-color="#FF8C00"/>
<stop offset="0.6" stop-color="#EEE8AA"/>
<stop offset="0.8" stop-color="#2E8B57"/>
<stop offset="1" stop-color="#4682B4"/>
</linearGradient>
<linearGradient id="paint46_linear_16603_82213" x1="121.783" y1="246.537" x2="432.451" y2="507.351" gradientUnits="userSpaceOnUse">
<stop stop-color="#914CEB"/>
<stop offset="0.2" stop-color="#CD5C5C"/>
<stop offset="0.4" stop-color="#FF8C00"/>
<stop offset="0.6" stop-color="#EEE8AA"/>
<stop offset="0.8" stop-color="#2E8B57"/>
<stop offset="1" stop-color="#4682B4"/>
</linearGradient>
<linearGradient id="paint47_linear_16603_82213" x1="127.007" y1="240.445" x2="413.505" y2="524.896" gradientUnits="userSpaceOnUse">
<stop stop-color="#914CEB"/>
<stop offset="0.2" stop-color="#CD5C5C"/>
<stop offset="0.4" stop-color="#FF8C00"/>
<stop offset="0.6" stop-color="#EEE8AA"/>
<stop offset="0.8" stop-color="#2E8B57"/>
<stop offset="1" stop-color="#4682B4"/>
</linearGradient>
<linearGradient id="paint48_linear_16603_82213" x1="132.75" y1="234.773" x2="393.552" y2="540.457" gradientUnits="userSpaceOnUse">
<stop stop-color="#914CEB"/>
<stop offset="0.2" stop-color="#CD5C5C"/>
<stop offset="0.4" stop-color="#FF8C00"/>
<stop offset="0.6" stop-color="#EEE8AA"/>
<stop offset="0.8" stop-color="#2E8B57"/>
<stop offset="1" stop-color="#4682B4"/>
</linearGradient>
<linearGradient id="paint49_linear_16603_82213" x1="138.969" y1="229.574" x2="372.819" y2="554.068" gradientUnits="userSpaceOnUse">
<stop stop-color="#914CEB"/>
<stop offset="0.2" stop-color="#CD5C5C"/>
<stop offset="0.4" stop-color="#FF8C00"/>
<stop offset="0.6" stop-color="#EEE8AA"/>
<stop offset="0.8" stop-color="#2E8B57"/>
<stop offset="1" stop-color="#4682B4"/>
</linearGradient>
<linearGradient id="paint50_linear_16603_82213" x1="145.622" y1="224.874" x2="351.501" y2="565.767" gradientUnits="userSpaceOnUse">
<stop stop-color="#914CEB"/>
<stop offset="0.2" stop-color="#CD5C5C"/>
<stop offset="0.4" stop-color="#FF8C00"/>
<stop offset="0.6" stop-color="#EEE8AA"/>
<stop offset="0.8" stop-color="#2E8B57"/>
<stop offset="1" stop-color="#4682B4"/>
</linearGradient>
<linearGradient id="paint51_linear_16603_82213" x1="152.665" y1="220.716" x2="329.765" y2="575.631" gradientUnits="userSpaceOnUse">
<stop stop-color="#914CEB"/>
<stop offset="0.2" stop-color="#CD5C5C"/>
<stop offset="0.4" stop-color="#FF8C00"/>
<stop offset="0.6" stop-color="#EEE8AA"/>
<stop offset="0.8" stop-color="#2E8B57"/>
<stop offset="1" stop-color="#4682B4"/>
</linearGradient>
<linearGradient id="paint52_linear_16603_82213" x1="160.047" y1="217.121" x2="307.745" y2="583.731" gradientUnits="userSpaceOnUse">
<stop stop-color="#914CEB"/>
<stop offset="0.2" stop-color="#CD5C5C"/>
<stop offset="0.4" stop-color="#FF8C00"/>
<stop offset="0.6" stop-color="#EEE8AA"/>
<stop offset="0.8" stop-color="#2E8B57"/>
<stop offset="1" stop-color="#4682B4"/>
</linearGradient>
<linearGradient id="paint53_linear_16603_82213" x1="167.72" y1="214.112" x2="285.542" y2="590.144" gradientUnits="userSpaceOnUse">
<stop stop-color="#914CEB"/>
<stop offset="0.2" stop-color="#CD5C5C"/>
<stop offset="0.4" stop-color="#FF8C00"/>
<stop offset="0.6" stop-color="#EEE8AA"/>
<stop offset="0.8" stop-color="#2E8B57"/>
<stop offset="1" stop-color="#4682B4"/>
</linearGradient>
<linearGradient id="paint54_linear_16603_82213" x1="175.629" y1="211.715" x2="263.232" y2="594.949" gradientUnits="userSpaceOnUse">
<stop stop-color="#914CEB"/>
<stop offset="0.2" stop-color="#CD5C5C"/>
<stop offset="0.4" stop-color="#FF8C00"/>
<stop offset="0.6" stop-color="#EEE8AA"/>
<stop offset="0.8" stop-color="#2E8B57"/>
<stop offset="1" stop-color="#4682B4"/>
</linearGradient>
<linearGradient id="paint55_linear_16603_82213" x1="183.722" y1="209.95" x2="240.87" y2="598.212" gradientUnits="userSpaceOnUse">
<stop stop-color="#914CEB"/>
<stop offset="0.2" stop-color="#CD5C5C"/>
<stop offset="0.4" stop-color="#FF8C00"/>
<stop offset="0.6" stop-color="#EEE8AA"/>
<stop offset="0.8" stop-color="#2E8B57"/>
<stop offset="1" stop-color="#4682B4"/>
</linearGradient>
<linearGradient id="paint56_linear_16603_82213" x1="191.942" y1="208.818" x2="218.489" y2="599.968" gradientUnits="userSpaceOnUse">
<stop stop-color="#914CEB"/>
<stop offset="0.2" stop-color="#CD5C5C"/>
<stop offset="0.4" stop-color="#FF8C00"/>
<stop offset="0.6" stop-color="#EEE8AA"/>
<stop offset="0.8" stop-color="#2E8B57"/>
<stop offset="1" stop-color="#4682B4"/>
</linearGradient>
<linearGradient id="paint57_linear_16603_82213" x1="200.233" y1="208.327" x2="196.114" y2="600.249" gradientUnits="userSpaceOnUse">
<stop stop-color="#914CEB"/>
<stop offset="0.2" stop-color="#CD5C5C"/>
<stop offset="0.4" stop-color="#FF8C00"/>
<stop offset="0.6" stop-color="#EEE8AA"/>
<stop offset="0.8" stop-color="#2E8B57"/>
<stop offset="1" stop-color="#4682B4"/>
</linearGradient>
<linearGradient id="paint58_linear_16603_82213" x1="208.538" y1="208.494" x2="173.763" y2="599.077" gradientUnits="userSpaceOnUse">
<stop stop-color="#914CEB"/>
<stop offset="0.2" stop-color="#CD5C5C"/>
<stop offset="0.4" stop-color="#FF8C00"/>
<stop offset="0.6" stop-color="#EEE8AA"/>
<stop offset="0.8" stop-color="#2E8B57"/>
<stop offset="1" stop-color="#4682B4"/>
</linearGradient>
<linearGradient id="paint59_linear_16603_82213" x1="216.8" y1="209.314" x2="151.455" y2="596.437" gradientUnits="userSpaceOnUse">
<stop stop-color="#914CEB"/>
<stop offset="0.2" stop-color="#CD5C5C"/>
<stop offset="0.4" stop-color="#FF8C00"/>
<stop offset="0.6" stop-color="#EEE8AA"/>
<stop offset="0.8" stop-color="#2E8B57"/>
<stop offset="1" stop-color="#4682B4"/>
</linearGradient>
<linearGradient id="paint60_linear_16603_82213" x1="224.962" y1="210.767" x2="129.216" y2="592.282" gradientUnits="userSpaceOnUse">
<stop stop-color="#914CEB"/>
<stop offset="0.2" stop-color="#CD5C5C"/>
<stop offset="0.4" stop-color="#FF8C00"/>
<stop offset="0.6" stop-color="#EEE8AA"/>
<stop offset="0.8" stop-color="#2E8B57"/>
<stop offset="1" stop-color="#4682B4"/>
</linearGradient>
<linearGradient id="paint61_linear_16603_82213" x1="232.969" y1="212.859" x2="107.084" y2="586.581" gradientUnits="userSpaceOnUse">
<stop stop-color="#914CEB"/>
<stop offset="0.2" stop-color="#CD5C5C"/>
<stop offset="0.4" stop-color="#FF8C00"/>
<stop offset="0.6" stop-color="#EEE8AA"/>
<stop offset="0.8" stop-color="#2E8B57"/>
<stop offset="1" stop-color="#4682B4"/>
</linearGradient>
<linearGradient id="paint62_linear_16603_82213" x1="240.765" y1="215.561" x2="85.1182" y2="579.257" gradientUnits="userSpaceOnUse">
<stop stop-color="#914CEB"/>
<stop offset="0.2" stop-color="#CD5C5C"/>
<stop offset="0.4" stop-color="#FF8C00"/>
<stop offset="0.6" stop-color="#EEE8AA"/>
<stop offset="0.8" stop-color="#2E8B57"/>
<stop offset="1" stop-color="#4682B4"/>
</linearGradient>
</defs>
</svg>
