<svg width="1281" height="1117" viewBox="0 0 1281 1117" fill="none" xmlns="http://www.w3.org/2000/svg">
<g opacity="0.5">
<path opacity="0.2" d="M515.538 286.318C402.234 301.859 666.363 140.99 325.18 143.026C311.195 143.109 296.508 144.994 282.904 148.234L152.093 179.386C67.5184 199.527 5.64284 271.999 -0.990666 358.685L-11.7022 498.663C-12.582 510.16 -12.4659 521.713 -11.355 533.19L-0.044342 650.053C6.32919 715.905 44.8561 774.344 102.867 806.153L286.356 906.765C347.819 940.466 422.44 939.531 483.039 904.299L702.094 776.94C771.713 736.464 810.265 658.182 799.909 578.32L784.433 458.966C768.041 332.555 641.825 268.997 515.538 286.318Z" stroke="url(#paint0_linear_16572_162258)"/>
<path opacity="0.2" d="M539.527 279.358C425.695 285.84 702.561 146.303 362.574 121.668C348.615 120.657 333.797 121.388 319.941 123.556L186.901 144.367C100.831 157.83 32.8118 225.185 18.6105 311.011L-4.34895 449.769C-6.23123 461.145 -7.12688 472.652 -7.02592 484.164L-5.99586 601.606C-5.4163 667.686 27.85 728.901 82.8695 765.133L256.83 879.689C315.179 918.114 389.71 923.021 453.243 892.621L682.648 782.852C755.559 747.965 800.822 673.028 797.504 592.695L792.536 472.412C787.281 345.176 666.98 272.1 539.527 279.358Z" stroke="url(#paint1_linear_16572_162258)"/>
<path opacity="0.2" d="M563.714 274.279C451.059 271.507 737.816 154.378 401.76 103.32C387.891 101.213 373.013 100.782 358.969 101.863L224.718 112.19C137.705 118.884 64.0107 180.596 42.3686 264.89L7.25337 401.661C4.39067 412.811 2.49625 424.168 1.59115 435.607L-7.69834 553.013C-12.9018 618.777 14.8756 682.279 66.5175 722.677L229.614 850.263C284.537 893.228 358.631 903.981 424.779 878.587L662.829 787.201C738.496 758.153 790.101 687.191 793.827 607.066L799.436 486.428C805.348 359.284 691.569 277.425 563.714 274.279Z" stroke="url(#paint2_linear_16572_162258)"/>
<path opacity="0.2" d="M587.957 271.036C478.18 259.098 771.91 165.077 442.462 88.1158C428.751 84.9128 413.885 83.313 399.72 83.2918L265.284 83.0897C177.886 82.9583 99.0402 138.543 70.1559 220.653L23.0146 354.661C19.2066 365.486 16.34 376.592 14.4464 387.856L-5.17889 504.593C-16.0923 569.51 6.02343 634.794 53.9274 679.072L204.937 818.651C256.122 865.962 329.422 882.564 397.852 862.344L642.775 789.975C720.642 766.967 778.15 700.565 788.843 621.315L805.09 500.917C822.11 374.781 715.367 284.892 587.957 271.036Z" stroke="url(#paint3_linear_16572_162258)"/>
<path opacity="0.2" d="M612.141 269.586C506.866 248.846 804.653 178.258 484.396 76.1737C470.913 71.876 456.135 69.1012 441.919 67.9646L308.314 57.2822C221.095 50.3086 137.673 99.3317 101.812 178.634L42.8187 309.091C38.1121 319.499 34.3122 330.257 31.4603 341.248L1.51157 456.664C-14.9796 520.217 1.35723 586.776 45.1907 634.619L183.016 785.052C230.151 836.498 302.282 858.943 372.647 844.058L622.621 791.179C702.118 774.363 765.026 713.05 782.536 635.32L809.462 515.792C837.447 391.563 738.165 294.415 612.141 269.586Z" stroke="url(#paint4_linear_16572_162258)"/>
<path opacity="0.2" d="M636.168 269.863C536.874 240.938 835.881 193.749 527.264 67.5653C514.084 62.1762 499.473 58.2227 485.28 55.9586L353.504 34.9381C267.032 21.1442 179.653 63.2255 137.141 139.137L66.5235 265.235C60.9751 275.143 56.2913 285.465 52.5227 296.092L12.2998 409.507C-9.5827 471.208 0.912171 538.534 40.3732 589.603L164.056 749.666C206.824 805.013 277.393 833.284 349.321 823.885L602.5 790.804C683.047 780.279 750.8 724.521 774.904 648.923L812.525 530.937C851.247 409.493 759.769 305.868 636.168 269.863Z" stroke="url(#paint5_linear_16572_162258)"/>
<path opacity="0.2" d="M659.96 271.834C567.924 235.559 865.455 211.407 570.765 62.3623C557.966 55.8891 543.606 50.7566 529.514 47.3556L400.535 16.2269C315.381 -4.32455 224.698 30.4952 175.914 102.475L93.9646 223.392C87.6387 232.726 82.1292 242.535 77.4946 252.715L27.0941 363.42C0.0548291 422.813 4.69569 490.407 39.5154 544.338L148.241 712.741C186.326 771.73 254.914 805.791 328.012 802.017L582.54 788.875C663.554 784.692 735.558 734.884 765.974 661.986L814.258 546.262C863.412 428.453 779.995 319.145 659.96 271.834Z" stroke="url(#paint6_linear_16572_162258)"/>
<path opacity="0.2" d="M683.444 275.502C599.692 232.877 893.254 231.111 614.584 60.6355C602.251 53.0907 588.232 46.784 574.327 42.2407L449.066 1.3154C365.801 -25.8892 272.498 1.41359 217.867 68.9702L124.951 183.869C117.917 192.567 111.646 201.794 106.204 211.455L45.7809 318.715C13.8604 375.379 12.6827 442.756 42.6266 499.169L135.733 674.576C168.821 736.912 234.982 776.7 308.825 778.671L562.859 785.451C643.763 787.611 719.396 744.074 755.787 674.396L814.645 561.701C873.851 448.339 798.667 334.146 683.444 275.502Z" stroke="url(#paint7_linear_16572_162258)"/>
<path opacity="0.2" d="M706.393 280.713C632.246 232.976 918.993 252.549 658.414 62.3628C646.635 53.7658 633.052 46.296 619.423 40.6109L498.755 -9.72564C417.946 -43.4353 322.727 -23.8385 262.707 38.8551L159.275 146.894C151.607 154.904 144.644 163.492 138.457 172.572L68.2362 275.627C31.7433 329.184 24.8254 395.877 49.6954 454.374L126.668 635.421C154.453 700.776 217.717 746.192 291.852 754.004L543.578 780.53C623.803 788.984 702.427 751.968 744.418 685.975L813.684 577.117C882.494 468.975 815.286 350.82 706.393 280.713Z" stroke="url(#paint8_linear_16572_162258)"/>
<path opacity="0.2" d="M728.597 287.266C665.754 236.058 942.374 275.324 701.938 67.5232C690.806 57.9021 677.757 49.289 664.502 42.4698L549.242 -16.8276C471.448 -56.8499 375.027 -45.0798 310.106 12.3635L196.703 112.705C188.475 119.985 180.89 127.888 174.025 136.335L94.3115 234.41C53.5804 284.523 41.0391 350.085 60.674 410.256L121.147 595.576C143.337 663.577 203.21 714.475 277.151 728.194L524.807 774.144C603.795 788.799 684.773 758.48 731.956 696.583L811.372 592.403C889.277 490.204 829.105 369.165 728.597 287.266Z" stroke="url(#paint9_linear_16572_162258)"/>
<path opacity="0.2" d="M750.404 295.417C698.853 242.131 963.799 299.619 744.849 76.0963C734.46 65.4898 722.051 55.7632 709.271 47.8271L600.17 -19.9253C525.941 -66.0219 429.035 -62.132 359.72 -10.2736L236.988 81.5492C228.274 88.0687 220.138 95.2493 212.662 103.02L123.851 195.334C79.2341 241.709 61.2188 305.72 75.4955 367.146L119.245 555.378C135.569 625.612 191.541 681.791 264.772 701.443L506.659 766.356C583.872 787.077 666.57 763.564 718.517 706.12L807.725 607.473C894.157 511.895 840.613 388.662 750.404 295.417Z" stroke="url(#paint10_linear_16572_162258)"/>
<path opacity="0.2" d="M771.721 305.206C731.109 251.112 983.218 325.346 786.841 88.0173C777.291 76.4761 765.628 65.6777 753.43 56.6527L651.172 -19.0029C581.042 -70.889 484.363 -74.8667 411.174 -28.8773L279.859 53.6372C270.731 59.373 262.115 65.8028 254.095 72.8641L156.673 158.644C108.536 201.029 85.2247 263.089 94.058 325.345L120.99 515.159C131.207 587.166 182.759 648.362 254.739 673.928L489.234 757.217C564.155 783.828 647.957 767.17 704.229 714.482L802.76 622.227C897.102 533.893 849.646 409 771.721 305.206Z" stroke="url(#paint11_linear_16572_162258)"/>
<path opacity="0.2" d="M792.425 316.651C762.118 262.837 1000.58 352.413 827.617 103.178C819.004 90.7664 808.194 78.9511 796.685 68.878L701.889 -14.0926C636.37 -71.4372 540.616 -83.2065 464.081 -43.3218L325.03 29.1415C315.557 34.0783 306.528 39.7367 298.03 46.0627L192.585 124.557C141.296 162.737 112.892 222.475 116.234 285.133L126.375 475.236C130.284 548.513 176.9 614.392 247.066 645.799L472.636 746.766C544.771 779.054 629.084 769.246 689.236 721.569L796.509 636.544C898.098 556.025 856.131 429.773 792.425 316.651Z" stroke="url(#paint12_linear_16572_162258)"/>
<path opacity="0.2" d="M812.229 329.443C792.482 277.559 1015.49 380.204 866.895 121.474C859.311 108.269 849.461 95.5063 838.75 84.4397L751.963 -5.23008C691.545 -67.6564 597.395 -87.081 518.043 -53.4922L372.203 8.24C362.45 12.3683 353.073 17.241 344.159 22.8123L231.376 93.307C177.306 127.103 144.032 184.169 141.873 246.803L135.355 435.95C132.805 509.956 173.984 580.109 241.761 617.224L456.964 735.07C525.846 772.791 610.103 769.779 673.694 727.324L789.014 650.334C897.145 578.143 858.403 450.756 812.229 329.443Z" stroke="url(#paint13_linear_16572_162258)"/>
<path opacity="0.2" d="M831.158 343.755C821.334 295.003 1028.15 408.834 904.402 142.774C897.935 128.868 889.146 115.242 879.34 103.251L801.049 7.51791C746.184 -59.5687 654.294 -86.4569 572.652 -59.3136L421.061 -8.9144C411.09 -5.59924 401.425 -1.52156 392.156 3.28098L272.815 65.1143C216.333 94.3787 178.428 148.446 170.795 210.632L147.842 397.635C138.74 471.793 174.011 545.734 238.82 588.361L442.314 722.204C507.505 765.081 591.168 768.774 657.762 731.714L780.328 663.505C894.262 600.101 856.797 470.996 831.158 343.755Z" stroke="url(#paint14_linear_16572_162258)"/>
<path opacity="0.2" d="M849.094 359.827C847.617 314.507 1038.7 438.685 939.882 166.906C934.61 152.406 926.977 138.015 918.176 125.183L848.804 24.0374C799.913 -47.2461 710.905 -81.3549 627.498 -60.7692L471.277 -22.2122C461.144 -19.7115 451.249 -16.4344 441.681 -12.4107L316.651 40.1668C258.122 64.7794 215.841 115.543 202.796 176.864L163.711 360.59C148.03 434.298 176.967 511.468 238.238 559.343L428.779 708.225C489.867 755.957 572.43 766.23 641.6 734.705L770.51 675.954C889.475 621.735 853.323 489.69 849.094 359.827Z" stroke="url(#paint15_linear_16572_162258)"/>
<path opacity="0.2" d="M865.765 377.597C871.129 335.689 1047.02 469.729 973.097 193.695C969.086 178.718 962.695 163.674 954.993 150.101L894.907 44.2007C852.365 -30.7775 766.829 -71.818 682.176 -57.8679L522.513 -31.5568C512.274 -29.8695 502.202 -27.396 492.388 -24.1586L362.618 18.65C302.4 38.5143 256.012 85.6889 237.651 145.736L182.801 325.107C160.589 397.746 182.829 477.519 240.008 530.31L416.451 693.211C473.056 745.471 554.041 762.173 625.368 736.298L759.631 687.59C882.83 642.897 849.23 506.775 865.765 377.597Z" stroke="url(#paint16_linear_16572_162258)"/>
<path opacity="0.2" d="M880.908 396.948C891.748 358.149 1052.93 501.902 1003.83 222.936C1001.13 207.612 996.054 192.04 989.534 177.836L939.048 67.8485C903.183 -10.2876 821.671 -57.9297 736.286 -50.662L574.426 -36.885C564.131 -36.0087 553.934 -34.3403 543.925 -31.8947L410.429 0.724882C348.877 15.7649 298.663 59.0826 275.115 117.456L204.925 291.446C176.305 362.392 191.558 444.083 244.127 501.394L405.42 677.238C457.189 733.678 536.146 756.639 609.221 736.503L747.773 698.326C874.384 663.44 845.747 522.805 880.908 396.948Z" stroke="url(#paint17_linear_16572_162258)"/>
<path opacity="0.2" d="M894.309 417.707C909.591 381.704 1056.22 534.984 1031.88 254.456C1030.53 238.922 1026.82 222.957 1021.55 208.245L980.933 94.8422C952.019 14.1146 875.045 -39.7632 789.437 -39.196L626.66 -38.1175C616.358 -38.0492 606.083 -37.1865 595.928 -35.5372L459.774 -13.4236C397.239 -3.26679 343.494 35.943 314.92 92.2568L229.863 259.883C195.036 328.519 203.103 411.401 250.584 472.774L395.765 660.434C442.377 720.685 518.88 749.716 593.3 735.395L735.016 708.123C864.2 683.264 843.044 538.478 894.309 417.707Z" stroke="url(#paint18_linear_16572_162258)"/>
<path opacity="0.2" d="M905.741 439.716C924.46 405.719 1056.72 568.953 1057.05 287.968C1057.07 272.365 1054.77 256.149 1050.81 241.061L1020.28 124.921C998.54 42.1924 926.58 -17.5243 841.254 -23.6484L678.857 -35.3042C668.595 -36.0408 658.291 -35.9843 648.037 -35.1354L510.33 -23.7344C447.158 -18.5042 390.192 16.3612 356.783 70.2423L257.379 230.56C216.624 296.289 217.4 379.606 259.37 444.53L387.565 642.832C428.727 706.505 502.37 741.406 577.736 732.958L721.449 716.848C852.353 702.174 842.199 555.12 905.741 439.716Z" stroke="url(#paint19_linear_16572_162258)"/>
<path opacity="0.2" d="M914.994 462.92C936.303 429.651 1054.21 603.875 1079.21 323.304C1080.6 307.776 1079.73 291.455 1077.1 276.127L1056.85 157.939C1042.44 73.8164 975.925 8.68471 891.383 -4.09534L730.664 -28.3911C720.489 -29.9293 710.203 -30.6794 699.896 -30.6349L561.761 -30.0383C498.3 -29.7642 438.437 0.535586 400.416 51.6266L287.23 203.719C240.897 265.978 234.377 348.965 270.48 416.884L380.896 624.606C416.345 691.297 486.739 731.853 562.651 729.323L707.171 724.506C838.931 720.115 843.681 574.255 914.994 462.92Z" stroke="url(#paint20_linear_16572_162258)"/>
<path opacity="0.2" d="M921.985 487.016C945.543 453.444 1048.49 639.212 1098.21 360.2C1100.94 344.887 1101.51 328.608 1100.24 313.18L1090.4 193.643C1083.41 108.745 1022.74 38.6448 939.487 19.2708L781.722 -17.4417C771.682 -19.7782 761.46 -21.3354 751.149 -22.0994L613.711 -32.2827C550.312 -36.9802 487.893 -11.452 445.51 36.5083L319.159 179.483C267.665 237.753 253.943 319.652 283.892 389.979L375.821 605.85C405.326 675.134 472.092 721.119 548.149 724.54L692.277 731.023C824.024 736.95 845.849 595.516 921.985 487.016Z" stroke="url(#paint21_linear_16572_162258)"/>
<path opacity="0.2" d="M926.658 511.756C952.476 477.007 1039.44 674.501 1113.93 398.387C1117.97 383.426 1119.95 367.334 1120.03 351.944L1120.71 231.771C1121.18 146.718 1066.72 72.1166 985.248 46.2382L831.675 -2.54372C821.818 -5.67487 811.71 -8.03927 801.444 -9.61558L665.812 -30.44C602.831 -40.1097 538.216 -19.5426 491.748 24.9648L352.907 157.949C296.723 211.762 275.992 291.846 299.575 363.971L372.393 586.667C395.752 658.107 458.523 709.28 534.313 718.672L676.865 736.336C807.728 752.551 847.528 618.261 926.658 511.756Z" stroke="url(#paint22_linear_16572_162258)"/>
<path opacity="0.2" d="M928.919 537.07C957.245 500.046 1026.97 709.574 1126.28 437.673C1131.56 423.191 1134.93 407.422 1136.35 392.205L1147.59 272.126C1155.51 187.538 1107.56 108.918 1028.38 76.6544L880.179 16.267C870.556 12.3459 860.613 9.17499 850.442 6.78317L717.691 -24.4335C655.492 -39.0597 589.063 -23.6249 538.816 17.1279L388.223 139.266C327.865 188.219 300.405 265.802 317.489 339.107L370.659 567.252C387.705 640.392 446.119 696.497 521.22 711.861L661.042 740.466C790.153 766.88 848.366 642.36 928.919 537.07Z" stroke="url(#paint23_linear_16572_162258)"/>
<path opacity="0.2" d="M928.711 562.703C960.113 522.36 1011.03 743.958 1135.17 477.716C1141.64 463.83 1146.33 448.516 1149.06 433.599L1170.87 314.359C1186.14 230.845 1145 148.707 1068.61 110.208L926.89 38.7855C917.555 34.0809 907.832 30.1057 897.81 26.8966L768.967 -14.3611C707.922 -33.9086 640.081 -23.7561 586.386 12.9623L424.858 123.42C360.875 167.173 327.038 241.628 337.565 315.499L370.648 547.664C381.246 622.034 434.946 682.792 508.923 704.113L644.908 743.305C771.407 779.763 847.509 667.026 928.711 562.703Z" stroke="url(#paint24_linear_16572_162258)"/>
<path opacity="0.2" d="M925.998 588.534C961.348 543.964 991.663 777.3 1140.55 518.314C1148.13 505.126 1154.09 490.385 1158.08 475.887L1190.4 358.25C1212.89 276.404 1178.8 191.261 1105.7 146.713L971.484 64.9184C962.495 59.4397 953.048 54.6651 943.234 50.6392L819.26 -0.216017C759.752 -24.6269 690.924 -19.8817 634.136 12.5469L462.572 110.517C395.532 148.8 355.735 219.565 359.718 293.404L372.38 528.103C376.433 603.22 425.067 668.33 497.467 695.566L628.574 744.887C751.611 791.172 844.204 691.659 925.998 588.534Z" stroke="url(#paint25_linear_16572_162258)"/>
<path opacity="0.2" d="M920.982 614.056C961.216 565.814 969.314 808.67 1142.39 559.173C1150.99 546.774 1158.14 532.712 1163.32 518.741L1206.05 403.485C1235.56 323.88 1208.73 236.259 1139.43 185.885L1013.64 94.4621C1005.06 88.2228 995.95 82.6573 986.406 77.8186L868.189 17.8898C810.609 -11.2998 741.241 -12.0581 681.738 15.8516L501.13 100.565C431.609 133.174 386.312 199.761 383.833 272.993L375.853 508.693C373.302 584.061 416.524 653.194 486.878 686.273L612.146 745.172C730.887 801.003 837.087 714.648 920.982 614.056Z" stroke="url(#paint26_linear_16572_162258)"/>
<path opacity="0.2" d="M913.764 639.012C959.63 588.135 944.302 837.761 1140.68 600.057C1150.2 588.523 1158.46 575.234 1164.77 561.885L1217.72 449.799C1254.01 372.982 1234.62 283.425 1169.6 227.489L1053.07 127.244C1044.95 120.263 1036.25 113.92 1027.04 108.277L915.384 39.8655C860.132 6.01272 790.692 -0.31175 728.874 22.8783L540.308 93.6152C468.879 120.41 418.574 182.407 409.771 254.491L381.056 489.614C371.882 564.729 409.355 637.52 477.179 676.335L595.737 744.185C709.371 809.217 826.482 735.829 913.764 639.012Z" stroke="url(#paint27_linear_16572_162258)"/>
<path opacity="0.2" d="M904.189 663.384C956.56 610.07 916.573 864.687 1135.41 640.657C1145.77 630.05 1155.04 617.613 1162.4 604.969L1225.32 496.848C1268.09 423.338 1256.3 332.398 1196.04 271.209L1089.49 162.997C1081.91 155.299 1073.67 148.199 1064.87 141.767L960.484 65.5143C907.965 27.1494 838.94 15.2339 775.224 33.534L579.884 89.6382C507.108 110.54 452.303 167.607 437.363 238.04L387.956 470.975C372.186 545.325 403.584 621.374 468.382 665.775L579.46 741.888C687.2 815.714 813.292 755.917 904.189 663.384Z" stroke="url(#paint28_linear_16572_162258)"/>
<path opacity="0.2" d="M892.334 686.982C952.044 631.72 886.391 889.201 1126.61 680.746C1137.71 671.115 1147.91 659.597 1156.24 647.729L1228.8 544.365C1277.73 474.649 1273.62 382.893 1218.61 316.808L1122.63 201.512C1115.65 193.131 1107.96 185.301 1099.64 178.103L1003.15 94.6885C953.768 52.0015 885.658 34.5128 820.479 47.7852L619.645 88.6806C546.06 103.665 487.264 155.532 466.417 223.852L396.507 452.965C374.211 526.034 399.229 604.901 460.495 654.688L563.431 738.337C664.52 820.486 797.584 774.671 892.334 686.982Z" stroke="url(#paint29_linear_16572_162258)"/>
<path opacity="0.2" d="M878.308 709.519C946.069 653.093 854.06 911.005 1114.35 720.006C1126.09 711.39 1137.13 700.845 1146.35 689.813L1228.12 591.985C1282.85 526.516 1286.5 434.525 1237.17 363.949L1152.27 242.47C1145.97 233.447 1138.89 224.924 1131.12 216.99L1043.05 127.116C997.213 80.3396 930.527 57.3418 864.333 65.4827L659.374 90.6895C585.493 99.7756 523.208 146.237 496.714 212.025L406.645 435.677C377.942 506.949 396.298 588.15 453.527 643.071L547.762 733.504C641.482 823.444 779.519 791.783 878.308 709.519Z" stroke="url(#paint30_linear_16572_162258)"/>
<path opacity="0.2" d="M862.663 730.515C938.157 675.18 820.407 929.634 1098.68 758.216C1110.97 750.643 1122.76 741.114 1132.79 730.968L1223.28 639.437C1283.4 578.631 1294.83 486.998 1251.62 412.383L1178.2 285.625C1172.63 276.012 1166.24 266.843 1159.1 258.213L1079.89 162.59C1037.99 112.002 973.244 83.6089 906.491 86.5504L698.853 95.7003C625.161 98.9477 559.873 139.85 528.013 202.73L418.288 419.289C383.345 488.255 394.792 571.263 447.486 631.007L532.563 727.468C618.238 824.606 759.322 806.26 862.663 730.515Z" stroke="url(#paint31_linear_16572_162258)"/>
<path opacity="0.2" d="M845.341 750.008C928.373 697.169 785.434 945.251 1079.71 795.097C1092.47 788.586 1104.91 780.108 1115.67 770.887L1214.3 686.379C1279.38 630.617 1298.58 539.947 1261.86 461.795L1200.24 330.65C1195.47 320.51 1189.84 310.751 1183.39 301.478L1113.41 200.813C1075.82 146.737 1013.52 113.114 946.673 110.825L737.869 103.675C664.818 101.174 596.99 136.41 560.062 196.045L431.346 403.908C390.379 470.066 394.713 554.312 442.388 618.506L517.95 720.251C594.952 823.935 737.531 818.614 845.341 750.008Z" stroke="url(#paint32_linear_16572_162258)"/>
<path opacity="0.2" d="M826.427 767.928C916.743 718.736 749.338 957.85 1057.55 830.398C1070.7 824.962 1083.7 817.562 1095.12 809.299L1201.22 732.497C1270.82 682.125 1297.71 593.028 1267.83 511.889L1218.23 377.232C1214.32 366.636 1209.51 356.356 1203.83 346.501L1143.37 241.491C1110.43 184.296 1051.08 145.661 984.607 138.148L776.198 114.593C704.211 106.456 634.283 135.955 592.591 192.046L445.711 389.654C398.985 452.519 396.054 537.394 438.255 605.605L504.024 711.912C571.783 821.435 714.431 828.929 826.427 767.928Z" stroke="url(#paint33_linear_16572_162258)"/>
<path opacity="0.2" d="M806.131 784.157C903.199 739.795 712.455 967.38 1032.35 863.888C1045.8 859.536 1059.3 853.233 1071.29 845.955L1184.13 777.49C1257.76 732.814 1292.24 645.909 1269.47 562.371L1232.05 425.055C1229.06 414.086 1225.12 403.362 1220.29 392.999L1169.56 284.322C1141.6 224.421 1085.67 181.044 1020.04 168.351L813.617 128.432C743.087 114.792 671.473 138.508 625.327 190.786L461.268 376.646C409.095 435.752 398.808 520.612 435.118 592.349L490.887 702.529C548.895 817.133 690.293 837.097 806.131 784.157Z" stroke="url(#paint34_linear_16572_162258)"/>
<path opacity="0.2" d="M784.666 798.549C887.673 760.172 675.113 973.775 1004.27 895.29C1017.95 892.026 1031.86 886.836 1044.36 880.565L1163.12 821.002C1240.3 782.293 1282.18 698.198 1266.76 612.887L1241.61 473.738C1239.58 462.487 1236.58 451.407 1232.63 440.62L1191.82 328.934C1169.1 266.779 1117.06 218.98 1052.73 201.19L849.892 145.1C781.187 126.101 708.277 144.008 657.987 192.232L477.884 364.933C420.626 419.838 402.959 504.015 433.012 578.73L478.627 692.131C526.445 811.01 665.397 842.985 784.666 798.549Z" stroke="url(#paint35_linear_16572_162258)"/>
<path opacity="0.2" d="M762.255 811.093C870.118 779.759 637.635 977.104 973.484 924.434C987.336 922.262 1001.58 918.198 1014.52 912.952L1138.32 862.785C1218.54 830.276 1267.59 749.605 1259.68 663.175L1246.86 522.997C1245.82 511.562 1243.78 500.221 1240.78 489.101L1210.01 375.044C1192.77 311.123 1145.02 259.268 1082.44 236.502L884.788 164.59C818.257 140.385 744.423 152.467 690.296 196.418L495.429 354.647C433.489 404.941 408.495 487.75 431.985 564.847L467.329 680.851C504.594 803.162 640.033 846.598 762.255 811.093Z" stroke="url(#paint36_linear_16572_162258)"/>
<path opacity="0.2" d="M739.113 821.713C850.511 798.326 600.328 977.376 940.211 951.076C954.162 949.997 968.669 947.069 981.988 942.867L1109.9 902.504C1192.64 876.395 1248.56 799.75 1248.26 712.874L1247.77 572.45C1247.73 560.934 1246.69 549.435 1244.67 538.08L1224.05 422.276C1212.44 357.101 1169.37 301.599 1108.99 274.012L918.069 186.782C854.044 157.531 779.64 163.781 721.985 203.255L513.763 345.814C447.586 391.123 415.398 471.874 432.087 550.718L457.068 668.736C483.499 793.602 614.484 847.877 739.113 821.713Z" stroke="url(#paint37_linear_16572_162258)"/>
<path opacity="0.2" d="M715.442 830.412C828.863 815.666 563.479 974.68 904.669 975.034C918.653 975.048 933.355 973.267 946.984 970.122L1078.04 939.887C1162.77 920.34 1225.21 848.304 1232.52 761.667L1244.34 621.766C1245.31 610.275 1245.28 598.723 1244.26 587.238L1233.87 470.298C1228.01 404.404 1189.94 345.697 1132.18 313.482L949.492 211.588C888.295 177.456 813.668 177.869 752.793 212.675L532.743 338.496C462.809 378.483 423.643 456.492 433.371 536.424L447.91 655.885C463.308 782.407 589.022 846.847 715.442 830.412Z" stroke="url(#paint38_linear_16572_162258)"/>
<path opacity="0.2" d="M691.428 837.199C805.225 831.541 527.355 969.111 867.102 996.125C881.056 997.234 895.882 996.607 909.757 994.536L1042.95 974.659C1129.12 961.798 1197.67 894.928 1212.55 809.211L1236.6 670.6C1238.57 659.24 1239.55 647.742 1239.54 636.233L1239.44 518.768C1239.38 452.695 1206.59 391.255 1151.86 354.639L978.82 238.876C920.765 200.038 846.258 194.608 782.478 224.567L552.228 332.719C479.048 367.093 433.201 441.7 435.888 522.042L439.911 642.381C444.167 769.646 563.907 843.539 691.428 837.199Z" stroke="url(#paint39_linear_16572_162258)"/>
<path opacity="0.2" d="M667.231 842.112C779.699 845.712 492.197 960.796 827.77 1014.2C841.628 1016.4 856.508 1016.94 870.565 1015.96L1004.87 1006.57C1091.94 1000.49 1166.12 939.303 1188.42 855.179L1224.62 718.623C1227.57 707.498 1229.55 696.159 1230.55 684.732L1240.76 567.36C1246.48 501.65 1219.2 437.967 1167.88 397.21L1005.82 268.507C951.217 225.144 877.179 213.867 810.814 238.804L572.075 328.512C496.187 357.027 444.035 427.604 439.681 507.678L433.122 628.32C426.212 755.41 539.381 838.019 667.231 842.112Z" stroke="url(#paint40_linear_16572_162258)"/>
<path opacity="0.2" d="M642.99 845.181C752.431 857.926 458.218 949.857 786.947 1029.1C800.641 1032.4 815.502 1034.11 829.674 1034.23L964.078 1035.37C1051.48 1036.12 1130.76 981.102 1160.28 899.219L1208.49 765.496C1212.38 754.705 1215.34 743.626 1217.32 732.383L1237.87 615.737C1249.29 550.922 1227.68 485.502 1180.13 440.892L1030.26 300.293C979.423 252.603 906.212 235.478 837.595 255.226L592.145 325.867C514.108 348.326 456.095 414.294 444.784 493.433L427.583 613.78C409.574 739.782 515.665 830.353 642.99 845.181Z" stroke="url(#paint41_linear_16572_162258)"/>
<path opacity="0.2" d="M618.818 846.478C723.616 867.98 425.605 936.467 744.918 1040.75C758.377 1045.15 773.143 1048.03 787.361 1049.27L920.842 1060.88C1008.02 1068.47 1091.82 1020.05 1128.29 941.029L1188.33 810.929C1193.12 800.562 1197 789.84 1199.94 778.878L1230.81 663.613C1247.79 600.206 1231.97 533.558 1188.52 485.412L1051.92 334.065C1005.17 282.26 933.158 259.293 862.639 273.692L612.301 324.809C532.687 341.066 469.322 401.899 451.211 479.463L423.328 598.881C394.371 722.897 492.967 820.657 618.818 846.478Z" stroke="url(#paint42_linear_16572_162258)"/>
<path opacity="0.2" d="M594.809 846.051C693.503 875.671 394.52 920.778 701.981 1049.06C715.13 1054.55 729.722 1058.61 743.91 1060.97L875.474 1082.91C961.852 1097.31 1049.55 1055.87 1092.64 980.288L1164.29 854.619C1169.91 844.76 1174.67 834.481 1178.52 823.891L1219.66 710.689C1242.01 649.176 1232.04 581.806 1192.98 530.466L1070.61 369.603C1028.25 313.918 957.839 285.127 885.789 294.028L632.413 325.328C551.801 335.286 483.643 390.526 458.961 465.905L420.384 583.719C380.714 704.872 471.48 809.038 594.809 846.051Z" stroke="url(#paint43_linear_16572_162258)"/>
<path opacity="0.2" d="M571.045 843.915C662.377 880.801 365.103 902.919 658.442 1053.94C671.202 1060.51 685.535 1065.75 699.614 1069.25L828.298 1101.27C913.306 1122.43 1004.25 1088.27 1053.58 1016.67L1136.52 896.253C1142.92 886.974 1148.5 877.215 1153.21 867.078L1204.51 756.65C1232 697.486 1227.88 629.892 1193.49 575.722L1086.14 406.637C1048.49 347.336 980.098 312.759 906.915 316.024L652.356 327.379C571.328 330.993 498.974 380.251 468.009 452.882L418.773 568.367C368.702 685.811 451.388 795.589 571.045 843.915Z" stroke="url(#paint44_linear_16572_162258)"/>
<path opacity="0.2" d="M547.592 840.108C630.561 883.249 337.468 883.051 614.608 1055.37C626.895 1063.01 640.879 1069.42 654.764 1074.07L779.648 1115.85C862.717 1143.65 956.22 1117.03 1011.35 1049.89L1105.23 935.568C1112.32 926.93 1118.66 917.758 1124.17 908.146L1185.48 801.231C1217.82 744.831 1219.52 677.496 1190.02 620.88L1098.34 444.912C1065.72 382.291 999.795 341.995 925.906 339.505L672.006 330.947C591.139 328.222 515.213 371.184 478.304 440.55L418.506 552.936C358.421 665.861 432.863 780.453 547.592 840.108Z" stroke="url(#paint45_linear_16572_162258)"/>
<path opacity="0.2" d="M524.727 834.784C597.872 882.891 311.958 861.496 570.795 1053.34C582.52 1062.03 596.06 1069.6 609.659 1075.39L729.875 1126.54C810.438 1160.83 905.794 1141.93 966.273 1079.69L1070.62 972.304C1078.34 964.358 1085.36 955.829 1091.61 946.804L1162.7 844.163C1199.58 790.901 1207.01 724.292 1182.6 665.628L1107.1 484.142C1079.8 418.535 1016.82 372.621 942.681 364.283L691.247 336.002C611.112 326.988 532.25 363.412 489.778 429.053L419.591 537.528C349.945 645.167 416.51 763.611 524.727 834.784Z" stroke="url(#paint46_linear_16572_162258)"/>
<path opacity="0.2" d="M502.553 828.097C564.381 879.546 288.747 838.588 527.312 1047.87C538.381 1057.59 551.377 1066.3 564.593 1073.22L679.332 1133.3C756.829 1173.87 853.323 1162.81 918.658 1105.85L1032.92 1006.24C1041.2 999.025 1048.84 991.185 1055.76 982.797L1136.3 885.206C1177.4 835.416 1190.44 769.976 1171.28 709.675L1112.29 524.039C1090.62 455.821 1031.07 404.441 957.174 390.191L709.965 342.523C631.114 327.319 549.957 357.032 502.33 418.544L422.021 522.265C343.329 623.897 402.888 745.16 502.553 828.097Z" stroke="url(#paint47_linear_16572_162258)"/>
<path opacity="0.2" d="M480.789 819.794C531.343 873.202 267.503 814.155 484.473 1038.99C494.791 1049.69 507.138 1059.51 519.87 1067.54L628.385 1136.03C702.269 1182.65 799.184 1179.47 868.867 1128.13L992.399 1037.11C1001.15 1030.66 1009.33 1023.54 1016.86 1015.83L1106.47 924.072C1151.41 878.044 1169.91 814.192 1156.12 752.675L1113.87 564.246C1098.09 493.835 1042.49 437.195 969.347 417.012L728.055 350.428C651.027 329.172 568.205 352.072 515.853 409.102L425.789 507.212C338.623 602.166 391.597 725.567 480.789 819.794Z" stroke="url(#paint48_linear_16572_162258)"/>
<path opacity="0.2" d="M459.522 809.866C499.184 863.977 248.267 788.313 442.579 1026.79C452.049 1038.41 463.64 1049.3 475.781 1058.42L577.395 1134.75C647.133 1187.14 743.757 1191.82 817.267 1146.37L949.311 1064.73C958.473 1059.06 967.128 1052.7 975.194 1045.7L1073.36 960.546C1121.79 918.529 1145.57 856.662 1137.23 794.353L1111.8 604.46C1102.14 532.319 1051.01 470.689 979.169 444.596L745.411 359.694C670.72 332.566 586.848 348.61 530.211 400.859L430.871 492.501C335.853 580.158 382.793 705.181 459.522 809.866Z" stroke="url(#paint49_linear_16572_162258)"/>
<path opacity="0.2" d="M438.88 798.261C468.303 852.006 231.093 761.119 401.924 1011.33C410.449 1023.82 421.178 1035.72 432.62 1045.88L526.721 1129.48C591.802 1187.29 687.44 1199.76 764.249 1160.43L903.948 1088.9C913.448 1084.03 922.511 1078.45 931.049 1072.19L1037.18 994.379C1088.73 956.584 1117.58 897.072 1114.73 834.399L1106.09 644.331C1102.75 570.966 1056.6 504.687 986.629 472.762L761.93 370.251C690.067 337.466 605.737 346.662 545.258 393.88L437.235 478.218C335.032 558.012 376.533 684.381 438.88 798.261Z" stroke="url(#paint50_linear_16572_162258)"/>
<path opacity="0.2" d="M419.166 785.37C437.962 836.995 216.413 733.304 362.794 992.761C370.282 1006.03 380.041 1018.88 390.675 1030.03L476.72 1120.27C536.66 1183.13 630.633 1203.23 710.212 1170.21L856.611 1109.47C866.386 1105.42 875.791 1100.61 884.739 1095.11L998.142 1025.37C1052.44 991.97 1086.14 935.16 1088.79 872.549L1096.79 683.545C1099.93 609.502 1059.26 538.989 991.723 501.372L777.514 382.056C708.945 343.862 624.72 346.269 560.842 388.248L444.838 464.482C336.157 535.904 374.759 663.404 419.166 785.37Z" stroke="url(#paint51_linear_16572_162258)"/>
<path opacity="0.2" d="M400.315 770.908C409.328 819.36 203.944 704.574 325.458 971.21C331.821 985.173 340.511 998.872 350.231 1010.94L427.74 1107.19C482.086 1174.67 573.743 1202.21 655.565 1175.65L807.617 1126.29C817.605 1123.05 827.293 1119.05 836.591 1114.31L956.478 1053.28C1013.16 1024.43 1051.47 970.649 1059.59 908.523L1084 721.768C1093.69 647.625 1058.97 573.371 994.452 530.263L792.068 395.033C727.228 351.709 643.644 347.421 576.801 383.991L453.629 451.38C339.213 513.977 376.576 643.293 400.315 770.908Z" stroke="url(#paint52_linear_16572_162258)"/>
<path opacity="0.2" d="M382.48 754.679C383.285 799.69 193.581 674.613 290.17 946.83C295.332 961.378 302.857 975.833 311.563 988.735L380.118 1090.33C428.455 1161.97 517.176 1196.71 600.716 1176.72L757.295 1139.24C767.439 1136.81 777.352 1133.61 786.945 1129.65L912.439 1077.93C971.134 1053.74 1013.79 1003.29 1027.32 942.063L1067.83 758.684C1084.1 685.046 1055.75 607.616 994.822 559.287L805.497 409.107C744.795 360.956 662.355 350.101 592.975 381.124L463.544 438.999C344.166 492.379 380.157 624.748 382.48 754.679Z" stroke="url(#paint53_linear_16572_162258)"/>
<path opacity="0.2" d="M365.935 736.764C360.028 778.379 185.47 643.467 257.169 919.817C261.064 934.829 267.34 949.926 274.939 963.561L334.178 1069.85C376.135 1145.14 461.333 1186.78 546.072 1173.43L705.983 1148.23C716.229 1146.62 726.314 1144.21 736.148 1141.05L866.295 1099.14C926.646 1079.7 973.388 1032.86 992.219 972.947L1048.46 794.016C1071.25 721.504 1049.63 641.53 992.84 588.317L817.712 424.213C761.526 371.564 680.705 354.294 609.204 379.659L474.512 427.442C350.974 471.268 384.241 607.791 365.935 736.764Z" stroke="url(#paint54_linear_16572_162258)"/>
<path opacity="0.2" d="M350.941 717.281C339.672 755.825 179.787 611.199 226.67 890.368C229.248 905.716 234.205 921.329 240.616 935.583L290.228 1045.9C325.482 1124.3 406.607 1172.51 492.033 1165.84L654.028 1153.2C664.326 1152.39 674.532 1150.8 684.556 1148.42L818.335 1116.73C879.988 1102.13 930.53 1059.17 954.536 1000.96L1026.08 827.504C1055.26 756.74 1040.64 674.911 988.513 617.217L828.625 440.269C777.304 383.472 698.55 359.961 625.338 379.578L486.456 416.792C359.58 450.789 387.623 591.812 350.941 717.281Z" stroke="url(#paint55_linear_16572_162258)"/>
<path opacity="0.2" d="M337.704 696.426C322.071 732.203 176.742 578.068 198.872 858.674C200.098 874.22 203.682 890.213 208.836 904.964L248.559 1018.64C276.839 1099.57 353.382 1153.99 438.985 1154.02L601.782 1154.08C612.082 1154.09 622.361 1153.3 632.527 1151.72L768.866 1130.56C831.473 1120.84 885.518 1082.01 914.534 1025.9L1000.9 858.888C1036.27 790.489 1028.85 707.537 981.846 645.824L838.151 457.162C792.016 396.59 715.752 367.024 641.232 380.822L499.288 407.103C369.915 431.056 390.258 576.157 337.704 696.426Z" stroke="url(#paint56_linear_16572_162258)"/>
<path opacity="0.2" d="M326.458 674.271C307.479 708.149 176.497 543.974 173.955 824.958C173.814 840.56 175.985 856.792 179.832 871.907L209.444 988.259C230.538 1071.14 302.027 1131.36 387.303 1138.08L549.603 1150.87C559.859 1151.68 570.163 1151.7 580.424 1150.92L718.215 1140.48C781.427 1135.7 838.666 1101.23 872.497 1047.58L973.159 887.965C1014.43 822.525 1014.31 739.206 972.849 673.991L846.215 474.794C805.554 410.834 732.186 375.418 656.755 383.338L512.92 398.441C381.904 412.198 390.869 559.297 326.458 674.271Z" stroke="url(#paint57_linear_16572_162258)"/>
<path opacity="0.2" d="M317.407 650.982C295.895 684.254 179.287 508.991 152.072 789.482C150.567 804.997 151.307 821.32 153.812 836.663L173.137 955C186.89 1039.22 252.894 1104.81 337.341 1118.19L497.847 1143.6C508.012 1145.21 518.295 1146.04 528.603 1146.06L666.722 1146.44C730.192 1146.61 790.298 1116.73 828.721 1065.9L943.111 914.588C989.923 852.666 997.094 769.746 961.532 701.587L852.743 493.082C817.816 426.142 747.733 385.09 671.791 387.089L527.257 390.892C395.462 394.36 389.213 539.92 317.407 650.982Z" stroke="url(#paint58_linear_16572_162258)"/>
<path opacity="0.2" d="M310.617 626.841C286.859 660.474 185.302 473.672 133.363 752.477C130.515 767.763 129.823 784.031 130.971 799.462L139.871 919.085C146.19 1004.02 206.318 1074.54 289.434 1094.51L446.873 1132.31C456.899 1134.72 467.113 1136.35 477.422 1137.19L614.743 1148.33C678.119 1153.47 740.75 1128.38 783.511 1080.72L911.009 938.602C962.943 880.714 977.301 798.948 947.914 728.435L857.672 511.898C828.71 442.403 762.286 395.943 686.236 391.988L542.2 384.497C410.497 377.648 387.105 518.561 310.617 626.841Z" stroke="url(#paint59_linear_16572_162258)"/>
<path opacity="0.2" d="M306.156 602.024C280.129 636.933 194.652 438.369 117.941 714.162C113.791 729.085 111.686 745.154 111.479 760.534L109.86 880.729C108.714 965.765 162.611 1040.75 243.895 1067.2L397.035 1117.04C406.873 1120.25 416.968 1122.68 427.228 1124.33L562.646 1146.1C625.572 1156.21 690.365 1136.1 737.184 1091.91L877.109 959.866C933.688 906.472 955.034 826.585 932.028 754.329L860.949 531.088C838.148 459.477 775.753 407.852 700.007 397.925L557.652 379.27C426.911 362.137 385.464 495.65 306.156 602.024Z" stroke="url(#paint60_linear_16572_162258)"/>
<path opacity="0.2" d="M304.114 576.701C275.54 613.982 207.434 403.368 105.902 674.825C100.503 689.258 97.0213 704.991 95.4786 720.186L83.292 840.221C74.7116 924.737 122.061 1003.69 201.012 1036.52L348.677 1097.92C358.276 1101.91 368.201 1105.16 378.362 1107.62L510.804 1139.75C572.915 1154.82 639.487 1139.85 690.057 1099.45L841.663 978.325C902.368 929.824 930.415 852.497 913.917 779.116L862.528 550.551C846.055 477.282 788.048 420.749 713.029 404.85L573.506 375.281C444.594 347.961 384.743 471.498 304.114 576.701Z" stroke="url(#paint61_linear_16572_162258)"/>
<path opacity="0.2" d="M304.543 551.016C272.828 591.704 223.681 369.034 97.3208 634.694C90.7434 648.522 85.9365 663.79 83.0938 678.674L60.341 797.802C44.4143 881.19 84.9362 963.618 161.053 1002.67L302.141 1075.05C311.447 1079.82 321.148 1083.87 331.153 1087.15L459.599 1129.29C520.522 1149.27 588.469 1139.6 642.456 1103.25L804.921 993.882C869.201 950.608 903.589 876.463 893.65 802.57L862.382 570.117C852.367 495.66 799.106 434.5 725.252 412.647L589.662 372.528C463.439 335.18 385.791 446.783 304.543 551.016Z" stroke="url(#paint62_linear_16572_162258)"/>
</g>
<defs>
<linearGradient id="paint0_linear_16572_162258" x1="817.001" y1="552.038" x2="-13.0244" y2="552.038" gradientUnits="userSpaceOnUse">
<stop stop-color="#914CEB"/>
<stop offset="0.2" stop-color="#CD5C5C"/>
<stop offset="0.4" stop-color="#FF8C00"/>
<stop offset="0.6" stop-color="#EEE8AA"/>
<stop offset="0.8" stop-color="#2E8B57"/>
<stop offset="1" stop-color="#4682B4"/>
</linearGradient>
<linearGradient id="paint1_linear_16572_162258" x1="816.836" y1="567.722" x2="-9.65508" y2="495.034" gradientUnits="userSpaceOnUse">
<stop stop-color="#914CEB"/>
<stop offset="0.2" stop-color="#CD5C5C"/>
<stop offset="0.4" stop-color="#FF8C00"/>
<stop offset="0.6" stop-color="#EEE8AA"/>
<stop offset="0.8" stop-color="#2E8B57"/>
<stop offset="1" stop-color="#4682B4"/>
</linearGradient>
<linearGradient id="paint2_linear_16572_162258" x1="815.298" y1="583.343" x2="-0.662753" y2="438.822" gradientUnits="userSpaceOnUse">
<stop stop-color="#914CEB"/>
<stop offset="0.2" stop-color="#CD5C5C"/>
<stop offset="0.4" stop-color="#FF8C00"/>
<stop offset="0.6" stop-color="#EEE8AA"/>
<stop offset="0.8" stop-color="#2E8B57"/>
<stop offset="1" stop-color="#4682B4"/>
</linearGradient>
<linearGradient id="paint3_linear_16572_162258" x1="812.395" y1="598.792" x2="13.7477" y2="384.115" gradientUnits="userSpaceOnUse">
<stop stop-color="#914CEB"/>
<stop offset="0.2" stop-color="#CD5C5C"/>
<stop offset="0.4" stop-color="#FF8C00"/>
<stop offset="0.6" stop-color="#EEE8AA"/>
<stop offset="0.8" stop-color="#2E8B57"/>
<stop offset="1" stop-color="#4682B4"/>
</linearGradient>
<linearGradient id="paint4_linear_16572_162258" x1="808.149" y1="613.968" x2="33.2538" y2="331.57" gradientUnits="userSpaceOnUse">
<stop stop-color="#914CEB"/>
<stop offset="0.2" stop-color="#CD5C5C"/>
<stop offset="0.4" stop-color="#FF8C00"/>
<stop offset="0.6" stop-color="#EEE8AA"/>
<stop offset="0.8" stop-color="#2E8B57"/>
<stop offset="1" stop-color="#4682B4"/>
</linearGradient>
<linearGradient id="paint5_linear_16572_162258" x1="802.588" y1="628.748" x2="57.4358" y2="281.734" gradientUnits="userSpaceOnUse">
<stop stop-color="#914CEB"/>
<stop offset="0.2" stop-color="#CD5C5C"/>
<stop offset="0.4" stop-color="#FF8C00"/>
<stop offset="0.6" stop-color="#EEE8AA"/>
<stop offset="0.8" stop-color="#2E8B57"/>
<stop offset="1" stop-color="#4682B4"/>
</linearGradient>
<linearGradient id="paint6_linear_16572_162258" x1="795.751" y1="643.037" x2="85.8037" y2="235.077" gradientUnits="userSpaceOnUse">
<stop stop-color="#914CEB"/>
<stop offset="0.2" stop-color="#CD5C5C"/>
<stop offset="0.4" stop-color="#FF8C00"/>
<stop offset="0.6" stop-color="#EEE8AA"/>
<stop offset="0.8" stop-color="#2E8B57"/>
<stop offset="1" stop-color="#4682B4"/>
</linearGradient>
<linearGradient id="paint7_linear_16572_162258" x1="787.682" y1="656.769" x2="117.821" y2="191.981" gradientUnits="userSpaceOnUse">
<stop stop-color="#914CEB"/>
<stop offset="0.2" stop-color="#CD5C5C"/>
<stop offset="0.4" stop-color="#FF8C00"/>
<stop offset="0.6" stop-color="#EEE8AA"/>
<stop offset="0.8" stop-color="#2E8B57"/>
<stop offset="1" stop-color="#4682B4"/>
</linearGradient>
<linearGradient id="paint8_linear_16572_162258" x1="778.44" y1="669.815" x2="152.944" y2="152.651" gradientUnits="userSpaceOnUse">
<stop stop-color="#914CEB"/>
<stop offset="0.2" stop-color="#CD5C5C"/>
<stop offset="0.4" stop-color="#FF8C00"/>
<stop offset="0.6" stop-color="#EEE8AA"/>
<stop offset="0.8" stop-color="#2E8B57"/>
<stop offset="1" stop-color="#4682B4"/>
</linearGradient>
<linearGradient id="paint9_linear_16572_162258" x1="768.085" y1="682.079" x2="190.63" y2="117.213" gradientUnits="userSpaceOnUse">
<stop stop-color="#914CEB"/>
<stop offset="0.2" stop-color="#CD5C5C"/>
<stop offset="0.4" stop-color="#FF8C00"/>
<stop offset="0.6" stop-color="#EEE8AA"/>
<stop offset="0.8" stop-color="#2E8B57"/>
<stop offset="1" stop-color="#4682B4"/>
</linearGradient>
<linearGradient id="paint10_linear_16572_162258" x1="756.692" y1="693.496" x2="230.376" y2="85.732" gradientUnits="userSpaceOnUse">
<stop stop-color="#914CEB"/>
<stop offset="0.2" stop-color="#CD5C5C"/>
<stop offset="0.4" stop-color="#FF8C00"/>
<stop offset="0.6" stop-color="#EEE8AA"/>
<stop offset="0.8" stop-color="#2E8B57"/>
<stop offset="1" stop-color="#4682B4"/>
</linearGradient>
<linearGradient id="paint11_linear_16572_162258" x1="744.336" y1="703.99" x2="271.722" y2="58.1732" gradientUnits="userSpaceOnUse">
<stop stop-color="#914CEB"/>
<stop offset="0.2" stop-color="#CD5C5C"/>
<stop offset="0.4" stop-color="#FF8C00"/>
<stop offset="0.6" stop-color="#EEE8AA"/>
<stop offset="0.8" stop-color="#2E8B57"/>
<stop offset="1" stop-color="#4682B4"/>
</linearGradient>
<linearGradient id="paint12_linear_16572_162258" x1="731.103" y1="713.473" x2="314.266" y2="34.4294" gradientUnits="userSpaceOnUse">
<stop stop-color="#914CEB"/>
<stop offset="0.2" stop-color="#CD5C5C"/>
<stop offset="0.4" stop-color="#FF8C00"/>
<stop offset="0.6" stop-color="#EEE8AA"/>
<stop offset="0.8" stop-color="#2E8B57"/>
<stop offset="1" stop-color="#4682B4"/>
</linearGradient>
<linearGradient id="paint13_linear_16572_162258" x1="717.084" y1="721.89" x2="357.674" y2="14.3792" gradientUnits="userSpaceOnUse">
<stop stop-color="#914CEB"/>
<stop offset="0.2" stop-color="#CD5C5C"/>
<stop offset="0.4" stop-color="#FF8C00"/>
<stop offset="0.6" stop-color="#EEE8AA"/>
<stop offset="0.8" stop-color="#2E8B57"/>
<stop offset="1" stop-color="#4682B4"/>
</linearGradient>
<linearGradient id="paint14_linear_16572_162258" x1="702.376" y1="729.191" x2="401.674" y2="-2.12187" gradientUnits="userSpaceOnUse">
<stop stop-color="#914CEB"/>
<stop offset="0.2" stop-color="#CD5C5C"/>
<stop offset="0.4" stop-color="#FF8C00"/>
<stop offset="0.6" stop-color="#EEE8AA"/>
<stop offset="0.8" stop-color="#2E8B57"/>
<stop offset="1" stop-color="#4682B4"/>
</linearGradient>
<linearGradient id="paint15_linear_16572_162258" x1="687.077" y1="735.316" x2="446.053" y2="-15.2433" gradientUnits="userSpaceOnUse">
<stop stop-color="#914CEB"/>
<stop offset="0.2" stop-color="#CD5C5C"/>
<stop offset="0.4" stop-color="#FF8C00"/>
<stop offset="0.6" stop-color="#EEE8AA"/>
<stop offset="0.8" stop-color="#2E8B57"/>
<stop offset="1" stop-color="#4682B4"/>
</linearGradient>
<linearGradient id="paint16_linear_16572_162258" x1="671.295" y1="740.222" x2="490.657" y2="-25.1336" gradientUnits="userSpaceOnUse">
<stop stop-color="#914CEB"/>
<stop offset="0.2" stop-color="#CD5C5C"/>
<stop offset="0.4" stop-color="#FF8C00"/>
<stop offset="0.6" stop-color="#EEE8AA"/>
<stop offset="0.8" stop-color="#2E8B57"/>
<stop offset="1" stop-color="#4682B4"/>
</linearGradient>
<linearGradient id="paint17_linear_16572_162258" x1="655.139" y1="743.869" x2="535.377" y2="-31.9279" gradientUnits="userSpaceOnUse">
<stop stop-color="#914CEB"/>
<stop offset="0.2" stop-color="#CD5C5C"/>
<stop offset="0.4" stop-color="#FF8C00"/>
<stop offset="0.6" stop-color="#EEE8AA"/>
<stop offset="0.8" stop-color="#2E8B57"/>
<stop offset="1" stop-color="#4682B4"/>
</linearGradient>
<linearGradient id="paint18_linear_16572_162258" x1="638.717" y1="746.267" x2="580.137" y2="-35.6891" gradientUnits="userSpaceOnUse">
<stop stop-color="#914CEB"/>
<stop offset="0.2" stop-color="#CD5C5C"/>
<stop offset="0.4" stop-color="#FF8C00"/>
<stop offset="0.6" stop-color="#EEE8AA"/>
<stop offset="0.8" stop-color="#2E8B57"/>
<stop offset="1" stop-color="#4682B4"/>
</linearGradient>
<linearGradient id="paint19_linear_16572_162258" x1="622.141" y1="747.332" x2="624.887" y2="-36.5458" gradientUnits="userSpaceOnUse">
<stop stop-color="#914CEB"/>
<stop offset="0.2" stop-color="#CD5C5C"/>
<stop offset="0.4" stop-color="#FF8C00"/>
<stop offset="0.6" stop-color="#EEE8AA"/>
<stop offset="0.8" stop-color="#2E8B57"/>
<stop offset="1" stop-color="#4682B4"/>
</linearGradient>
<linearGradient id="paint20_linear_16572_162258" x1="605.528" y1="747.123" x2="669.594" y2="-34.4548" gradientUnits="userSpaceOnUse">
<stop stop-color="#914CEB"/>
<stop offset="0.2" stop-color="#CD5C5C"/>
<stop offset="0.4" stop-color="#FF8C00"/>
<stop offset="0.6" stop-color="#EEE8AA"/>
<stop offset="0.8" stop-color="#2E8B57"/>
<stop offset="1" stop-color="#4682B4"/>
</linearGradient>
<linearGradient id="paint21_linear_16572_162258" x1="588.991" y1="745.616" x2="714.219" y2="-29.4215" gradientUnits="userSpaceOnUse">
<stop stop-color="#914CEB"/>
<stop offset="0.2" stop-color="#CD5C5C"/>
<stop offset="0.4" stop-color="#FF8C00"/>
<stop offset="0.6" stop-color="#EEE8AA"/>
<stop offset="0.8" stop-color="#2E8B57"/>
<stop offset="1" stop-color="#4682B4"/>
</linearGradient>
<linearGradient id="paint22_linear_16572_162258" x1="572.642" y1="742.803" x2="758.71" y2="-21.4075" gradientUnits="userSpaceOnUse">
<stop stop-color="#914CEB"/>
<stop offset="0.2" stop-color="#CD5C5C"/>
<stop offset="0.4" stop-color="#FF8C00"/>
<stop offset="0.6" stop-color="#EEE8AA"/>
<stop offset="0.8" stop-color="#2E8B57"/>
<stop offset="1" stop-color="#4682B4"/>
</linearGradient>
<linearGradient id="paint23_linear_16572_162258" x1="556.596" y1="738.761" x2="802.996" y2="-10.2583" gradientUnits="userSpaceOnUse">
<stop stop-color="#914CEB"/>
<stop offset="0.2" stop-color="#CD5C5C"/>
<stop offset="0.4" stop-color="#FF8C00"/>
<stop offset="0.6" stop-color="#EEE8AA"/>
<stop offset="0.8" stop-color="#2E8B57"/>
<stop offset="1" stop-color="#4682B4"/>
</linearGradient>
<linearGradient id="paint24_linear_16572_162258" x1="540.96" y1="733.438" x2="846.962" y2="4.06815" gradientUnits="userSpaceOnUse">
<stop stop-color="#914CEB"/>
<stop offset="0.2" stop-color="#CD5C5C"/>
<stop offset="0.4" stop-color="#FF8C00"/>
<stop offset="0.6" stop-color="#EEE8AA"/>
<stop offset="0.8" stop-color="#2E8B57"/>
<stop offset="1" stop-color="#4682B4"/>
</linearGradient>
<linearGradient id="paint25_linear_16572_162258" x1="525.846" y1="726.927" x2="890.454" y2="21.7732" gradientUnits="userSpaceOnUse">
<stop stop-color="#914CEB"/>
<stop offset="0.2" stop-color="#CD5C5C"/>
<stop offset="0.4" stop-color="#FF8C00"/>
<stop offset="0.6" stop-color="#EEE8AA"/>
<stop offset="0.8" stop-color="#2E8B57"/>
<stop offset="1" stop-color="#4682B4"/>
</linearGradient>
<linearGradient id="paint26_linear_16572_162258" x1="511.352" y1="719.247" x2="933.255" y2="42.9828" gradientUnits="userSpaceOnUse">
<stop stop-color="#914CEB"/>
<stop offset="0.2" stop-color="#CD5C5C"/>
<stop offset="0.4" stop-color="#FF8C00"/>
<stop offset="0.6" stop-color="#EEE8AA"/>
<stop offset="0.8" stop-color="#2E8B57"/>
<stop offset="1" stop-color="#4682B4"/>
</linearGradient>
<linearGradient id="paint27_linear_16572_162258" x1="497.581" y1="710.481" x2="975.095" y2="67.873" gradientUnits="userSpaceOnUse">
<stop stop-color="#914CEB"/>
<stop offset="0.2" stop-color="#CD5C5C"/>
<stop offset="0.4" stop-color="#FF8C00"/>
<stop offset="0.6" stop-color="#EEE8AA"/>
<stop offset="0.8" stop-color="#2E8B57"/>
<stop offset="1" stop-color="#4682B4"/>
</linearGradient>
<linearGradient id="paint28_linear_16572_162258" x1="484.626" y1="700.648" x2="1015.63" y2="96.5268" gradientUnits="userSpaceOnUse">
<stop stop-color="#914CEB"/>
<stop offset="0.2" stop-color="#CD5C5C"/>
<stop offset="0.4" stop-color="#FF8C00"/>
<stop offset="0.6" stop-color="#EEE8AA"/>
<stop offset="0.8" stop-color="#2E8B57"/>
<stop offset="1" stop-color="#4682B4"/>
</linearGradient>
<linearGradient id="paint29_linear_16572_162258" x1="472.578" y1="689.859" x2="1054.47" y2="129.069" gradientUnits="userSpaceOnUse">
<stop stop-color="#914CEB"/>
<stop offset="0.2" stop-color="#CD5C5C"/>
<stop offset="0.4" stop-color="#FF8C00"/>
<stop offset="0.6" stop-color="#EEE8AA"/>
<stop offset="0.8" stop-color="#2E8B57"/>
<stop offset="1" stop-color="#4682B4"/>
</linearGradient>
<linearGradient id="paint30_linear_16572_162258" x1="461.518" y1="678.136" x2="1091.14" y2="165.472" gradientUnits="userSpaceOnUse">
<stop stop-color="#914CEB"/>
<stop offset="0.2" stop-color="#CD5C5C"/>
<stop offset="0.4" stop-color="#FF8C00"/>
<stop offset="0.6" stop-color="#EEE8AA"/>
<stop offset="0.8" stop-color="#2E8B57"/>
<stop offset="1" stop-color="#4682B4"/>
</linearGradient>
<linearGradient id="paint31_linear_16572_162258" x1="451.519" y1="665.606" x2="1125.15" y2="205.727" gradientUnits="userSpaceOnUse">
<stop stop-color="#914CEB"/>
<stop offset="0.2" stop-color="#CD5C5C"/>
<stop offset="0.4" stop-color="#FF8C00"/>
<stop offset="0.6" stop-color="#EEE8AA"/>
<stop offset="0.8" stop-color="#2E8B57"/>
<stop offset="1" stop-color="#4682B4"/>
</linearGradient>
<linearGradient id="paint32_linear_16572_162258" x1="442.655" y1="652.332" x2="1155.96" y2="249.666" gradientUnits="userSpaceOnUse">
<stop stop-color="#914CEB"/>
<stop offset="0.2" stop-color="#CD5C5C"/>
<stop offset="0.4" stop-color="#FF8C00"/>
<stop offset="0.6" stop-color="#EEE8AA"/>
<stop offset="0.8" stop-color="#2E8B57"/>
<stop offset="1" stop-color="#4682B4"/>
</linearGradient>
<linearGradient id="paint33_linear_16572_162258" x1="434.984" y1="638.411" x2="1183.03" y2="297.039" gradientUnits="userSpaceOnUse">
<stop stop-color="#914CEB"/>
<stop offset="0.2" stop-color="#CD5C5C"/>
<stop offset="0.4" stop-color="#FF8C00"/>
<stop offset="0.6" stop-color="#EEE8AA"/>
<stop offset="0.8" stop-color="#2E8B57"/>
<stop offset="1" stop-color="#4682B4"/>
</linearGradient>
<linearGradient id="paint34_linear_16572_162258" x1="428.561" y1="623.953" x2="1205.83" y2="347.499" gradientUnits="userSpaceOnUse">
<stop stop-color="#914CEB"/>
<stop offset="0.2" stop-color="#CD5C5C"/>
<stop offset="0.4" stop-color="#FF8C00"/>
<stop offset="0.6" stop-color="#EEE8AA"/>
<stop offset="0.8" stop-color="#2E8B57"/>
<stop offset="1" stop-color="#4682B4"/>
</linearGradient>
<linearGradient id="paint35_linear_16572_162258" x1="423.426" y1="609.014" x2="1223.89" y2="400.528" gradientUnits="userSpaceOnUse">
<stop stop-color="#914CEB"/>
<stop offset="0.2" stop-color="#CD5C5C"/>
<stop offset="0.4" stop-color="#FF8C00"/>
<stop offset="0.6" stop-color="#EEE8AA"/>
<stop offset="0.8" stop-color="#2E8B57"/>
<stop offset="1" stop-color="#4682B4"/>
</linearGradient>
<linearGradient id="paint36_linear_16572_162258" x1="419.618" y1="593.752" x2="1236.8" y2="455.605" gradientUnits="userSpaceOnUse">
<stop stop-color="#914CEB"/>
<stop offset="0.2" stop-color="#CD5C5C"/>
<stop offset="0.4" stop-color="#FF8C00"/>
<stop offset="0.6" stop-color="#EEE8AA"/>
<stop offset="0.8" stop-color="#2E8B57"/>
<stop offset="1" stop-color="#4682B4"/>
</linearGradient>
<linearGradient id="paint37_linear_16572_162258" x1="417.162" y1="578.238" x2="1244.26" y2="512.034" gradientUnits="userSpaceOnUse">
<stop stop-color="#914CEB"/>
<stop offset="0.2" stop-color="#CD5C5C"/>
<stop offset="0.4" stop-color="#FF8C00"/>
<stop offset="0.6" stop-color="#EEE8AA"/>
<stop offset="0.8" stop-color="#2E8B57"/>
<stop offset="1" stop-color="#4682B4"/>
</linearGradient>
<linearGradient id="paint38_linear_16572_162258" x1="416.073" y1="562.587" x2="1246.07" y2="569.107" gradientUnits="userSpaceOnUse">
<stop stop-color="#914CEB"/>
<stop offset="0.2" stop-color="#CD5C5C"/>
<stop offset="0.4" stop-color="#FF8C00"/>
<stop offset="0.6" stop-color="#EEE8AA"/>
<stop offset="0.8" stop-color="#2E8B57"/>
<stop offset="1" stop-color="#4682B4"/>
</linearGradient>
<linearGradient id="paint39_linear_16572_162258" x1="416.361" y1="546.9" x2="1242.19" y2="626.067" gradientUnits="userSpaceOnUse">
<stop stop-color="#914CEB"/>
<stop offset="0.2" stop-color="#CD5C5C"/>
<stop offset="0.4" stop-color="#FF8C00"/>
<stop offset="0.6" stop-color="#EEE8AA"/>
<stop offset="0.8" stop-color="#2E8B57"/>
<stop offset="1" stop-color="#4682B4"/>
</linearGradient>
<linearGradient id="paint40_linear_16572_162258" x1="418.023" y1="531.291" x2="1232.71" y2="682.174" gradientUnits="userSpaceOnUse">
<stop stop-color="#914CEB"/>
<stop offset="0.2" stop-color="#CD5C5C"/>
<stop offset="0.4" stop-color="#FF8C00"/>
<stop offset="0.6" stop-color="#EEE8AA"/>
<stop offset="0.8" stop-color="#2E8B57"/>
<stop offset="1" stop-color="#4682B4"/>
</linearGradient>
<linearGradient id="paint41_linear_16572_162258" x1="421.047" y1="515.851" x2="1217.83" y2="736.701" gradientUnits="userSpaceOnUse">
<stop stop-color="#914CEB"/>
<stop offset="0.2" stop-color="#CD5C5C"/>
<stop offset="0.4" stop-color="#FF8C00"/>
<stop offset="0.6" stop-color="#EEE8AA"/>
<stop offset="0.8" stop-color="#2E8B57"/>
<stop offset="1" stop-color="#4682B4"/>
</linearGradient>
<linearGradient id="paint42_linear_16572_162258" x1="425.413" y1="500.71" x2="1197.88" y2="789.029" gradientUnits="userSpaceOnUse">
<stop stop-color="#914CEB"/>
<stop offset="0.2" stop-color="#CD5C5C"/>
<stop offset="0.4" stop-color="#FF8C00"/>
<stop offset="0.6" stop-color="#EEE8AA"/>
<stop offset="0.8" stop-color="#2E8B57"/>
<stop offset="1" stop-color="#4682B4"/>
</linearGradient>
<linearGradient id="paint43_linear_16572_162258" x1="431.091" y1="485.973" x2="1173.31" y2="838.601" gradientUnits="userSpaceOnUse">
<stop stop-color="#914CEB"/>
<stop offset="0.2" stop-color="#CD5C5C"/>
<stop offset="0.4" stop-color="#FF8C00"/>
<stop offset="0.6" stop-color="#EEE8AA"/>
<stop offset="0.8" stop-color="#2E8B57"/>
<stop offset="1" stop-color="#4682B4"/>
</linearGradient>
<linearGradient id="paint44_linear_16572_162258" x1="438.043" y1="471.717" x2="1144.59" y2="884.939" gradientUnits="userSpaceOnUse">
<stop stop-color="#914CEB"/>
<stop offset="0.2" stop-color="#CD5C5C"/>
<stop offset="0.4" stop-color="#FF8C00"/>
<stop offset="0.6" stop-color="#EEE8AA"/>
<stop offset="0.8" stop-color="#2E8B57"/>
<stop offset="1" stop-color="#4682B4"/>
</linearGradient>
<linearGradient id="paint45_linear_16572_162258" x1="446.219" y1="458.052" x2="1112.27" y2="927.716" gradientUnits="userSpaceOnUse">
<stop stop-color="#914CEB"/>
<stop offset="0.2" stop-color="#CD5C5C"/>
<stop offset="0.4" stop-color="#FF8C00"/>
<stop offset="0.6" stop-color="#EEE8AA"/>
<stop offset="0.8" stop-color="#2E8B57"/>
<stop offset="1" stop-color="#4682B4"/>
</linearGradient>
<linearGradient id="paint46_linear_16572_162258" x1="455.566" y1="445.073" x2="1076.9" y2="966.702" gradientUnits="userSpaceOnUse">
<stop stop-color="#914CEB"/>
<stop offset="0.2" stop-color="#CD5C5C"/>
<stop offset="0.4" stop-color="#FF8C00"/>
<stop offset="0.6" stop-color="#EEE8AA"/>
<stop offset="0.8" stop-color="#2E8B57"/>
<stop offset="1" stop-color="#4682B4"/>
</linearGradient>
<linearGradient id="paint47_linear_16572_162258" x1="466.014" y1="432.889" x2="1039.01" y2="1001.79" gradientUnits="userSpaceOnUse">
<stop stop-color="#914CEB"/>
<stop offset="0.2" stop-color="#CD5C5C"/>
<stop offset="0.4" stop-color="#FF8C00"/>
<stop offset="0.6" stop-color="#EEE8AA"/>
<stop offset="0.8" stop-color="#2E8B57"/>
<stop offset="1" stop-color="#4682B4"/>
</linearGradient>
<linearGradient id="paint48_linear_16572_162258" x1="477.499" y1="421.546" x2="999.105" y2="1032.91" gradientUnits="userSpaceOnUse">
<stop stop-color="#914CEB"/>
<stop offset="0.2" stop-color="#CD5C5C"/>
<stop offset="0.4" stop-color="#FF8C00"/>
<stop offset="0.6" stop-color="#EEE8AA"/>
<stop offset="0.8" stop-color="#2E8B57"/>
<stop offset="1" stop-color="#4682B4"/>
</linearGradient>
<linearGradient id="paint49_linear_16572_162258" x1="489.938" y1="411.147" x2="957.638" y2="1060.14" gradientUnits="userSpaceOnUse">
<stop stop-color="#914CEB"/>
<stop offset="0.2" stop-color="#CD5C5C"/>
<stop offset="0.4" stop-color="#FF8C00"/>
<stop offset="0.6" stop-color="#EEE8AA"/>
<stop offset="0.8" stop-color="#2E8B57"/>
<stop offset="1" stop-color="#4682B4"/>
</linearGradient>
<linearGradient id="paint50_linear_16572_162258" x1="503.245" y1="401.748" x2="915.003" y2="1083.53" gradientUnits="userSpaceOnUse">
<stop stop-color="#914CEB"/>
<stop offset="0.2" stop-color="#CD5C5C"/>
<stop offset="0.4" stop-color="#FF8C00"/>
<stop offset="0.6" stop-color="#EEE8AA"/>
<stop offset="0.8" stop-color="#2E8B57"/>
<stop offset="1" stop-color="#4682B4"/>
</linearGradient>
<linearGradient id="paint51_linear_16572_162258" x1="517.329" y1="393.431" x2="871.531" y2="1103.26" gradientUnits="userSpaceOnUse">
<stop stop-color="#914CEB"/>
<stop offset="0.2" stop-color="#CD5C5C"/>
<stop offset="0.4" stop-color="#FF8C00"/>
<stop offset="0.6" stop-color="#EEE8AA"/>
<stop offset="0.8" stop-color="#2E8B57"/>
<stop offset="1" stop-color="#4682B4"/>
</linearGradient>
<linearGradient id="paint52_linear_16572_162258" x1="532.094" y1="386.242" x2="827.489" y2="1119.46" gradientUnits="userSpaceOnUse">
<stop stop-color="#914CEB"/>
<stop offset="0.2" stop-color="#CD5C5C"/>
<stop offset="0.4" stop-color="#FF8C00"/>
<stop offset="0.6" stop-color="#EEE8AA"/>
<stop offset="0.8" stop-color="#2E8B57"/>
<stop offset="1" stop-color="#4682B4"/>
</linearGradient>
<linearGradient id="paint53_linear_16572_162258" x1="547.439" y1="380.223" x2="783.084" y2="1132.29" gradientUnits="userSpaceOnUse">
<stop stop-color="#914CEB"/>
<stop offset="0.2" stop-color="#CD5C5C"/>
<stop offset="0.4" stop-color="#FF8C00"/>
<stop offset="0.6" stop-color="#EEE8AA"/>
<stop offset="0.8" stop-color="#2E8B57"/>
<stop offset="1" stop-color="#4682B4"/>
</linearGradient>
<linearGradient id="paint54_linear_16572_162258" x1="563.259" y1="375.431" x2="738.465" y2="1141.9" gradientUnits="userSpaceOnUse">
<stop stop-color="#914CEB"/>
<stop offset="0.2" stop-color="#CD5C5C"/>
<stop offset="0.4" stop-color="#FF8C00"/>
<stop offset="0.6" stop-color="#EEE8AA"/>
<stop offset="0.8" stop-color="#2E8B57"/>
<stop offset="1" stop-color="#4682B4"/>
</linearGradient>
<linearGradient id="paint55_linear_16572_162258" x1="579.444" y1="371.9" x2="693.739" y2="1148.42" gradientUnits="userSpaceOnUse">
<stop stop-color="#914CEB"/>
<stop offset="0.2" stop-color="#CD5C5C"/>
<stop offset="0.4" stop-color="#FF8C00"/>
<stop offset="0.6" stop-color="#EEE8AA"/>
<stop offset="0.8" stop-color="#2E8B57"/>
<stop offset="1" stop-color="#4682B4"/>
</linearGradient>
<linearGradient id="paint56_linear_16572_162258" x1="595.883" y1="369.635" x2="648.977" y2="1151.94" gradientUnits="userSpaceOnUse">
<stop stop-color="#914CEB"/>
<stop offset="0.2" stop-color="#CD5C5C"/>
<stop offset="0.4" stop-color="#FF8C00"/>
<stop offset="0.6" stop-color="#EEE8AA"/>
<stop offset="0.8" stop-color="#2E8B57"/>
<stop offset="1" stop-color="#4682B4"/>
</linearGradient>
<linearGradient id="paint57_linear_16572_162258" x1="612.466" y1="368.653" x2="604.227" y2="1152.5" gradientUnits="userSpaceOnUse">
<stop stop-color="#914CEB"/>
<stop offset="0.2" stop-color="#CD5C5C"/>
<stop offset="0.4" stop-color="#FF8C00"/>
<stop offset="0.6" stop-color="#EEE8AA"/>
<stop offset="0.8" stop-color="#2E8B57"/>
<stop offset="1" stop-color="#4682B4"/>
</linearGradient>
<linearGradient id="paint58_linear_16572_162258" x1="629.075" y1="368.988" x2="559.525" y2="1150.15" gradientUnits="userSpaceOnUse">
<stop stop-color="#914CEB"/>
<stop offset="0.2" stop-color="#CD5C5C"/>
<stop offset="0.4" stop-color="#FF8C00"/>
<stop offset="0.6" stop-color="#EEE8AA"/>
<stop offset="0.8" stop-color="#2E8B57"/>
<stop offset="1" stop-color="#4682B4"/>
</linearGradient>
<linearGradient id="paint59_linear_16572_162258" x1="645.599" y1="370.628" x2="514.91" y2="1144.87" gradientUnits="userSpaceOnUse">
<stop stop-color="#914CEB"/>
<stop offset="0.2" stop-color="#CD5C5C"/>
<stop offset="0.4" stop-color="#FF8C00"/>
<stop offset="0.6" stop-color="#EEE8AA"/>
<stop offset="0.8" stop-color="#2E8B57"/>
<stop offset="1" stop-color="#4682B4"/>
</linearGradient>
<linearGradient id="paint60_linear_16572_162258" x1="661.925" y1="373.534" x2="470.432" y2="1136.56" gradientUnits="userSpaceOnUse">
<stop stop-color="#914CEB"/>
<stop offset="0.2" stop-color="#CD5C5C"/>
<stop offset="0.4" stop-color="#FF8C00"/>
<stop offset="0.6" stop-color="#EEE8AA"/>
<stop offset="0.8" stop-color="#2E8B57"/>
<stop offset="1" stop-color="#4682B4"/>
</linearGradient>
<linearGradient id="paint61_linear_16572_162258" x1="677.938" y1="377.718" x2="426.169" y2="1125.16" gradientUnits="userSpaceOnUse">
<stop stop-color="#914CEB"/>
<stop offset="0.2" stop-color="#CD5C5C"/>
<stop offset="0.4" stop-color="#FF8C00"/>
<stop offset="0.6" stop-color="#EEE8AA"/>
<stop offset="0.8" stop-color="#2E8B57"/>
<stop offset="1" stop-color="#4682B4"/>
</linearGradient>
<linearGradient id="paint62_linear_16572_162258" x1="693.53" y1="383.123" x2="382.237" y2="1110.51" gradientUnits="userSpaceOnUse">
<stop stop-color="#914CEB"/>
<stop offset="0.2" stop-color="#CD5C5C"/>
<stop offset="0.4" stop-color="#FF8C00"/>
<stop offset="0.6" stop-color="#EEE8AA"/>
<stop offset="0.8" stop-color="#2E8B57"/>
<stop offset="1" stop-color="#4682B4"/>
</linearGradient>
</defs>
</svg>
