<svg width="30" height="30" viewBox="0 0 30 30" fill="none" xmlns="http://www.w3.org/2000/svg">
<g id="new">
<path id="Vector" d="M30 15C30 12.9642 29.1068 11.0436 27.5917 9.83661C27.7669 7.80581 27.0413 5.81633 25.6026 4.37524C24.1639 2.93665 22.1809 2.21172 20.2518 2.42832C17.7322 -0.771878 12.2889 -0.831976 9.82809 2.3845C7.79638 2.20421 5.81097 2.93414 4.37226 4.37524C2.93481 5.81507 2.2092 7.80581 2.42688 9.73019C-0.770797 12.2518 -0.832099 17.6994 2.3831 20.1634C2.20795 22.1942 2.93356 24.1837 4.37226 25.6248C5.81097 27.0634 7.79638 27.7908 9.723 27.5717C12.2426 30.7719 17.6859 30.832 20.1467 27.6155C22.1734 27.7858 24.1626 27.0659 25.6026 25.6248C27.04 24.1849 27.7656 22.1942 27.5479 20.2698C29.1068 18.9577 30 17.0371 30 15.0013V15ZM21.9182 13.2046L15.9895 18.9239C14.5345 20.3775 12.1538 20.365 10.6988 18.9076L7.88146 16.2883C7.37603 15.8176 7.34601 15.025 7.8164 14.5192C8.28805 14.0121 9.08121 13.9846 9.58413 14.4541L12.434 17.1047C12.957 17.6268 13.7476 17.6255 14.2355 17.136L20.1805 11.4004C20.6784 10.9221 21.4703 10.9359 21.9495 11.433C22.4299 11.93 22.4149 12.7238 21.9182 13.2033V13.2046Z" fill="#2E8B57"/>
</g>
</svg>
