<svg width="24" height="24" viewBox="0 0 24 24" fill="none" xmlns="http://www.w3.org/2000/svg">
<g id="icons8-google-96 3" clip-path="url(#clip0_16656_1494)">
<path id="Vector" d="M16 18.5V19.5C16 21.981 13.981 24 11.5 24H4.5C2.019 24 0 21.981 0 19.5V12.5C0 10.019 2.019 8 4.5 8H5.5C5.776 8 6 8.224 6 8.5C6 8.776 5.776 9 5.5 9H4.5C2.57 9 1 10.57 1 12.5V19.5C1 21.43 2.57 23 4.5 23H11.5C13.43 23 15 21.43 15 19.5V18.5C15 18.224 15.224 18 15.5 18C15.776 18 16 18.224 16 18.5ZM24 4.5V11.5C24 13.981 21.981 16 19.5 16H12.5C10.019 16 8 13.981 8 11.5V4.5C8 2.019 10.019 0 12.5 0H19.5C21.981 0 24 2.019 24 4.5ZM23 4.5C23 2.57 21.43 1 19.5 1H12.5C10.57 1 9 2.57 9 4.5V11.5C9 13.43 10.57 15 12.5 15H19.5C21.43 15 23 13.43 23 11.5V4.5Z" fill="#F6F6F6"/>
</g>
<defs>
<clipPath id="clip0_16656_1494">
<rect width="24" height="24" fill="white"/>
</clipPath>
</defs>
</svg>
