<svg width="24" height="24" viewBox="0 0 24 24" fill="none" xmlns="http://www.w3.org/2000/svg">
<g id="house-blank 1" clip-path="url(#clip0_16570_162254)">
<path id="Vector" d="M19.5 24.0001H4.5C2.019 24.0001 0 21.9811 0 19.5001V9.56109C0 8.06409 0.741 6.66909 1.983 5.83209L9.483 0.771088C11.01 -0.261912 12.988 -0.261912 14.517 0.771088L22.016 5.83209C23.258 6.67009 23.999 8.06409 23.999 9.56109V19.5001C23.999 21.9811 21.981 24.0001 19.5 24.0001ZM12 0.996088C11.318 0.996088 10.637 1.19709 10.043 1.59909L2.542 6.65909C1.576 7.31109 1 8.39509 1 9.56009V19.4991C1 21.4291 2.57 22.9991 4.5 22.9991H19.5C21.43 22.9991 23 21.4291 23 19.4991V9.56109C23 8.39609 22.424 7.31209 21.458 6.66009L13.958 1.59909C13.363 1.19809 12.682 0.996088 12 0.996088Z" fill="#F6F6F6"/>
</g>
<defs>
<clipPath id="clip0_16570_162254">
<rect width="24" height="24" fill="white"/>
</clipPath>
</defs>
</svg>
