<svg width="30" height="30" viewBox="0 0 30 30" fill="none" xmlns="http://www.w3.org/2000/svg">
<g id="loadingIcon">
<path id="loading" d="M29.25 15C29.6642 15 30.002 15.336 29.9813 15.7497C29.846 18.4533 28.9811 21.0751 27.472 23.3336C25.8238 25.8003 23.4811 27.7229 20.7402 28.8582C17.9994 29.9935 14.9834 30.2906 12.0736 29.7118C9.16393 29.133 6.49118 27.7044 4.3934 25.6066C2.29561 23.5088 0.866997 20.8361 0.28822 17.9263C-0.290558 15.0166 0.0064935 12.0006 1.14181 9.25974C2.27712 6.51885 4.19971 4.17617 6.66645 2.52795C8.92494 1.01888 11.5467 0.154015 14.2503 0.0187428C14.664 -0.00195626 15 0.335786 15 0.75C15 1.16421 14.664 1.49783 14.2504 1.52082C11.8437 1.65465 9.51159 2.43093 7.49981 3.77516C5.27974 5.25856 3.54941 7.36697 2.52763 9.83377C1.50584 12.3006 1.2385 15.015 1.7594 17.6337C2.2803 20.2525 3.56605 22.6579 5.45406 24.5459C7.34206 26.4339 9.74753 27.7197 12.3663 28.2406C14.985 28.7615 17.6994 28.4942 20.1662 27.4724C22.633 26.4506 24.7414 24.7203 26.2248 22.5002C27.5691 20.4884 28.3454 18.1564 28.4792 15.7496C28.5022 15.3361 28.8358 15 29.25 15Z" fill="#F6F6F6"/>
<path id="loading_2" d="M15 4.3125C15 4.00184 15.252 3.74853 15.5623 3.76406C17.59 3.86551 19.5563 4.51416 21.2502 5.64597C23.1002 6.88213 24.5422 8.63914 25.3936 10.6948C26.2451 12.7505 26.4679 15.0125 26.0338 17.1948C25.5998 19.3771 24.5283 21.3816 22.955 22.955C21.3816 24.5283 19.3771 25.5998 17.1948 26.0338C15.0125 26.4679 12.7505 26.2451 10.6948 25.3936C8.63914 24.5422 6.88213 23.1002 5.64597 21.2502C4.51416 19.5563 3.86551 17.59 3.76406 15.5623C3.74853 15.252 4.00184 15 4.3125 15C4.62316 15 4.87337 15.252 4.89062 15.5622C4.99099 17.3673 5.5732 19.1163 6.58137 20.6251C7.69392 22.2902 9.27523 23.5879 11.1253 24.3543C12.9754 25.1206 15.0112 25.3211 16.9753 24.9305C18.9393 24.5398 20.7435 23.5755 22.1595 22.1595C23.5755 20.7435 24.5398 18.9393 24.9305 16.9753C25.3211 15.0112 25.1206 12.9754 24.3543 11.1253C23.5879 9.27523 22.2902 7.69392 20.6251 6.58137C19.1163 5.5732 17.3673 4.99099 15.5622 4.89062C15.252 4.87337 15 4.62316 15 4.3125Z" fill="#F6F6F6"/>
</g>
</svg>
