<svg width="18" height="18" viewBox="0 0 18 18" fill="none" xmlns="http://www.w3.org/2000/svg">
<g id="logo">
<rect id="Rectangle 1911" x="7.1001" width="3.6" height="10.3766" rx="1.8" fill="url(#paint0_linear_16556_160885)"/>
<path id="Ellipse 153" d="M15.6645 12.3763C16.5381 12.7385 17.5655 12.3549 17.7852 11.435C18.1533 9.89343 18.0493 8.27418 17.4659 6.76729C16.8642 5.21299 15.788 3.87013 14.3864 2.89438C13.6464 2.37926 12.6626 2.72011 12.2396 3.51629C11.7816 4.37826 12.1721 5.43346 12.876 6.10968C13.4046 6.6175 13.8172 7.22812 14.0796 7.90572C14.3234 8.53561 14.4277 9.19822 14.3938 9.855C14.3413 10.8721 14.7237 11.9863 15.6645 12.3763Z" fill="#2E8B57"/>
<path id="Ellipse 151" d="M9 16.3228C9 17.2492 9.75655 18.0151 10.6689 17.8547C11.3485 17.7352 12.0128 17.5428 12.6484 17.2801C13.7972 16.8054 14.8267 16.1117 15.6704 15.2437C16.514 14.3758 17.1533 13.3528 17.547 12.2406C17.7412 11.6919 17.8736 11.1275 17.9429 10.5564C18.0615 9.57994 17.1692 8.85901 16.1897 8.94946C15.1909 9.04169 14.4927 9.95883 14.2141 10.9225C14.1881 11.0122 14.1595 11.1013 14.1282 11.1897C13.892 11.857 13.5084 12.4708 13.0022 12.9916C12.496 13.5124 11.8783 13.9286 11.189 14.2134C11.014 14.2857 10.8354 14.3492 10.6539 14.4036C9.76651 14.6696 9 15.3964 9 16.3228Z" fill="#EEE8AA"/>
<path id="Ellipse 150" d="M1.8 9.61335C0.805888 9.61335 -0.0201571 10.4295 0.206021 11.3976C0.376368 12.1266 0.650977 12.8339 1.02471 13.4999C1.69784 14.6994 2.67252 15.7292 3.8655 16.5014C5.05848 17.2736 6.43431 17.7653 7.87548 17.9344C8.72578 18.0342 9.58391 18.02 10.4242 17.8945C11.3782 17.752 11.8422 16.7239 11.4842 15.8282C11.1489 14.9892 10.2077 14.5897 9.30541 14.6374C8.97946 14.6546 8.65141 14.6443 8.32529 14.606C7.46058 14.5045 6.63509 14.2095 5.9193 13.7462C5.20351 13.2828 4.6187 12.665 4.21483 11.9453C4.11002 11.7585 4.01821 11.5664 3.93971 11.37C3.5707 10.4469 2.79411 9.61335 1.8 9.61335Z" fill="#FF8C00"/>
<path id="Ellipse 152" d="M5.85038 3.47769C5.43859 2.67549 4.45934 2.32129 3.71248 2.82657C3.20121 3.17247 2.72921 3.56841 2.30494 4.00849C1.51508 4.8278 0.906134 5.78405 0.51286 6.82266C0.119585 7.86127 -0.0503119 8.96189 0.0128685 10.0617C0.0441007 10.6053 0.131987 11.1435 0.274491 11.6688C0.521257 12.5785 1.55487 12.9321 2.41572 12.5484C3.34614 12.1336 3.69799 11.0089 3.61543 9.99353C3.61242 9.95652 3.60985 9.91946 3.60772 9.88235C3.56981 9.22247 3.67175 8.5621 3.90772 7.93894C4.14368 7.31577 4.50905 6.74202 4.98296 6.25044C5.04655 6.18448 5.11192 6.12018 5.179 6.05759C5.89154 5.39268 6.29545 4.34471 5.85038 3.47769Z" fill="#CD5C5C"/>
</g>
<defs>
<linearGradient id="paint0_linear_16556_160885" x1="8.9001" y1="0" x2="8.9001" y2="10.3766" gradientUnits="userSpaceOnUse">
<stop stop-color="#4682B4"/>
<stop offset="1" stop-color="#9747FF"/>
</linearGradient>
</defs>
</svg>
