<svg width="81" height="80" viewBox="0 0 81 80" fill="none" xmlns="http://www.w3.org/2000/svg">
<rect x="32.5" width="16" height="46.118" rx="8" fill="url(#paint0_linear_16664_1522)"/>
<path d="M70.12 55.0052C74.0027 56.6149 78.569 54.9099 79.5451 50.8217C81.1811 43.9701 80.7191 36.7734 78.1264 30.0762C75.4521 23.1681 70.6689 17.1999 64.4394 12.8632C61.1508 10.5738 56.7783 12.0887 54.8981 15.6273V15.6273C52.8626 19.4582 54.5984 24.148 57.7268 27.1534C60.0761 29.4104 61.91 32.1243 63.0758 35.1358C64.1596 37.9353 64.6229 40.8803 64.4723 43.7993C64.2391 48.3199 65.9385 53.2716 70.12 55.0052V55.0052Z" fill="#2E8B57"/>
<path d="M40.5 72.545C40.5 76.6622 43.8624 80.0665 47.9175 79.3534C50.9377 78.8223 53.8903 77.9672 56.7151 76.7999C61.8211 74.6899 66.3962 71.6069 70.146 67.7492C73.8958 63.8916 76.737 59.3449 78.4867 54.4019C79.35 51.9632 79.9381 49.4546 80.2463 46.9168C80.7733 42.5768 76.8077 39.3727 72.4544 39.7747V39.7747C68.0149 40.1846 64.9119 44.2608 63.6736 48.5437C63.5583 48.9423 63.4311 49.3383 63.292 49.7313C62.2422 52.6971 60.5375 55.4251 58.2876 57.7397C56.0377 60.0542 53.2926 61.9041 50.229 63.1701C49.4512 63.4915 48.6572 63.7735 47.8505 64.0153C43.9067 65.1977 40.5 68.4278 40.5 72.545V72.545Z" fill="#EEE8AA"/>
<path d="M8.5 42.7253C4.08172 42.7253 0.410413 46.3527 1.41565 50.6551C2.17275 53.8955 3.39323 57.0389 5.05426 59.9988C8.04595 65.3298 12.3779 69.9068 17.68 73.3388C22.9821 76.7709 29.0969 78.9561 35.5021 79.7078C39.2812 80.1513 43.0952 80.088 46.8298 79.5303C51.0696 78.8971 53.1321 74.3275 51.541 70.3469V70.3469C50.0505 66.618 45.8676 64.8426 41.8574 65.0543C40.4087 65.1308 38.9507 65.0849 37.5013 64.9148C33.6581 64.4638 29.9893 63.1527 26.808 61.0934C23.6267 59.0342 21.0276 56.288 19.2326 53.0894C18.7668 52.2594 18.3587 51.4053 18.0098 50.5325C16.3698 46.4299 12.9183 42.7253 8.5 42.7253V42.7253Z" fill="#FF8C00"/>
<path d="M26.5017 15.4557C24.6715 11.8904 20.3193 10.3162 16.9999 12.5618C14.7276 14.0992 12.6298 15.8589 10.7442 17.8148C7.23371 21.4562 4.52726 25.7062 2.77938 30.3222C1.03149 34.9383 0.276391 39.8299 0.557194 44.7179C0.696003 47.1342 1.08661 49.5262 1.71996 51.8609C2.8167 55.9036 7.41052 57.4753 11.2365 55.7698V55.7698C15.3717 53.9265 16.9355 48.9276 16.5686 44.415C16.5552 44.2505 16.5438 44.0858 16.5343 43.9209C16.3658 40.9881 16.8189 38.0531 17.8676 35.2835C18.9164 32.5138 20.5402 29.9638 22.6465 27.779C22.9291 27.4859 23.2196 27.2001 23.5178 26.9219C26.6846 23.9667 28.4798 19.3091 26.5017 15.4557V15.4557Z" fill="#CD5C5C"/>
<defs>
<linearGradient id="paint0_linear_16664_1522" x1="40.5" y1="0" x2="40.5" y2="46.118" gradientUnits="userSpaceOnUse">
<stop stop-color="#4682B4"/>
<stop offset="1" stop-color="#9747FF"/>
</linearGradient>
</defs>
</svg>
