<svg width="61" height="60" viewBox="0 0 61 60" fill="none" xmlns="http://www.w3.org/2000/svg">
<g id="Star 1" filter="url(#filter0_d_16577_720)">
<path d="M28.5979 21.8541C29.1966 20.0115 31.8034 20.0115 32.4021 21.8541L33.4187 24.9828C33.6864 25.8068 34.4543 26.3647 35.3208 26.3647H38.6105C40.5479 26.3647 41.3535 28.844 39.7861 29.9828L37.1246 31.9164C36.4237 32.4257 36.1304 33.3284 36.3981 34.1525L37.4147 37.2812C38.0134 39.1238 35.9044 40.656 34.337 39.5172L31.6756 37.5836C30.9746 37.0743 30.0254 37.0743 29.3244 37.5836L26.663 39.5172C25.0956 40.656 22.9866 39.1238 23.5853 37.2812L24.6019 34.1525C24.8697 33.3284 24.5763 32.4257 23.8754 31.9164L21.214 29.9828C19.6465 28.844 20.4521 26.3647 22.3895 26.3647H25.6792C26.5457 26.3647 27.3136 25.8068 27.5813 24.9828L28.5979 21.8541Z" fill="#F6F6F6"/>
</g>
<defs>
<filter id="filter0_d_16577_720" x="0.385689" y="0.472168" width="60.2286" height="59.436" filterUnits="userSpaceOnUse" color-interpolation-filters="sRGB">
<feFlood flood-opacity="0" result="BackgroundImageFix"/>
<feColorMatrix in="SourceAlpha" type="matrix" values="0 0 0 0 0 0 0 0 0 0 0 0 0 0 0 0 0 0 127 0" result="hardAlpha"/>
<feOffset/>
<feGaussianBlur stdDeviation="10"/>
<feComposite in2="hardAlpha" operator="out"/>
<feColorMatrix type="matrix" values="0 0 0 0 0.933333 0 0 0 0 0.909804 0 0 0 0 0.666667 0 0 0 1 0"/>
<feBlend mode="normal" in2="BackgroundImageFix" result="effect1_dropShadow_16577_720"/>
<feBlend mode="normal" in="SourceGraphic" in2="effect1_dropShadow_16577_720" result="shape"/>
</filter>
</defs>
</svg>
